<svg xmlns="http://www.w3.org/2000/svg" viewBox="0 0 1200 800" width="1200" height="800" role="img">
<defs>
    <linearGradient id="bg" x1="0" y1="0" x2="1" y2="1">
      <stop offset="0" stop-color="#0b1026"/>
      <stop offset="0.55" stop-color="#170f2e"/>
      <stop offset="1" stop-color="#0d1b33"/>
    </linearGradient>
    <filter id="soft" x="-50%" y="-50%" width="200%" height="200%"><feGaussianBlur stdDeviation="60"/></filter>
    <filter id="grain"><feTurbulence type="fractalNoise" baseFrequency="0.9" numOctaves="2" stitchTiles="stitch"/><feColorMatrix type="saturate" values="0"/><feComponentTransfer><feFuncA type="linear" slope="0.05"/></feComponentTransfer><feComposite operator="over" in2="SourceGraphic"/></filter>
  </defs>
<rect width="1200" height="800" fill="url(#bg)"/>
<circle cx="1099" cy="706" r="136" fill="#5b2c86" opacity="0.11" filter="url(#soft)"/><circle cx="1149" cy="356" r="262" fill="#5b2c86" opacity="0.20" filter="url(#soft)"/><circle cx="592" cy="23" r="347" fill="#7db5ff" opacity="0.10" filter="url(#soft)"/><circle cx="1155" cy="94" r="342" fill="#7db5ff" opacity="0.17" filter="url(#soft)"/><rect x="60" y="221" width="69" height="590" fill="#0a0f22" opacity="0.85"/><rect x="66" y="257" width="6" height="8" fill="#ffd9ef" opacity="0.63"/><rect x="66" y="301" width="6" height="8" fill="#ffd9ef" opacity="0.55"/><rect x="66" y="345" width="6" height="8" fill="#ffd9ef" opacity="0.45"/><rect x="66" y="389" width="6" height="8" fill="#ffd9ef" opacity="0.27"/><rect x="66" y="433" width="6" height="8" fill="#ffd9ef" opacity="0.28"/><rect x="66" y="455" width="6" height="8" fill="#ffd9ef" opacity="0.55"/><rect x="66" y="477" width="6" height="8" fill="#ffd9ef" opacity="0.30"/><rect x="66" y="631" width="6" height="8" fill="#ffd9ef" opacity="0.33"/><rect x="66" y="675" width="6" height="8" fill="#ffd9ef" opacity="0.35"/><rect x="66" y="719" width="6" height="8" fill="#ffd9ef" opacity="0.30"/><rect x="66" y="741" width="6" height="8" fill="#ffd9ef" opacity="0.39"/><rect x="130" y="351" width="44" height="460" fill="#0a0f22" opacity="0.85"/><rect x="136" y="365" width="6" height="8" fill="#ffd9ef" opacity="0.41"/><rect x="136" y="387" width="6" height="8" fill="#ffd9ef" opacity="0.23"/><rect x="136" y="541" width="6" height="8" fill="#ffd9ef" opacity="0.48"/><rect x="136" y="563" width="6" height="8" fill="#ffd9ef" opacity="0.41"/><rect x="136" y="607" width="6" height="8" fill="#ffd9ef" opacity="0.37"/><rect x="136" y="629" width="6" height="8" fill="#ffd9ef" opacity="0.65"/><rect x="136" y="695" width="6" height="8" fill="#ffd9ef" opacity="0.70"/><rect x="136" y="717" width="6" height="8" fill="#ffd9ef" opacity="0.58"/><rect x="196" y="292" width="73" height="519" fill="#0a0f22" opacity="0.85"/><rect x="202" y="416" width="6" height="8" fill="#ffd9ef" opacity="0.30"/><rect x="202" y="526" width="6" height="8" fill="#ffd9ef" opacity="0.55"/><rect x="202" y="548" width="6" height="8" fill="#ffd9ef" opacity="0.53"/><rect x="202" y="658" width="6" height="8" fill="#ffd9ef" opacity="0.59"/><rect x="202" y="680" width="6" height="8" fill="#ffd9ef" opacity="0.60"/><rect x="247" y="424" width="33" height="387" fill="#0a0f22" opacity="0.85"/><rect x="253" y="614" width="6" height="8" fill="#ffd9ef" opacity="0.37"/><rect x="253" y="680" width="6" height="8" fill="#ffd9ef" opacity="0.64"/><rect x="253" y="702" width="6" height="8" fill="#ffd9ef" opacity="0.31"/><rect x="253" y="724" width="6" height="8" fill="#ffd9ef" opacity="0.42"/><rect x="253" y="746" width="6" height="8" fill="#ffd9ef" opacity="0.48"/><rect x="297" y="420" width="41" height="391" fill="#0a0f22" opacity="0.85"/><rect x="303" y="434" width="6" height="8" fill="#ffd9ef" opacity="0.44"/><rect x="303" y="522" width="6" height="8" fill="#ffd9ef" opacity="0.55"/><rect x="303" y="566" width="6" height="8" fill="#ffd9ef" opacity="0.57"/><rect x="303" y="588" width="6" height="8" fill="#ffd9ef" opacity="0.43"/><rect x="303" y="632" width="6" height="8" fill="#ffd9ef" opacity="0.38"/><rect x="303" y="654" width="6" height="8" fill="#ffd9ef" opacity="0.29"/><rect x="303" y="720" width="6" height="8" fill="#ffd9ef" opacity="0.35"/><rect x="383" y="277" width="46" height="534" fill="#0a0f22" opacity="0.85"/><rect x="389" y="291" width="6" height="8" fill="#ffd9ef" opacity="0.22"/><rect x="389" y="445" width="6" height="8" fill="#ffd9ef" opacity="0.34"/><rect x="389" y="489" width="6" height="8" fill="#ffd9ef" opacity="0.53"/><rect x="389" y="511" width="6" height="8" fill="#ffd9ef" opacity="0.60"/><rect x="389" y="555" width="6" height="8" fill="#ffd9ef" opacity="0.23"/><rect x="389" y="599" width="6" height="8" fill="#ffd9ef" opacity="0.37"/><rect x="389" y="687" width="6" height="8" fill="#ffd9ef" opacity="0.39"/><rect x="389" y="709" width="6" height="8" fill="#ffd9ef" opacity="0.35"/><rect x="389" y="731" width="6" height="8" fill="#ffd9ef" opacity="0.23"/><rect x="440" y="322" width="32" height="489" fill="#0a0f22" opacity="0.85"/><rect x="446" y="424" width="6" height="8" fill="#ffd9ef" opacity="0.69"/><rect x="446" y="446" width="6" height="8" fill="#ffd9ef" opacity="0.59"/><rect x="446" y="490" width="6" height="8" fill="#ffd9ef" opacity="0.58"/><rect x="446" y="512" width="6" height="8" fill="#ffd9ef" opacity="0.34"/><rect x="446" y="556" width="6" height="8" fill="#ffd9ef" opacity="0.65"/><rect x="446" y="578" width="6" height="8" fill="#ffd9ef" opacity="0.25"/><rect x="446" y="710" width="6" height="8" fill="#ffd9ef" opacity="0.48"/><rect x="446" y="732" width="6" height="8" fill="#ffd9ef" opacity="0.41"/><rect x="488" y="330" width="57" height="481" fill="#0a0f22" opacity="0.85"/><rect x="494" y="388" width="6" height="8" fill="#ffd9ef" opacity="0.22"/><rect x="494" y="432" width="6" height="8" fill="#ffd9ef" opacity="0.43"/><rect x="494" y="454" width="6" height="8" fill="#ffd9ef" opacity="0.22"/><rect x="494" y="498" width="6" height="8" fill="#ffd9ef" opacity="0.60"/><rect x="494" y="520" width="6" height="8" fill="#ffd9ef" opacity="0.22"/><rect x="494" y="608" width="6" height="8" fill="#ffd9ef" opacity="0.50"/><rect x="494" y="630" width="6" height="8" fill="#ffd9ef" opacity="0.65"/><rect x="494" y="718" width="6" height="8" fill="#ffd9ef" opacity="0.32"/><rect x="590" y="352" width="40" height="459" fill="#0a0f22" opacity="0.85"/><rect x="596" y="388" width="6" height="8" fill="#ffd9ef" opacity="0.38"/><rect x="596" y="410" width="6" height="8" fill="#ffd9ef" opacity="0.63"/><rect x="596" y="432" width="6" height="8" fill="#ffd9ef" opacity="0.22"/><rect x="596" y="454" width="6" height="8" fill="#ffd9ef" opacity="0.59"/><rect x="596" y="476" width="6" height="8" fill="#ffd9ef" opacity="0.58"/><rect x="596" y="498" width="6" height="8" fill="#ffd9ef" opacity="0.68"/><rect x="596" y="520" width="6" height="8" fill="#ffd9ef" opacity="0.46"/><rect x="596" y="542" width="6" height="8" fill="#ffd9ef" opacity="0.61"/><rect x="596" y="564" width="6" height="8" fill="#ffd9ef" opacity="0.30"/><rect x="596" y="608" width="6" height="8" fill="#ffd9ef" opacity="0.44"/><rect x="596" y="630" width="6" height="8" fill="#ffd9ef" opacity="0.25"/><rect x="596" y="652" width="6" height="8" fill="#ffd9ef" opacity="0.48"/><rect x="661" y="345" width="71" height="466" fill="#0a0f22" opacity="0.85"/><rect x="667" y="381" width="6" height="8" fill="#ffd9ef" opacity="0.31"/><rect x="667" y="447" width="6" height="8" fill="#ffd9ef" opacity="0.69"/><rect x="667" y="535" width="6" height="8" fill="#ffd9ef" opacity="0.32"/><rect x="667" y="557" width="6" height="8" fill="#ffd9ef" opacity="0.48"/><rect x="667" y="667" width="6" height="8" fill="#ffd9ef" opacity="0.58"/><rect x="667" y="689" width="6" height="8" fill="#ffd9ef" opacity="0.39"/><rect x="711" y="247" width="44" height="564" fill="#0a0f22" opacity="0.85"/><rect x="717" y="261" width="6" height="8" fill="#ffd9ef" opacity="0.47"/><rect x="717" y="283" width="6" height="8" fill="#ffd9ef" opacity="0.67"/><rect x="717" y="305" width="6" height="8" fill="#ffd9ef" opacity="0.28"/><rect x="717" y="349" width="6" height="8" fill="#ffd9ef" opacity="0.28"/><rect x="717" y="371" width="6" height="8" fill="#ffd9ef" opacity="0.24"/><rect x="717" y="393" width="6" height="8" fill="#ffd9ef" opacity="0.37"/><rect x="717" y="415" width="6" height="8" fill="#ffd9ef" opacity="0.55"/><rect x="717" y="481" width="6" height="8" fill="#ffd9ef" opacity="0.26"/><rect x="717" y="591" width="6" height="8" fill="#ffd9ef" opacity="0.36"/><rect x="717" y="613" width="6" height="8" fill="#ffd9ef" opacity="0.30"/><rect x="717" y="635" width="6" height="8" fill="#ffd9ef" opacity="0.53"/><rect x="717" y="657" width="6" height="8" fill="#ffd9ef" opacity="0.29"/><rect x="717" y="679" width="6" height="8" fill="#ffd9ef" opacity="0.53"/><rect x="717" y="701" width="6" height="8" fill="#ffd9ef" opacity="0.69"/><rect x="717" y="723" width="6" height="8" fill="#ffd9ef" opacity="0.44"/><rect x="789" y="366" width="31" height="445" fill="#0a0f22" opacity="0.85"/><rect x="795" y="424" width="6" height="8" fill="#ffd9ef" opacity="0.22"/><rect x="795" y="490" width="6" height="8" fill="#ffd9ef" opacity="0.63"/><rect x="795" y="534" width="6" height="8" fill="#ffd9ef" opacity="0.30"/><rect x="795" y="556" width="6" height="8" fill="#ffd9ef" opacity="0.25"/><rect x="795" y="578" width="6" height="8" fill="#ffd9ef" opacity="0.43"/><rect x="795" y="732" width="6" height="8" fill="#ffd9ef" opacity="0.49"/><rect x="839" y="243" width="48" height="568" fill="#0a0f22" opacity="0.85"/><rect x="845" y="257" width="6" height="8" fill="#ffd9ef" opacity="0.25"/><rect x="845" y="279" width="6" height="8" fill="#ffd9ef" opacity="0.30"/><rect x="845" y="323" width="6" height="8" fill="#ffd9ef" opacity="0.68"/><rect x="845" y="433" width="6" height="8" fill="#ffd9ef" opacity="0.69"/><rect x="845" y="477" width="6" height="8" fill="#ffd9ef" opacity="0.23"/><rect x="845" y="499" width="6" height="8" fill="#ffd9ef" opacity="0.21"/><rect x="845" y="521" width="6" height="8" fill="#ffd9ef" opacity="0.57"/><rect x="845" y="543" width="6" height="8" fill="#ffd9ef" opacity="0.30"/><rect x="845" y="565" width="6" height="8" fill="#ffd9ef" opacity="0.57"/><rect x="845" y="587" width="6" height="8" fill="#ffd9ef" opacity="0.35"/><rect x="845" y="631" width="6" height="8" fill="#ffd9ef" opacity="0.33"/><rect x="845" y="653" width="6" height="8" fill="#ffd9ef" opacity="0.70"/><rect x="845" y="675" width="6" height="8" fill="#ffd9ef" opacity="0.50"/><rect x="845" y="719" width="6" height="8" fill="#ffd9ef" opacity="0.31"/><rect x="845" y="741" width="6" height="8" fill="#ffd9ef" opacity="0.26"/><rect x="912" y="357" width="61" height="454" fill="#0a0f22" opacity="0.85"/><rect x="918" y="371" width="6" height="8" fill="#ffd9ef" opacity="0.30"/><rect x="918" y="393" width="6" height="8" fill="#ffd9ef" opacity="0.23"/><rect x="918" y="547" width="6" height="8" fill="#ffd9ef" opacity="0.37"/><rect x="918" y="569" width="6" height="8" fill="#ffd9ef" opacity="0.48"/><rect x="918" y="613" width="6" height="8" fill="#ffd9ef" opacity="0.58"/><rect x="918" y="679" width="6" height="8" fill="#ffd9ef" opacity="0.55"/><rect x="918" y="701" width="6" height="8" fill="#ffd9ef" opacity="0.50"/><rect x="976" y="266" width="73" height="545" fill="#0a0f22" opacity="0.85"/><rect x="982" y="280" width="6" height="8" fill="#ffd9ef" opacity="0.62"/><rect x="982" y="324" width="6" height="8" fill="#ffd9ef" opacity="0.58"/><rect x="982" y="368" width="6" height="8" fill="#ffd9ef" opacity="0.21"/><rect x="982" y="478" width="6" height="8" fill="#ffd9ef" opacity="0.58"/><rect x="982" y="500" width="6" height="8" fill="#ffd9ef" opacity="0.69"/><rect x="982" y="522" width="6" height="8" fill="#ffd9ef" opacity="0.44"/><rect x="982" y="544" width="6" height="8" fill="#ffd9ef" opacity="0.40"/><rect x="982" y="588" width="6" height="8" fill="#ffd9ef" opacity="0.55"/><rect x="982" y="610" width="6" height="8" fill="#ffd9ef" opacity="0.22"/><rect x="982" y="632" width="6" height="8" fill="#ffd9ef" opacity="0.48"/><rect x="982" y="654" width="6" height="8" fill="#ffd9ef" opacity="0.42"/><rect x="1052" y="416" width="46" height="395" fill="#0a0f22" opacity="0.85"/><rect x="1058" y="430" width="6" height="8" fill="#ffd9ef" opacity="0.65"/><rect x="1058" y="518" width="6" height="8" fill="#ffd9ef" opacity="0.27"/><rect x="1058" y="628" width="6" height="8" fill="#ffd9ef" opacity="0.36"/><rect x="1058" y="650" width="6" height="8" fill="#ffd9ef" opacity="0.37"/><rect x="1058" y="672" width="6" height="8" fill="#ffd9ef" opacity="0.57"/><rect x="1058" y="694" width="6" height="8" fill="#ffd9ef" opacity="0.53"/><rect x="1058" y="738" width="6" height="8" fill="#ffd9ef" opacity="0.21"/><circle cx="1120.4" cy="624.8" r="1.46" fill="#c08bff" opacity="0.46"/><circle cx="635.9" cy="707.3" r="1.30" fill="#c08bff" opacity="0.32"/><circle cx="256.8" cy="681.8" r="1.57" fill="#c08bff" opacity="0.25"/><circle cx="700.4" cy="726.9" r="1.31" fill="#c08bff" opacity="0.32"/><circle cx="353.2" cy="338.6" r="0.44" fill="#c08bff" opacity="0.76"/><circle cx="1111.2" cy="609.3" r="0.46" fill="#c08bff" opacity="0.70"/><circle cx="810.0" cy="244.2" r="1.42" fill="#c08bff" opacity="0.56"/><circle cx="1017.8" cy="446.4" r="0.68" fill="#c08bff" opacity="0.72"/><circle cx="177.6" cy="410.9" r="0.78" fill="#c08bff" opacity="0.35"/><circle cx="92.6" cy="119.3" r="0.87" fill="#c08bff" opacity="0.83"/><circle cx="999.2" cy="308.1" r="0.75" fill="#c08bff" opacity="0.30"/><circle cx="655.9" cy="39.5" r="1.11" fill="#c08bff" opacity="0.51"/><circle cx="827.8" cy="622.1" r="0.95" fill="#c08bff" opacity="0.82"/><circle cx="1129.6" cy="359.4" r="1.22" fill="#c08bff" opacity="0.75"/><circle cx="308.1" cy="379.5" r="0.97" fill="#c08bff" opacity="0.52"/><circle cx="509.9" cy="102.6" r="1.05" fill="#c08bff" opacity="0.36"/><circle cx="896.5" cy="11.5" r="0.83" fill="#c08bff" opacity="0.49"/><circle cx="470.4" cy="243.5" r="0.75" fill="#c08bff" opacity="0.41"/><circle cx="816.8" cy="345.8" r="1.14" fill="#c08bff" opacity="0.49"/><circle cx="996.2" cy="265.1" r="0.97" fill="#c08bff" opacity="0.32"/><circle cx="585.5" cy="689.4" r="0.69" fill="#c08bff" opacity="0.53"/><circle cx="802.6" cy="27.7" r="1.42" fill="#c08bff" opacity="0.45"/><circle cx="395.3" cy="286.5" r="0.49" fill="#c08bff" opacity="0.69"/><circle cx="2.4" cy="534.5" r="1.45" fill="#c08bff" opacity="0.60"/><circle cx="81.6" cy="88.6" r="0.73" fill="#c08bff" opacity="0.27"/><circle cx="30.6" cy="229.7" r="1.14" fill="#c08bff" opacity="0.54"/><circle cx="980.0" cy="764.8" r="0.65" fill="#c08bff" opacity="0.28"/><circle cx="1125.8" cy="562.7" r="1.35" fill="#c08bff" opacity="0.39"/><circle cx="372.9" cy="411.3" r="0.59" fill="#c08bff" opacity="0.65"/><circle cx="514.8" cy="662.8" r="1.08" fill="#c08bff" opacity="0.38"/><circle cx="429.6" cy="314.2" r="0.93" fill="#c08bff" opacity="0.58"/><circle cx="472.0" cy="687.8" r="1.48" fill="#c08bff" opacity="0.63"/><circle cx="893.7" cy="780.6" r="0.87" fill="#c08bff" opacity="0.57"/><circle cx="965.8" cy="573.1" r="1.37" fill="#c08bff" opacity="0.56"/><circle cx="530.6" cy="152.9" r="0.43" fill="#c08bff" opacity="0.54"/><circle cx="557.6" cy="134.7" r="1.14" fill="#c08bff" opacity="0.79"/><circle cx="761.5" cy="154.4" r="1.18" fill="#c08bff" opacity="0.57"/><circle cx="757.5" cy="765.8" r="0.48" fill="#c08bff" opacity="0.68"/><circle cx="613.5" cy="165.8" r="1.15" fill="#c08bff" opacity="0.73"/><circle cx="38.3" cy="641.3" r="1.57" fill="#c08bff" opacity="0.54"/>
  <rect x="28" y="28" width="1144" height="744" fill="none" stroke="#ffffff" stroke-opacity="0.10" rx="10"/>
  <g stroke="#dfe8ff" stroke-opacity="0.55" stroke-width="2">
    <path d="M40 28 L28 28 L28 40"/><path d="M1160 28 L1172 28 L1172 40"/>
    <path d="M40 772 L28 772 L28 760"/><path d="M1160 772 L1172 772 L1172 760"/>
  </g>
  <text x="52" y="726" font-family="ui-monospace,Menlo,monospace" font-size="26" fill="#dfe8ff" fill-opacity="0.82" letter-spacing="1">CITY WALK // 城市漫游 #2</text>
  <text x="52" y="756" font-family="ui-monospace,Menlo,monospace" font-size="16" fill="#9fd4ff" fill-opacity="0.6" letter-spacing="2">night drift</text>
  <text x="1148" y="726" text-anchor="end" font-family="ui-monospace,Menlo,monospace" font-size="15" fill="#ffffff" fill-opacity="0.35">PLACEHOLDER · NO EXIF</text>
<rect width="1200" height="800" filter="url(#grain)" opacity="0.5"/>
</svg>