<svg xmlns="http://www.w3.org/2000/svg" viewBox="0 0 1200 800" width="1200" height="800" role="img">
<defs>
    <linearGradient id="bg" x1="0" y1="0" x2="1" y2="1">
      <stop offset="0" stop-color="#0b1026"/>
      <stop offset="0.55" stop-color="#170f2e"/>
      <stop offset="1" stop-color="#0d1b33"/>
    </linearGradient>
    <filter id="soft" x="-50%" y="-50%" width="200%" height="200%"><feGaussianBlur stdDeviation="60"/></filter>
    <filter id="grain"><feTurbulence type="fractalNoise" baseFrequency="0.9" numOctaves="2" stitchTiles="stitch"/><feColorMatrix type="saturate" values="0"/><feComponentTransfer><feFuncA type="linear" slope="0.05"/></feComponentTransfer><feComposite operator="over" in2="SourceGraphic"/></filter>
  </defs>
<rect width="1200" height="800" fill="url(#bg)"/>
<circle cx="932" cy="472" r="161" fill="#2c4d86" opacity="0.34" filter="url(#soft)"/><circle cx="13" cy="642" r="306" fill="#2c4d86" opacity="0.19" filter="url(#soft)"/><circle cx="438" cy="588" r="173" fill="#5b2c86" opacity="0.31" filter="url(#soft)"/><circle cx="647" cy="643" r="139" fill="#2c4d86" opacity="0.12" filter="url(#soft)"/><rect x="60" y="279" width="72" height="535" fill="#0a0f22" opacity="0.85"/><rect x="66" y="293" width="6" height="8" fill="#ffd9ef" opacity="0.59"/><rect x="66" y="337" width="6" height="8" fill="#ffd9ef" opacity="0.29"/><rect x="66" y="359" width="6" height="8" fill="#ffd9ef" opacity="0.31"/><rect x="66" y="403" width="6" height="8" fill="#ffd9ef" opacity="0.67"/><rect x="66" y="425" width="6" height="8" fill="#ffd9ef" opacity="0.23"/><rect x="66" y="469" width="6" height="8" fill="#ffd9ef" opacity="0.38"/><rect x="66" y="513" width="6" height="8" fill="#ffd9ef" opacity="0.61"/><rect x="66" y="535" width="6" height="8" fill="#ffd9ef" opacity="0.48"/><rect x="66" y="557" width="6" height="8" fill="#ffd9ef" opacity="0.65"/><rect x="66" y="579" width="6" height="8" fill="#ffd9ef" opacity="0.55"/><rect x="66" y="645" width="6" height="8" fill="#ffd9ef" opacity="0.33"/><rect x="66" y="667" width="6" height="8" fill="#ffd9ef" opacity="0.32"/><rect x="66" y="711" width="6" height="8" fill="#ffd9ef" opacity="0.33"/><rect x="66" y="733" width="6" height="8" fill="#ffd9ef" opacity="0.69"/><rect x="106" y="401" width="61" height="413" fill="#0a0f22" opacity="0.85"/><rect x="112" y="415" width="6" height="8" fill="#ffd9ef" opacity="0.47"/><rect x="112" y="459" width="6" height="8" fill="#ffd9ef" opacity="0.62"/><rect x="112" y="547" width="6" height="8" fill="#ffd9ef" opacity="0.32"/><rect x="112" y="591" width="6" height="8" fill="#ffd9ef" opacity="0.25"/><rect x="112" y="701" width="6" height="8" fill="#ffd9ef" opacity="0.62"/><rect x="187" y="347" width="53" height="467" fill="#0a0f22" opacity="0.85"/><rect x="193" y="361" width="6" height="8" fill="#ffd9ef" opacity="0.48"/><rect x="193" y="405" width="6" height="8" fill="#ffd9ef" opacity="0.60"/><rect x="193" y="427" width="6" height="8" fill="#ffd9ef" opacity="0.47"/><rect x="193" y="449" width="6" height="8" fill="#ffd9ef" opacity="0.29"/><rect x="193" y="515" width="6" height="8" fill="#ffd9ef" opacity="0.69"/><rect x="193" y="537" width="6" height="8" fill="#ffd9ef" opacity="0.37"/><rect x="193" y="603" width="6" height="8" fill="#ffd9ef" opacity="0.68"/><rect x="193" y="691" width="6" height="8" fill="#ffd9ef" opacity="0.29"/><rect x="253" y="259" width="43" height="555" fill="#0a0f22" opacity="0.85"/><rect x="259" y="273" width="6" height="8" fill="#ffd9ef" opacity="0.61"/><rect x="259" y="295" width="6" height="8" fill="#ffd9ef" opacity="0.66"/><rect x="259" y="317" width="6" height="8" fill="#ffd9ef" opacity="0.25"/><rect x="259" y="339" width="6" height="8" fill="#ffd9ef" opacity="0.55"/><rect x="259" y="405" width="6" height="8" fill="#ffd9ef" opacity="0.39"/><rect x="259" y="493" width="6" height="8" fill="#ffd9ef" opacity="0.24"/><rect x="259" y="515" width="6" height="8" fill="#ffd9ef" opacity="0.35"/><rect x="259" y="559" width="6" height="8" fill="#ffd9ef" opacity="0.24"/><rect x="259" y="603" width="6" height="8" fill="#ffd9ef" opacity="0.48"/><rect x="259" y="625" width="6" height="8" fill="#ffd9ef" opacity="0.27"/><rect x="259" y="647" width="6" height="8" fill="#ffd9ef" opacity="0.34"/><rect x="259" y="669" width="6" height="8" fill="#ffd9ef" opacity="0.69"/><rect x="259" y="691" width="6" height="8" fill="#ffd9ef" opacity="0.30"/><rect x="301" y="367" width="41" height="447" fill="#0a0f22" opacity="0.85"/><rect x="307" y="403" width="6" height="8" fill="#ffd9ef" opacity="0.60"/><rect x="307" y="447" width="6" height="8" fill="#ffd9ef" opacity="0.53"/><rect x="307" y="469" width="6" height="8" fill="#ffd9ef" opacity="0.61"/><rect x="307" y="491" width="6" height="8" fill="#ffd9ef" opacity="0.56"/><rect x="307" y="513" width="6" height="8" fill="#ffd9ef" opacity="0.39"/><rect x="307" y="645" width="6" height="8" fill="#ffd9ef" opacity="0.23"/><rect x="307" y="667" width="6" height="8" fill="#ffd9ef" opacity="0.29"/><rect x="307" y="689" width="6" height="8" fill="#ffd9ef" opacity="0.61"/><rect x="307" y="711" width="6" height="8" fill="#ffd9ef" opacity="0.38"/><rect x="359" y="324" width="36" height="490" fill="#0a0f22" opacity="0.85"/><rect x="365" y="360" width="6" height="8" fill="#ffd9ef" opacity="0.22"/><rect x="365" y="404" width="6" height="8" fill="#ffd9ef" opacity="0.33"/><rect x="365" y="448" width="6" height="8" fill="#ffd9ef" opacity="0.66"/><rect x="365" y="492" width="6" height="8" fill="#ffd9ef" opacity="0.35"/><rect x="365" y="558" width="6" height="8" fill="#ffd9ef" opacity="0.53"/><rect x="365" y="646" width="6" height="8" fill="#ffd9ef" opacity="0.30"/><rect x="365" y="668" width="6" height="8" fill="#ffd9ef" opacity="0.25"/><rect x="365" y="712" width="6" height="8" fill="#ffd9ef" opacity="0.50"/><rect x="365" y="734" width="6" height="8" fill="#ffd9ef" opacity="0.39"/><rect x="451" y="419" width="65" height="395" fill="#0a0f22" opacity="0.85"/><rect x="457" y="543" width="6" height="8" fill="#ffd9ef" opacity="0.56"/><rect x="457" y="565" width="6" height="8" fill="#ffd9ef" opacity="0.35"/><rect x="457" y="587" width="6" height="8" fill="#ffd9ef" opacity="0.25"/><rect x="457" y="609" width="6" height="8" fill="#ffd9ef" opacity="0.26"/><rect x="457" y="653" width="6" height="8" fill="#ffd9ef" opacity="0.42"/><rect x="457" y="675" width="6" height="8" fill="#ffd9ef" opacity="0.24"/><rect x="457" y="697" width="6" height="8" fill="#ffd9ef" opacity="0.65"/><rect x="457" y="719" width="6" height="8" fill="#ffd9ef" opacity="0.68"/><rect x="457" y="741" width="6" height="8" fill="#ffd9ef" opacity="0.30"/><rect x="497" y="413" width="46" height="401" fill="#0a0f22" opacity="0.85"/><rect x="503" y="427" width="6" height="8" fill="#ffd9ef" opacity="0.38"/><rect x="503" y="471" width="6" height="8" fill="#ffd9ef" opacity="0.26"/><rect x="503" y="515" width="6" height="8" fill="#ffd9ef" opacity="0.24"/><rect x="503" y="537" width="6" height="8" fill="#ffd9ef" opacity="0.37"/><rect x="503" y="625" width="6" height="8" fill="#ffd9ef" opacity="0.45"/><rect x="503" y="669" width="6" height="8" fill="#ffd9ef" opacity="0.51"/><rect x="503" y="713" width="6" height="8" fill="#ffd9ef" opacity="0.66"/><rect x="503" y="735" width="6" height="8" fill="#ffd9ef" opacity="0.45"/><rect x="587" y="419" width="67" height="395" fill="#0a0f22" opacity="0.85"/><rect x="593" y="477" width="6" height="8" fill="#ffd9ef" opacity="0.59"/><rect x="593" y="565" width="6" height="8" fill="#ffd9ef" opacity="0.66"/><rect x="593" y="587" width="6" height="8" fill="#ffd9ef" opacity="0.42"/><rect x="593" y="675" width="6" height="8" fill="#ffd9ef" opacity="0.38"/><rect x="593" y="697" width="6" height="8" fill="#ffd9ef" opacity="0.69"/><rect x="593" y="741" width="6" height="8" fill="#ffd9ef" opacity="0.64"/><rect x="647" y="352" width="48" height="462" fill="#0a0f22" opacity="0.85"/><rect x="653" y="366" width="6" height="8" fill="#ffd9ef" opacity="0.28"/><rect x="653" y="388" width="6" height="8" fill="#ffd9ef" opacity="0.60"/><rect x="653" y="410" width="6" height="8" fill="#ffd9ef" opacity="0.47"/><rect x="653" y="432" width="6" height="8" fill="#ffd9ef" opacity="0.62"/><rect x="653" y="454" width="6" height="8" fill="#ffd9ef" opacity="0.20"/><rect x="653" y="520" width="6" height="8" fill="#ffd9ef" opacity="0.43"/><rect x="653" y="564" width="6" height="8" fill="#ffd9ef" opacity="0.45"/><rect x="653" y="652" width="6" height="8" fill="#ffd9ef" opacity="0.31"/><rect x="653" y="718" width="6" height="8" fill="#ffd9ef" opacity="0.23"/><rect x="653" y="740" width="6" height="8" fill="#ffd9ef" opacity="0.62"/><rect x="728" y="426" width="65" height="388" fill="#0a0f22" opacity="0.85"/><rect x="734" y="440" width="6" height="8" fill="#ffd9ef" opacity="0.51"/><rect x="734" y="484" width="6" height="8" fill="#ffd9ef" opacity="0.48"/><rect x="734" y="506" width="6" height="8" fill="#ffd9ef" opacity="0.32"/><rect x="734" y="550" width="6" height="8" fill="#ffd9ef" opacity="0.70"/><rect x="734" y="572" width="6" height="8" fill="#ffd9ef" opacity="0.54"/><rect x="734" y="594" width="6" height="8" fill="#ffd9ef" opacity="0.26"/><rect x="734" y="616" width="6" height="8" fill="#ffd9ef" opacity="0.63"/><rect x="734" y="660" width="6" height="8" fill="#ffd9ef" opacity="0.56"/><rect x="734" y="704" width="6" height="8" fill="#ffd9ef" opacity="0.35"/><rect x="734" y="726" width="6" height="8" fill="#ffd9ef" opacity="0.53"/><rect x="734" y="748" width="6" height="8" fill="#ffd9ef" opacity="0.63"/><rect x="793" y="395" width="45" height="419" fill="#0a0f22" opacity="0.85"/><rect x="799" y="431" width="6" height="8" fill="#ffd9ef" opacity="0.24"/><rect x="799" y="453" width="6" height="8" fill="#ffd9ef" opacity="0.62"/><rect x="799" y="497" width="6" height="8" fill="#ffd9ef" opacity="0.39"/><rect x="799" y="541" width="6" height="8" fill="#ffd9ef" opacity="0.53"/><rect x="799" y="629" width="6" height="8" fill="#ffd9ef" opacity="0.56"/><rect x="799" y="651" width="6" height="8" fill="#ffd9ef" opacity="0.53"/><rect x="852" y="325" width="30" height="489" fill="#0a0f22" opacity="0.85"/><rect x="858" y="383" width="6" height="8" fill="#ffd9ef" opacity="0.68"/><rect x="858" y="427" width="6" height="8" fill="#ffd9ef" opacity="0.69"/><rect x="858" y="471" width="6" height="8" fill="#ffd9ef" opacity="0.40"/><rect x="858" y="515" width="6" height="8" fill="#ffd9ef" opacity="0.40"/><rect x="858" y="537" width="6" height="8" fill="#ffd9ef" opacity="0.49"/><rect x="858" y="559" width="6" height="8" fill="#ffd9ef" opacity="0.38"/><rect x="858" y="625" width="6" height="8" fill="#ffd9ef" opacity="0.30"/><rect x="858" y="691" width="6" height="8" fill="#ffd9ef" opacity="0.52"/><rect x="898" y="351" width="71" height="463" fill="#0a0f22" opacity="0.85"/><rect x="904" y="365" width="6" height="8" fill="#ffd9ef" opacity="0.24"/><rect x="904" y="387" width="6" height="8" fill="#ffd9ef" opacity="0.69"/><rect x="904" y="431" width="6" height="8" fill="#ffd9ef" opacity="0.30"/><rect x="904" y="453" width="6" height="8" fill="#ffd9ef" opacity="0.62"/><rect x="904" y="475" width="6" height="8" fill="#ffd9ef" opacity="0.28"/><rect x="904" y="519" width="6" height="8" fill="#ffd9ef" opacity="0.52"/><rect x="904" y="541" width="6" height="8" fill="#ffd9ef" opacity="0.44"/><rect x="904" y="695" width="6" height="8" fill="#ffd9ef" opacity="0.24"/><rect x="904" y="717" width="6" height="8" fill="#ffd9ef" opacity="0.48"/><rect x="948" y="407" width="59" height="407" fill="#0a0f22" opacity="0.85"/><rect x="954" y="443" width="6" height="8" fill="#ffd9ef" opacity="0.37"/><rect x="954" y="487" width="6" height="8" fill="#ffd9ef" opacity="0.37"/><rect x="954" y="597" width="6" height="8" fill="#ffd9ef" opacity="0.57"/><rect x="954" y="619" width="6" height="8" fill="#ffd9ef" opacity="0.41"/><rect x="954" y="641" width="6" height="8" fill="#ffd9ef" opacity="0.54"/><rect x="954" y="707" width="6" height="8" fill="#ffd9ef" opacity="0.55"/><rect x="1010" y="310" width="53" height="504" fill="#0a0f22" opacity="0.85"/><rect x="1016" y="346" width="6" height="8" fill="#ffd9ef" opacity="0.36"/><rect x="1016" y="390" width="6" height="8" fill="#ffd9ef" opacity="0.53"/><rect x="1016" y="412" width="6" height="8" fill="#ffd9ef" opacity="0.21"/><rect x="1016" y="434" width="6" height="8" fill="#ffd9ef" opacity="0.28"/><rect x="1016" y="456" width="6" height="8" fill="#ffd9ef" opacity="0.32"/><rect x="1016" y="478" width="6" height="8" fill="#ffd9ef" opacity="0.47"/><rect x="1016" y="544" width="6" height="8" fill="#ffd9ef" opacity="0.22"/><rect x="1016" y="610" width="6" height="8" fill="#ffd9ef" opacity="0.45"/><rect x="1016" y="632" width="6" height="8" fill="#ffd9ef" opacity="0.38"/><rect x="1016" y="654" width="6" height="8" fill="#ffd9ef" opacity="0.66"/><rect x="1016" y="720" width="6" height="8" fill="#ffd9ef" opacity="0.61"/><rect x="1077" y="437" width="71" height="377" fill="#0a0f22" opacity="0.85"/><rect x="1083" y="451" width="6" height="8" fill="#ffd9ef" opacity="0.29"/><rect x="1083" y="539" width="6" height="8" fill="#ffd9ef" opacity="0.28"/><rect x="1083" y="605" width="6" height="8" fill="#ffd9ef" opacity="0.25"/><rect x="1083" y="693" width="6" height="8" fill="#ffd9ef" opacity="0.45"/><rect x="1083" y="737" width="6" height="8" fill="#ffd9ef" opacity="0.67"/><circle cx="952.5" cy="615.1" r="0.53" fill="#c08bff" opacity="0.66"/><circle cx="1102.3" cy="207.5" r="0.81" fill="#c08bff" opacity="0.53"/><circle cx="768.6" cy="230.9" r="1.47" fill="#c08bff" opacity="0.30"/><circle cx="1108.7" cy="364.0" r="0.89" fill="#c08bff" opacity="0.63"/><circle cx="487.4" cy="227.2" r="1.23" fill="#c08bff" opacity="0.64"/><circle cx="593.4" cy="335.6" r="0.40" fill="#c08bff" opacity="0.50"/><circle cx="802.6" cy="472.6" r="0.80" fill="#c08bff" opacity="0.72"/><circle cx="971.6" cy="592.5" r="1.50" fill="#c08bff" opacity="0.28"/><circle cx="1032.0" cy="128.2" r="1.04" fill="#c08bff" opacity="0.73"/><circle cx="359.4" cy="417.1" r="0.50" fill="#c08bff" opacity="0.70"/><circle cx="471.8" cy="236.5" r="1.12" fill="#c08bff" opacity="0.83"/><circle cx="915.5" cy="58.3" r="1.43" fill="#c08bff" opacity="0.73"/><circle cx="800.1" cy="51.1" r="0.87" fill="#c08bff" opacity="0.69"/><circle cx="337.0" cy="749.5" r="0.56" fill="#c08bff" opacity="0.45"/><circle cx="480.8" cy="119.0" r="1.30" fill="#c08bff" opacity="0.56"/><circle cx="1007.1" cy="570.4" r="0.86" fill="#c08bff" opacity="0.46"/><circle cx="345.1" cy="439.2" r="0.86" fill="#c08bff" opacity="0.67"/><circle cx="883.8" cy="692.8" r="1.18" fill="#c08bff" opacity="0.35"/><circle cx="338.8" cy="387.6" r="1.16" fill="#c08bff" opacity="0.68"/><circle cx="532.1" cy="345.6" r="0.50" fill="#c08bff" opacity="0.44"/><circle cx="218.1" cy="336.4" r="1.05" fill="#c08bff" opacity="0.69"/><circle cx="1082.9" cy="65.5" r="1.20" fill="#c08bff" opacity="0.83"/><circle cx="109.0" cy="276.5" r="0.78" fill="#c08bff" opacity="0.59"/><circle cx="200.3" cy="756.7" r="1.44" fill="#c08bff" opacity="0.65"/><circle cx="888.1" cy="225.2" r="0.67" fill="#c08bff" opacity="0.38"/><circle cx="1135.9" cy="708.4" r="0.63" fill="#c08bff" opacity="0.35"/><circle cx="381.7" cy="57.4" r="0.43" fill="#c08bff" opacity="0.80"/><circle cx="613.9" cy="696.0" r="1.00" fill="#c08bff" opacity="0.46"/><circle cx="169.7" cy="70.2" r="0.59" fill="#c08bff" opacity="0.70"/><circle cx="687.0" cy="341.7" r="0.60" fill="#c08bff" opacity="0.69"/><circle cx="52.1" cy="373.4" r="1.44" fill="#c08bff" opacity="0.29"/><circle cx="741.4" cy="456.6" r="1.55" fill="#c08bff" opacity="0.54"/><circle cx="427.9" cy="429.8" r="1.05" fill="#c08bff" opacity="0.34"/><circle cx="962.2" cy="722.5" r="0.75" fill="#c08bff" opacity="0.45"/><circle cx="1185.3" cy="326.5" r="0.86" fill="#c08bff" opacity="0.54"/><circle cx="116.3" cy="204.7" r="0.68" fill="#c08bff" opacity="0.81"/><circle cx="286.5" cy="431.7" r="0.95" fill="#c08bff" opacity="0.71"/><circle cx="63.3" cy="635.8" r="1.40" fill="#c08bff" opacity="0.63"/><circle cx="88.9" cy="472.9" r="0.96" fill="#c08bff" opacity="0.56"/><circle cx="1117.5" cy="473.9" r="0.62" fill="#c08bff" opacity="0.56"/>
  <rect x="28" y="28" width="1144" height="744" fill="none" stroke="#ffffff" stroke-opacity="0.10" rx="10"/>
  <g stroke="#dfe8ff" stroke-opacity="0.55" stroke-width="2">
    <path d="M40 28 L28 28 L28 40"/><path d="M1160 28 L1172 28 L1172 40"/>
    <path d="M40 772 L28 772 L28 760"/><path d="M1160 772 L1172 772 L1172 760"/>
  </g>
  <text x="52" y="726" font-family="ui-monospace,Menlo,monospace" font-size="26" fill="#dfe8ff" fill-opacity="0.82" letter-spacing="1">CITY WALK // 城市漫游 #4</text>
  <text x="52" y="756" font-family="ui-monospace,Menlo,monospace" font-size="16" fill="#9fd4ff" fill-opacity="0.6" letter-spacing="2">night drift</text>
  <text x="1148" y="726" text-anchor="end" font-family="ui-monospace,Menlo,monospace" font-size="15" fill="#ffffff" fill-opacity="0.35">PLACEHOLDER · NO EXIF</text>
<rect width="1200" height="800" filter="url(#grain)" opacity="0.5"/>
</svg>