<svg xmlns="http://www.w3.org/2000/svg" viewBox="0 0 1200 800" width="1200" height="800" role="img">
<defs>
    <linearGradient id="bg" x1="0" y1="0" x2="1" y2="1">
      <stop offset="0" stop-color="#0b1026"/>
      <stop offset="0.55" stop-color="#170f2e"/>
      <stop offset="1" stop-color="#0d1b33"/>
    </linearGradient>
    <filter id="soft" x="-50%" y="-50%" width="200%" height="200%"><feGaussianBlur stdDeviation="60"/></filter>
    <filter id="grain"><feTurbulence type="fractalNoise" baseFrequency="0.9" numOctaves="2" stitchTiles="stitch"/><feColorMatrix type="saturate" values="0"/><feComponentTransfer><feFuncA type="linear" slope="0.05"/></feComponentTransfer><feComposite operator="over" in2="SourceGraphic"/></filter>
  </defs>
<rect width="1200" height="800" fill="url(#bg)"/>
<circle cx="290" cy="400" r="307" fill="#7db5ff" opacity="0.10" filter="url(#soft)"/><circle cx="495" cy="778" r="175" fill="#5b2c86" opacity="0.11" filter="url(#soft)"/><circle cx="22" cy="765" r="331" fill="#7db5ff" opacity="0.25" filter="url(#soft)"/><circle cx="704" cy="190" r="350" fill="#2c4d86" opacity="0.12" filter="url(#soft)"/><rect x="60" y="223" width="32" height="592" fill="#0a0f22" opacity="0.85"/><rect x="66" y="303" width="6" height="8" fill="#ffd9ef" opacity="0.47"/><rect x="66" y="347" width="6" height="8" fill="#ffd9ef" opacity="0.27"/><rect x="66" y="413" width="6" height="8" fill="#ffd9ef" opacity="0.36"/><rect x="66" y="457" width="6" height="8" fill="#ffd9ef" opacity="0.25"/><rect x="66" y="501" width="6" height="8" fill="#ffd9ef" opacity="0.42"/><rect x="66" y="545" width="6" height="8" fill="#ffd9ef" opacity="0.43"/><rect x="66" y="567" width="6" height="8" fill="#ffd9ef" opacity="0.50"/><rect x="66" y="633" width="6" height="8" fill="#ffd9ef" opacity="0.28"/><rect x="66" y="655" width="6" height="8" fill="#ffd9ef" opacity="0.60"/><rect x="66" y="677" width="6" height="8" fill="#ffd9ef" opacity="0.62"/><rect x="66" y="743" width="6" height="8" fill="#ffd9ef" opacity="0.49"/><rect x="135" y="218" width="71" height="597" fill="#0a0f22" opacity="0.85"/><rect x="141" y="276" width="6" height="8" fill="#ffd9ef" opacity="0.25"/><rect x="141" y="364" width="6" height="8" fill="#ffd9ef" opacity="0.48"/><rect x="141" y="408" width="6" height="8" fill="#ffd9ef" opacity="0.37"/><rect x="141" y="452" width="6" height="8" fill="#ffd9ef" opacity="0.47"/><rect x="141" y="496" width="6" height="8" fill="#ffd9ef" opacity="0.55"/><rect x="141" y="584" width="6" height="8" fill="#ffd9ef" opacity="0.41"/><rect x="141" y="606" width="6" height="8" fill="#ffd9ef" opacity="0.57"/><rect x="141" y="650" width="6" height="8" fill="#ffd9ef" opacity="0.35"/><rect x="141" y="694" width="6" height="8" fill="#ffd9ef" opacity="0.51"/><rect x="192" y="219" width="52" height="596" fill="#0a0f22" opacity="0.85"/><rect x="198" y="233" width="6" height="8" fill="#ffd9ef" opacity="0.60"/><rect x="198" y="277" width="6" height="8" fill="#ffd9ef" opacity="0.48"/><rect x="198" y="299" width="6" height="8" fill="#ffd9ef" opacity="0.25"/><rect x="198" y="343" width="6" height="8" fill="#ffd9ef" opacity="0.40"/><rect x="198" y="365" width="6" height="8" fill="#ffd9ef" opacity="0.31"/><rect x="198" y="387" width="6" height="8" fill="#ffd9ef" opacity="0.29"/><rect x="198" y="409" width="6" height="8" fill="#ffd9ef" opacity="0.27"/><rect x="198" y="475" width="6" height="8" fill="#ffd9ef" opacity="0.39"/><rect x="198" y="563" width="6" height="8" fill="#ffd9ef" opacity="0.48"/><rect x="198" y="629" width="6" height="8" fill="#ffd9ef" opacity="0.67"/><rect x="198" y="651" width="6" height="8" fill="#ffd9ef" opacity="0.23"/><rect x="198" y="739" width="6" height="8" fill="#ffd9ef" opacity="0.51"/><rect x="280" y="329" width="42" height="486" fill="#0a0f22" opacity="0.85"/><rect x="286" y="365" width="6" height="8" fill="#ffd9ef" opacity="0.33"/><rect x="286" y="387" width="6" height="8" fill="#ffd9ef" opacity="0.29"/><rect x="286" y="409" width="6" height="8" fill="#ffd9ef" opacity="0.55"/><rect x="286" y="453" width="6" height="8" fill="#ffd9ef" opacity="0.61"/><rect x="286" y="475" width="6" height="8" fill="#ffd9ef" opacity="0.36"/><rect x="286" y="497" width="6" height="8" fill="#ffd9ef" opacity="0.60"/><rect x="286" y="519" width="6" height="8" fill="#ffd9ef" opacity="0.35"/><rect x="286" y="541" width="6" height="8" fill="#ffd9ef" opacity="0.38"/><rect x="286" y="585" width="6" height="8" fill="#ffd9ef" opacity="0.38"/><rect x="286" y="673" width="6" height="8" fill="#ffd9ef" opacity="0.61"/><rect x="333" y="227" width="36" height="588" fill="#0a0f22" opacity="0.85"/><rect x="339" y="263" width="6" height="8" fill="#ffd9ef" opacity="0.54"/><rect x="339" y="307" width="6" height="8" fill="#ffd9ef" opacity="0.48"/><rect x="339" y="329" width="6" height="8" fill="#ffd9ef" opacity="0.25"/><rect x="339" y="351" width="6" height="8" fill="#ffd9ef" opacity="0.45"/><rect x="339" y="395" width="6" height="8" fill="#ffd9ef" opacity="0.69"/><rect x="339" y="505" width="6" height="8" fill="#ffd9ef" opacity="0.31"/><rect x="339" y="637" width="6" height="8" fill="#ffd9ef" opacity="0.53"/><rect x="339" y="659" width="6" height="8" fill="#ffd9ef" opacity="0.27"/><rect x="339" y="725" width="6" height="8" fill="#ffd9ef" opacity="0.53"/><rect x="339" y="747" width="6" height="8" fill="#ffd9ef" opacity="0.55"/><rect x="418" y="219" width="53" height="596" fill="#0a0f22" opacity="0.85"/><rect x="424" y="233" width="6" height="8" fill="#ffd9ef" opacity="0.65"/><rect x="424" y="343" width="6" height="8" fill="#ffd9ef" opacity="0.55"/><rect x="424" y="365" width="6" height="8" fill="#ffd9ef" opacity="0.56"/><rect x="424" y="387" width="6" height="8" fill="#ffd9ef" opacity="0.45"/><rect x="424" y="431" width="6" height="8" fill="#ffd9ef" opacity="0.27"/><rect x="424" y="475" width="6" height="8" fill="#ffd9ef" opacity="0.61"/><rect x="424" y="541" width="6" height="8" fill="#ffd9ef" opacity="0.56"/><rect x="424" y="607" width="6" height="8" fill="#ffd9ef" opacity="0.31"/><rect x="424" y="629" width="6" height="8" fill="#ffd9ef" opacity="0.58"/><rect x="424" y="717" width="6" height="8" fill="#ffd9ef" opacity="0.20"/><rect x="508" y="371" width="69" height="444" fill="#0a0f22" opacity="0.85"/><rect x="514" y="561" width="6" height="8" fill="#ffd9ef" opacity="0.28"/><rect x="514" y="583" width="6" height="8" fill="#ffd9ef" opacity="0.66"/><rect x="514" y="649" width="6" height="8" fill="#ffd9ef" opacity="0.31"/><rect x="514" y="715" width="6" height="8" fill="#ffd9ef" opacity="0.34"/><rect x="577" y="339" width="35" height="476" fill="#0a0f22" opacity="0.85"/><rect x="583" y="353" width="6" height="8" fill="#ffd9ef" opacity="0.23"/><rect x="583" y="375" width="6" height="8" fill="#ffd9ef" opacity="0.46"/><rect x="583" y="485" width="6" height="8" fill="#ffd9ef" opacity="0.44"/><rect x="583" y="551" width="6" height="8" fill="#ffd9ef" opacity="0.28"/><rect x="583" y="705" width="6" height="8" fill="#ffd9ef" opacity="0.60"/><rect x="583" y="749" width="6" height="8" fill="#ffd9ef" opacity="0.23"/><rect x="637" y="294" width="70" height="521" fill="#0a0f22" opacity="0.85"/><rect x="643" y="308" width="6" height="8" fill="#ffd9ef" opacity="0.44"/><rect x="643" y="396" width="6" height="8" fill="#ffd9ef" opacity="0.29"/><rect x="643" y="418" width="6" height="8" fill="#ffd9ef" opacity="0.60"/><rect x="643" y="440" width="6" height="8" fill="#ffd9ef" opacity="0.69"/><rect x="643" y="528" width="6" height="8" fill="#ffd9ef" opacity="0.65"/><rect x="643" y="550" width="6" height="8" fill="#ffd9ef" opacity="0.26"/><rect x="643" y="660" width="6" height="8" fill="#ffd9ef" opacity="0.56"/><rect x="643" y="726" width="6" height="8" fill="#ffd9ef" opacity="0.26"/><rect x="703" y="296" width="33" height="519" fill="#0a0f22" opacity="0.85"/><rect x="709" y="310" width="6" height="8" fill="#ffd9ef" opacity="0.45"/><rect x="709" y="398" width="6" height="8" fill="#ffd9ef" opacity="0.20"/><rect x="709" y="420" width="6" height="8" fill="#ffd9ef" opacity="0.28"/><rect x="709" y="442" width="6" height="8" fill="#ffd9ef" opacity="0.50"/><rect x="709" y="464" width="6" height="8" fill="#ffd9ef" opacity="0.52"/><rect x="709" y="486" width="6" height="8" fill="#ffd9ef" opacity="0.41"/><rect x="709" y="552" width="6" height="8" fill="#ffd9ef" opacity="0.30"/><rect x="709" y="574" width="6" height="8" fill="#ffd9ef" opacity="0.58"/><rect x="709" y="618" width="6" height="8" fill="#ffd9ef" opacity="0.53"/><rect x="709" y="640" width="6" height="8" fill="#ffd9ef" opacity="0.34"/><rect x="709" y="662" width="6" height="8" fill="#ffd9ef" opacity="0.26"/><rect x="709" y="750" width="6" height="8" fill="#ffd9ef" opacity="0.22"/><rect x="754" y="402" width="55" height="413" fill="#0a0f22" opacity="0.85"/><rect x="760" y="438" width="6" height="8" fill="#ffd9ef" opacity="0.65"/><rect x="760" y="482" width="6" height="8" fill="#ffd9ef" opacity="0.28"/><rect x="760" y="548" width="6" height="8" fill="#ffd9ef" opacity="0.61"/><rect x="760" y="614" width="6" height="8" fill="#ffd9ef" opacity="0.42"/><rect x="760" y="636" width="6" height="8" fill="#ffd9ef" opacity="0.66"/><rect x="760" y="680" width="6" height="8" fill="#ffd9ef" opacity="0.40"/><rect x="760" y="746" width="6" height="8" fill="#ffd9ef" opacity="0.21"/><rect x="808" y="350" width="62" height="465" fill="#0a0f22" opacity="0.85"/><rect x="814" y="386" width="6" height="8" fill="#ffd9ef" opacity="0.60"/><rect x="814" y="430" width="6" height="8" fill="#ffd9ef" opacity="0.63"/><rect x="814" y="496" width="6" height="8" fill="#ffd9ef" opacity="0.39"/><rect x="814" y="716" width="6" height="8" fill="#ffd9ef" opacity="0.42"/><rect x="897" y="354" width="67" height="461" fill="#0a0f22" opacity="0.85"/><rect x="903" y="390" width="6" height="8" fill="#ffd9ef" opacity="0.44"/><rect x="903" y="412" width="6" height="8" fill="#ffd9ef" opacity="0.59"/><rect x="903" y="478" width="6" height="8" fill="#ffd9ef" opacity="0.59"/><rect x="903" y="500" width="6" height="8" fill="#ffd9ef" opacity="0.55"/><rect x="903" y="544" width="6" height="8" fill="#ffd9ef" opacity="0.25"/><rect x="903" y="654" width="6" height="8" fill="#ffd9ef" opacity="0.29"/><rect x="903" y="698" width="6" height="8" fill="#ffd9ef" opacity="0.33"/><rect x="903" y="720" width="6" height="8" fill="#ffd9ef" opacity="0.67"/><rect x="958" y="433" width="75" height="382" fill="#0a0f22" opacity="0.85"/><rect x="964" y="447" width="6" height="8" fill="#ffd9ef" opacity="0.58"/><rect x="964" y="557" width="6" height="8" fill="#ffd9ef" opacity="0.30"/><rect x="964" y="579" width="6" height="8" fill="#ffd9ef" opacity="0.26"/><rect x="964" y="601" width="6" height="8" fill="#ffd9ef" opacity="0.20"/><rect x="964" y="623" width="6" height="8" fill="#ffd9ef" opacity="0.46"/><rect x="964" y="645" width="6" height="8" fill="#ffd9ef" opacity="0.44"/><rect x="1034" y="401" width="53" height="414" fill="#0a0f22" opacity="0.85"/><rect x="1040" y="459" width="6" height="8" fill="#ffd9ef" opacity="0.40"/><rect x="1040" y="503" width="6" height="8" fill="#ffd9ef" opacity="0.66"/><rect x="1040" y="547" width="6" height="8" fill="#ffd9ef" opacity="0.70"/><rect x="1040" y="591" width="6" height="8" fill="#ffd9ef" opacity="0.51"/><rect x="1040" y="635" width="6" height="8" fill="#ffd9ef" opacity="0.66"/><rect x="1116" y="448" width="48" height="367" fill="#0a0f22" opacity="0.85"/><rect x="1122" y="528" width="6" height="8" fill="#ffd9ef" opacity="0.29"/><rect x="1122" y="572" width="6" height="8" fill="#ffd9ef" opacity="0.68"/><rect x="1122" y="594" width="6" height="8" fill="#ffd9ef" opacity="0.52"/><rect x="1122" y="660" width="6" height="8" fill="#ffd9ef" opacity="0.51"/><rect x="1122" y="704" width="6" height="8" fill="#ffd9ef" opacity="0.69"/><rect x="1122" y="726" width="6" height="8" fill="#ffd9ef" opacity="0.66"/><rect x="1122" y="748" width="6" height="8" fill="#ffd9ef" opacity="0.34"/><circle cx="1073.0" cy="609.8" r="1.32" fill="#c08bff" opacity="0.43"/><circle cx="763.6" cy="388.2" r="0.65" fill="#c08bff" opacity="0.82"/><circle cx="636.8" cy="624.7" r="0.48" fill="#c08bff" opacity="0.56"/><circle cx="704.3" cy="407.8" r="0.94" fill="#c08bff" opacity="0.68"/><circle cx="278.3" cy="340.1" r="1.52" fill="#c08bff" opacity="0.64"/><circle cx="985.0" cy="349.6" r="1.07" fill="#c08bff" opacity="0.65"/><circle cx="340.9" cy="142.3" r="1.44" fill="#c08bff" opacity="0.79"/><circle cx="618.7" cy="152.4" r="0.75" fill="#c08bff" opacity="0.30"/><circle cx="629.8" cy="687.3" r="1.23" fill="#c08bff" opacity="0.57"/><circle cx="607.0" cy="560.3" r="0.65" fill="#c08bff" opacity="0.31"/><circle cx="522.2" cy="530.8" r="1.35" fill="#c08bff" opacity="0.53"/><circle cx="302.4" cy="734.1" r="1.07" fill="#c08bff" opacity="0.59"/><circle cx="462.5" cy="701.0" r="1.58" fill="#c08bff" opacity="0.81"/><circle cx="761.1" cy="81.7" r="1.38" fill="#c08bff" opacity="0.36"/><circle cx="1030.5" cy="185.2" r="1.32" fill="#c08bff" opacity="0.51"/><circle cx="370.9" cy="642.0" r="1.24" fill="#c08bff" opacity="0.34"/><circle cx="591.8" cy="376.4" r="1.46" fill="#c08bff" opacity="0.41"/><circle cx="995.5" cy="56.7" r="1.21" fill="#c08bff" opacity="0.68"/><circle cx="312.6" cy="568.7" r="0.81" fill="#c08bff" opacity="0.36"/><circle cx="5.5" cy="93.2" r="1.41" fill="#c08bff" opacity="0.70"/><circle cx="1087.9" cy="188.2" r="1.11" fill="#c08bff" opacity="0.79"/><circle cx="716.4" cy="769.2" r="1.11" fill="#c08bff" opacity="0.83"/><circle cx="738.4" cy="246.8" r="0.75" fill="#c08bff" opacity="0.41"/><circle cx="422.0" cy="81.9" r="1.34" fill="#c08bff" opacity="0.82"/><circle cx="454.9" cy="6.5" r="1.21" fill="#c08bff" opacity="0.53"/><circle cx="977.4" cy="274.6" r="1.33" fill="#c08bff" opacity="0.62"/><circle cx="423.5" cy="442.8" r="0.83" fill="#c08bff" opacity="0.40"/><circle cx="762.2" cy="548.7" r="0.89" fill="#c08bff" opacity="0.30"/><circle cx="770.4" cy="255.5" r="1.45" fill="#c08bff" opacity="0.82"/><circle cx="655.9" cy="127.4" r="0.44" fill="#c08bff" opacity="0.28"/><circle cx="481.5" cy="579.2" r="0.65" fill="#c08bff" opacity="0.49"/><circle cx="747.0" cy="131.2" r="0.45" fill="#c08bff" opacity="0.81"/><circle cx="153.5" cy="259.7" r="0.63" fill="#c08bff" opacity="0.63"/><circle cx="1117.0" cy="442.1" r="0.55" fill="#c08bff" opacity="0.37"/><circle cx="938.5" cy="544.6" r="0.92" fill="#c08bff" opacity="0.66"/><circle cx="1089.5" cy="471.7" r="1.03" fill="#c08bff" opacity="0.34"/><circle cx="728.3" cy="219.7" r="1.49" fill="#c08bff" opacity="0.58"/><circle cx="266.0" cy="301.5" r="0.70" fill="#c08bff" opacity="0.27"/><circle cx="902.9" cy="163.2" r="0.44" fill="#c08bff" opacity="0.46"/><circle cx="718.5" cy="323.2" r="0.84" fill="#c08bff" opacity="0.25"/>
  <rect x="28" y="28" width="1144" height="744" fill="none" stroke="#ffffff" stroke-opacity="0.10" rx="10"/>
  <g stroke="#dfe8ff" stroke-opacity="0.55" stroke-width="2">
    <path d="M40 28 L28 28 L28 40"/><path d="M1160 28 L1172 28 L1172 40"/>
    <path d="M40 772 L28 772 L28 760"/><path d="M1160 772 L1172 772 L1172 760"/>
  </g>
  <text x="52" y="726" font-family="ui-monospace,Menlo,monospace" font-size="26" fill="#dfe8ff" fill-opacity="0.82" letter-spacing="1">CITY WALK // 城市漫游 #3</text>
  <text x="52" y="756" font-family="ui-monospace,Menlo,monospace" font-size="16" fill="#9fd4ff" fill-opacity="0.6" letter-spacing="2">night drift</text>
  <text x="1148" y="726" text-anchor="end" font-family="ui-monospace,Menlo,monospace" font-size="15" fill="#ffffff" fill-opacity="0.35">PLACEHOLDER · NO EXIF</text>
<rect width="1200" height="800" filter="url(#grain)" opacity="0.5"/>
</svg>