<svg xmlns="http://www.w3.org/2000/svg" viewBox="0 0 1200 800" width="1200" height="800" role="img">
<defs>
    <linearGradient id="bg" x1="0" y1="0" x2="1" y2="1">
      <stop offset="0" stop-color="#0b1026"/>
      <stop offset="0.55" stop-color="#170f2e"/>
      <stop offset="1" stop-color="#0d1b33"/>
    </linearGradient>
    <filter id="soft" x="-50%" y="-50%" width="200%" height="200%"><feGaussianBlur stdDeviation="60"/></filter>
    <filter id="grain"><feTurbulence type="fractalNoise" baseFrequency="0.9" numOctaves="2" stitchTiles="stitch"/><feColorMatrix type="saturate" values="0"/><feComponentTransfer><feFuncA type="linear" slope="0.05"/></feComponentTransfer><feComposite operator="over" in2="SourceGraphic"/></filter>
  </defs>
<rect width="1200" height="800" fill="url(#bg)"/>
<circle cx="525" cy="191" r="363" fill="#2c4d86" opacity="0.20" filter="url(#soft)"/><circle cx="337" cy="338" r="353" fill="#7db5ff" opacity="0.15" filter="url(#soft)"/><circle cx="1019" cy="728" r="145" fill="#2c4d86" opacity="0.12" filter="url(#soft)"/><circle cx="1061" cy="311" r="138" fill="#7db5ff" opacity="0.17" filter="url(#soft)"/><rect x="60" y="327" width="52" height="477" fill="#0a0f22" opacity="0.85"/><rect x="66" y="341" width="6" height="8" fill="#ffd9ef" opacity="0.24"/><rect x="66" y="517" width="6" height="8" fill="#ffd9ef" opacity="0.59"/><rect x="66" y="583" width="6" height="8" fill="#ffd9ef" opacity="0.37"/><rect x="66" y="627" width="6" height="8" fill="#ffd9ef" opacity="0.41"/><rect x="66" y="649" width="6" height="8" fill="#ffd9ef" opacity="0.37"/><rect x="66" y="737" width="6" height="8" fill="#ffd9ef" opacity="0.41"/><rect x="161" y="239" width="52" height="565" fill="#0a0f22" opacity="0.85"/><rect x="167" y="253" width="6" height="8" fill="#ffd9ef" opacity="0.23"/><rect x="167" y="275" width="6" height="8" fill="#ffd9ef" opacity="0.53"/><rect x="167" y="297" width="6" height="8" fill="#ffd9ef" opacity="0.61"/><rect x="167" y="363" width="6" height="8" fill="#ffd9ef" opacity="0.34"/><rect x="167" y="429" width="6" height="8" fill="#ffd9ef" opacity="0.57"/><rect x="167" y="473" width="6" height="8" fill="#ffd9ef" opacity="0.30"/><rect x="167" y="495" width="6" height="8" fill="#ffd9ef" opacity="0.26"/><rect x="167" y="561" width="6" height="8" fill="#ffd9ef" opacity="0.40"/><rect x="167" y="583" width="6" height="8" fill="#ffd9ef" opacity="0.22"/><rect x="167" y="671" width="6" height="8" fill="#ffd9ef" opacity="0.27"/><rect x="167" y="715" width="6" height="8" fill="#ffd9ef" opacity="0.60"/><rect x="167" y="737" width="6" height="8" fill="#ffd9ef" opacity="0.23"/><rect x="232" y="249" width="65" height="555" fill="#0a0f22" opacity="0.85"/><rect x="238" y="263" width="6" height="8" fill="#ffd9ef" opacity="0.38"/><rect x="238" y="307" width="6" height="8" fill="#ffd9ef" opacity="0.42"/><rect x="238" y="329" width="6" height="8" fill="#ffd9ef" opacity="0.62"/><rect x="238" y="373" width="6" height="8" fill="#ffd9ef" opacity="0.34"/><rect x="238" y="395" width="6" height="8" fill="#ffd9ef" opacity="0.57"/><rect x="238" y="527" width="6" height="8" fill="#ffd9ef" opacity="0.37"/><rect x="238" y="681" width="6" height="8" fill="#ffd9ef" opacity="0.31"/><rect x="238" y="725" width="6" height="8" fill="#ffd9ef" opacity="0.33"/><rect x="309" y="296" width="44" height="508" fill="#0a0f22" opacity="0.85"/><rect x="315" y="332" width="6" height="8" fill="#ffd9ef" opacity="0.42"/><rect x="315" y="354" width="6" height="8" fill="#ffd9ef" opacity="0.70"/><rect x="315" y="376" width="6" height="8" fill="#ffd9ef" opacity="0.49"/><rect x="315" y="398" width="6" height="8" fill="#ffd9ef" opacity="0.62"/><rect x="315" y="420" width="6" height="8" fill="#ffd9ef" opacity="0.33"/><rect x="315" y="596" width="6" height="8" fill="#ffd9ef" opacity="0.69"/><rect x="315" y="684" width="6" height="8" fill="#ffd9ef" opacity="0.36"/><rect x="315" y="706" width="6" height="8" fill="#ffd9ef" opacity="0.50"/><rect x="369" y="382" width="52" height="422" fill="#0a0f22" opacity="0.85"/><rect x="375" y="396" width="6" height="8" fill="#ffd9ef" opacity="0.44"/><rect x="375" y="418" width="6" height="8" fill="#ffd9ef" opacity="0.21"/><rect x="375" y="528" width="6" height="8" fill="#ffd9ef" opacity="0.58"/><rect x="375" y="572" width="6" height="8" fill="#ffd9ef" opacity="0.59"/><rect x="375" y="616" width="6" height="8" fill="#ffd9ef" opacity="0.36"/><rect x="375" y="726" width="6" height="8" fill="#ffd9ef" opacity="0.23"/><rect x="417" y="337" width="52" height="467" fill="#0a0f22" opacity="0.85"/><rect x="423" y="373" width="6" height="8" fill="#ffd9ef" opacity="0.30"/><rect x="423" y="439" width="6" height="8" fill="#ffd9ef" opacity="0.33"/><rect x="423" y="461" width="6" height="8" fill="#ffd9ef" opacity="0.35"/><rect x="423" y="549" width="6" height="8" fill="#ffd9ef" opacity="0.67"/><rect x="423" y="615" width="6" height="8" fill="#ffd9ef" opacity="0.51"/><rect x="423" y="659" width="6" height="8" fill="#ffd9ef" opacity="0.33"/><rect x="423" y="681" width="6" height="8" fill="#ffd9ef" opacity="0.51"/><rect x="474" y="343" width="48" height="461" fill="#0a0f22" opacity="0.85"/><rect x="480" y="357" width="6" height="8" fill="#ffd9ef" opacity="0.69"/><rect x="480" y="445" width="6" height="8" fill="#ffd9ef" opacity="0.68"/><rect x="480" y="467" width="6" height="8" fill="#ffd9ef" opacity="0.25"/><rect x="480" y="489" width="6" height="8" fill="#ffd9ef" opacity="0.38"/><rect x="480" y="511" width="6" height="8" fill="#ffd9ef" opacity="0.55"/><rect x="480" y="533" width="6" height="8" fill="#ffd9ef" opacity="0.24"/><rect x="480" y="577" width="6" height="8" fill="#ffd9ef" opacity="0.23"/><rect x="480" y="599" width="6" height="8" fill="#ffd9ef" opacity="0.47"/><rect x="480" y="621" width="6" height="8" fill="#ffd9ef" opacity="0.36"/><rect x="480" y="687" width="6" height="8" fill="#ffd9ef" opacity="0.33"/><rect x="538" y="270" width="61" height="534" fill="#0a0f22" opacity="0.85"/><rect x="544" y="306" width="6" height="8" fill="#ffd9ef" opacity="0.70"/><rect x="544" y="350" width="6" height="8" fill="#ffd9ef" opacity="0.52"/><rect x="544" y="394" width="6" height="8" fill="#ffd9ef" opacity="0.41"/><rect x="544" y="460" width="6" height="8" fill="#ffd9ef" opacity="0.47"/><rect x="544" y="504" width="6" height="8" fill="#ffd9ef" opacity="0.61"/><rect x="544" y="526" width="6" height="8" fill="#ffd9ef" opacity="0.51"/><rect x="544" y="592" width="6" height="8" fill="#ffd9ef" opacity="0.65"/><rect x="544" y="658" width="6" height="8" fill="#ffd9ef" opacity="0.52"/><rect x="544" y="680" width="6" height="8" fill="#ffd9ef" opacity="0.55"/><rect x="544" y="702" width="6" height="8" fill="#ffd9ef" opacity="0.27"/><rect x="544" y="724" width="6" height="8" fill="#ffd9ef" opacity="0.33"/><rect x="611" y="248" width="40" height="556" fill="#0a0f22" opacity="0.85"/><rect x="617" y="284" width="6" height="8" fill="#ffd9ef" opacity="0.31"/><rect x="617" y="306" width="6" height="8" fill="#ffd9ef" opacity="0.61"/><rect x="617" y="328" width="6" height="8" fill="#ffd9ef" opacity="0.64"/><rect x="617" y="350" width="6" height="8" fill="#ffd9ef" opacity="0.32"/><rect x="617" y="372" width="6" height="8" fill="#ffd9ef" opacity="0.66"/><rect x="617" y="394" width="6" height="8" fill="#ffd9ef" opacity="0.21"/><rect x="617" y="438" width="6" height="8" fill="#ffd9ef" opacity="0.30"/><rect x="617" y="482" width="6" height="8" fill="#ffd9ef" opacity="0.69"/><rect x="617" y="504" width="6" height="8" fill="#ffd9ef" opacity="0.67"/><rect x="617" y="614" width="6" height="8" fill="#ffd9ef" opacity="0.68"/><rect x="617" y="636" width="6" height="8" fill="#ffd9ef" opacity="0.31"/><rect x="617" y="702" width="6" height="8" fill="#ffd9ef" opacity="0.46"/><rect x="668" y="385" width="41" height="419" fill="#0a0f22" opacity="0.85"/><rect x="674" y="487" width="6" height="8" fill="#ffd9ef" opacity="0.27"/><rect x="674" y="575" width="6" height="8" fill="#ffd9ef" opacity="0.47"/><rect x="674" y="597" width="6" height="8" fill="#ffd9ef" opacity="0.47"/><rect x="674" y="619" width="6" height="8" fill="#ffd9ef" opacity="0.58"/><rect x="674" y="707" width="6" height="8" fill="#ffd9ef" opacity="0.22"/><rect x="674" y="729" width="6" height="8" fill="#ffd9ef" opacity="0.35"/><rect x="764" y="288" width="65" height="516" fill="#0a0f22" opacity="0.85"/><rect x="770" y="390" width="6" height="8" fill="#ffd9ef" opacity="0.24"/><rect x="770" y="434" width="6" height="8" fill="#ffd9ef" opacity="0.45"/><rect x="770" y="500" width="6" height="8" fill="#ffd9ef" opacity="0.38"/><rect x="770" y="632" width="6" height="8" fill="#ffd9ef" opacity="0.36"/><rect x="770" y="654" width="6" height="8" fill="#ffd9ef" opacity="0.38"/><rect x="770" y="676" width="6" height="8" fill="#ffd9ef" opacity="0.25"/><rect x="849" y="376" width="59" height="428" fill="#0a0f22" opacity="0.85"/><rect x="855" y="434" width="6" height="8" fill="#ffd9ef" opacity="0.62"/><rect x="855" y="500" width="6" height="8" fill="#ffd9ef" opacity="0.60"/><rect x="855" y="522" width="6" height="8" fill="#ffd9ef" opacity="0.62"/><rect x="855" y="544" width="6" height="8" fill="#ffd9ef" opacity="0.47"/><rect x="855" y="566" width="6" height="8" fill="#ffd9ef" opacity="0.27"/><rect x="855" y="588" width="6" height="8" fill="#ffd9ef" opacity="0.52"/><rect x="855" y="632" width="6" height="8" fill="#ffd9ef" opacity="0.55"/><rect x="855" y="654" width="6" height="8" fill="#ffd9ef" opacity="0.47"/><rect x="855" y="720" width="6" height="8" fill="#ffd9ef" opacity="0.66"/><rect x="910" y="209" width="60" height="595" fill="#0a0f22" opacity="0.85"/><rect x="916" y="223" width="6" height="8" fill="#ffd9ef" opacity="0.24"/><rect x="916" y="289" width="6" height="8" fill="#ffd9ef" opacity="0.49"/><rect x="916" y="311" width="6" height="8" fill="#ffd9ef" opacity="0.49"/><rect x="916" y="355" width="6" height="8" fill="#ffd9ef" opacity="0.58"/><rect x="916" y="421" width="6" height="8" fill="#ffd9ef" opacity="0.51"/><rect x="916" y="443" width="6" height="8" fill="#ffd9ef" opacity="0.55"/><rect x="916" y="509" width="6" height="8" fill="#ffd9ef" opacity="0.37"/><rect x="916" y="553" width="6" height="8" fill="#ffd9ef" opacity="0.34"/><rect x="916" y="575" width="6" height="8" fill="#ffd9ef" opacity="0.67"/><rect x="916" y="619" width="6" height="8" fill="#ffd9ef" opacity="0.59"/><rect x="916" y="663" width="6" height="8" fill="#ffd9ef" opacity="0.50"/><rect x="1011" y="217" width="33" height="587" fill="#0a0f22" opacity="0.85"/><rect x="1017" y="275" width="6" height="8" fill="#ffd9ef" opacity="0.32"/><rect x="1017" y="297" width="6" height="8" fill="#ffd9ef" opacity="0.51"/><rect x="1017" y="341" width="6" height="8" fill="#ffd9ef" opacity="0.25"/><rect x="1017" y="363" width="6" height="8" fill="#ffd9ef" opacity="0.32"/><rect x="1017" y="385" width="6" height="8" fill="#ffd9ef" opacity="0.61"/><rect x="1017" y="451" width="6" height="8" fill="#ffd9ef" opacity="0.27"/><rect x="1017" y="517" width="6" height="8" fill="#ffd9ef" opacity="0.28"/><rect x="1017" y="627" width="6" height="8" fill="#ffd9ef" opacity="0.55"/><rect x="1017" y="671" width="6" height="8" fill="#ffd9ef" opacity="0.34"/><rect x="1017" y="693" width="6" height="8" fill="#ffd9ef" opacity="0.53"/><rect x="1017" y="737" width="6" height="8" fill="#ffd9ef" opacity="0.23"/><rect x="1087" y="329" width="47" height="475" fill="#0a0f22" opacity="0.85"/><rect x="1093" y="343" width="6" height="8" fill="#ffd9ef" opacity="0.40"/><rect x="1093" y="387" width="6" height="8" fill="#ffd9ef" opacity="0.56"/><rect x="1093" y="497" width="6" height="8" fill="#ffd9ef" opacity="0.67"/><rect x="1093" y="519" width="6" height="8" fill="#ffd9ef" opacity="0.24"/><rect x="1093" y="585" width="6" height="8" fill="#ffd9ef" opacity="0.28"/><rect x="1093" y="629" width="6" height="8" fill="#ffd9ef" opacity="0.44"/><rect x="1093" y="695" width="6" height="8" fill="#ffd9ef" opacity="0.30"/><circle cx="709.0" cy="798.2" r="1.00" fill="#c08bff" opacity="0.36"/><circle cx="237.7" cy="740.3" r="1.35" fill="#c08bff" opacity="0.40"/><circle cx="1060.0" cy="381.2" r="1.24" fill="#c08bff" opacity="0.49"/><circle cx="72.6" cy="447.6" r="1.00" fill="#c08bff" opacity="0.43"/><circle cx="686.5" cy="622.2" r="0.41" fill="#c08bff" opacity="0.79"/><circle cx="266.5" cy="237.9" r="1.11" fill="#c08bff" opacity="0.81"/><circle cx="678.4" cy="77.4" r="0.75" fill="#c08bff" opacity="0.72"/><circle cx="405.3" cy="264.9" r="1.17" fill="#c08bff" opacity="0.57"/><circle cx="483.1" cy="503.6" r="1.45" fill="#c08bff" opacity="0.44"/><circle cx="738.8" cy="714.3" r="0.68" fill="#c08bff" opacity="0.65"/><circle cx="615.0" cy="160.3" r="1.34" fill="#c08bff" opacity="0.46"/><circle cx="46.2" cy="298.1" r="0.88" fill="#c08bff" opacity="0.61"/><circle cx="1143.4" cy="67.7" r="1.51" fill="#c08bff" opacity="0.42"/><circle cx="89.4" cy="328.1" r="0.64" fill="#c08bff" opacity="0.27"/><circle cx="708.9" cy="495.7" r="1.09" fill="#c08bff" opacity="0.27"/><circle cx="175.2" cy="577.7" r="0.43" fill="#c08bff" opacity="0.53"/><circle cx="219.6" cy="207.1" r="1.28" fill="#c08bff" opacity="0.59"/><circle cx="394.3" cy="689.1" r="0.47" fill="#c08bff" opacity="0.47"/><circle cx="1188.2" cy="184.8" r="0.80" fill="#c08bff" opacity="0.63"/><circle cx="1095.1" cy="160.9" r="0.89" fill="#c08bff" opacity="0.36"/><circle cx="670.7" cy="730.7" r="1.52" fill="#c08bff" opacity="0.53"/><circle cx="963.8" cy="796.0" r="1.21" fill="#c08bff" opacity="0.73"/><circle cx="978.9" cy="488.6" r="1.09" fill="#c08bff" opacity="0.57"/><circle cx="867.4" cy="145.7" r="1.33" fill="#c08bff" opacity="0.63"/><circle cx="609.4" cy="678.8" r="0.54" fill="#c08bff" opacity="0.36"/><circle cx="643.6" cy="689.0" r="0.53" fill="#c08bff" opacity="0.37"/><circle cx="255.2" cy="625.3" r="0.99" fill="#c08bff" opacity="0.39"/><circle cx="578.8" cy="532.5" r="1.25" fill="#c08bff" opacity="0.62"/><circle cx="382.8" cy="393.7" r="0.58" fill="#c08bff" opacity="0.53"/><circle cx="296.4" cy="520.2" r="1.34" fill="#c08bff" opacity="0.38"/><circle cx="1069.1" cy="82.6" r="0.68" fill="#c08bff" opacity="0.34"/><circle cx="232.1" cy="537.5" r="0.60" fill="#c08bff" opacity="0.45"/><circle cx="829.3" cy="781.6" r="0.45" fill="#c08bff" opacity="0.28"/><circle cx="1066.0" cy="416.4" r="1.50" fill="#c08bff" opacity="0.39"/><circle cx="568.8" cy="581.1" r="1.37" fill="#c08bff" opacity="0.40"/><circle cx="378.5" cy="108.9" r="0.55" fill="#c08bff" opacity="0.34"/><circle cx="980.6" cy="269.0" r="1.48" fill="#c08bff" opacity="0.78"/><circle cx="856.8" cy="150.5" r="1.54" fill="#c08bff" opacity="0.35"/><circle cx="228.2" cy="8.0" r="0.65" fill="#c08bff" opacity="0.47"/><circle cx="22.1" cy="359.0" r="1.41" fill="#c08bff" opacity="0.28"/>
  <rect x="28" y="28" width="1144" height="744" fill="none" stroke="#ffffff" stroke-opacity="0.10" rx="10"/>
  <g stroke="#dfe8ff" stroke-opacity="0.55" stroke-width="2">
    <path d="M40 28 L28 28 L28 40"/><path d="M1160 28 L1172 28 L1172 40"/>
    <path d="M40 772 L28 772 L28 760"/><path d="M1160 772 L1172 772 L1172 760"/>
  </g>
  <text x="52" y="726" font-family="ui-monospace,Menlo,monospace" font-size="26" fill="#dfe8ff" fill-opacity="0.82" letter-spacing="1">CITY WALK // 城市漫游 #1</text>
  <text x="52" y="756" font-family="ui-monospace,Menlo,monospace" font-size="16" fill="#9fd4ff" fill-opacity="0.6" letter-spacing="2">night drift</text>
  <text x="1148" y="726" text-anchor="end" font-family="ui-monospace,Menlo,monospace" font-size="15" fill="#ffffff" fill-opacity="0.35">PLACEHOLDER · NO EXIF</text>
<rect width="1200" height="800" filter="url(#grain)" opacity="0.5"/>
</svg>