<svg xmlns="http://www.w3.org/2000/svg" viewBox="0 0 1200 800" width="1200" height="800" role="img">
<defs>
    <linearGradient id="bg" x1="0" y1="0" x2="1" y2="1">
      <stop offset="0" stop-color="#0a0f24"/>
      <stop offset="0.55" stop-color="#0c1330"/>
      <stop offset="1" stop-color="#0a1a2e"/>
    </linearGradient>
    <filter id="soft" x="-50%" y="-50%" width="200%" height="200%"><feGaussianBlur stdDeviation="60"/></filter>
    <filter id="grain"><feTurbulence type="fractalNoise" baseFrequency="0.9" numOctaves="2" stitchTiles="stitch"/><feColorMatrix type="saturate" values="0"/><feComponentTransfer><feFuncA type="linear" slope="0.05"/></feComponentTransfer><feComposite operator="over" in2="SourceGraphic"/></filter>
  </defs>
<rect width="1200" height="800" fill="url(#bg)"/>
<circle cx="666" cy="10" r="265" fill="#123a5a" opacity="0.18" filter="url(#soft)"/><circle cx="974" cy="202" r="352" fill="#1a2b6b" opacity="0.17" filter="url(#soft)"/><circle cx="834" cy="67" r="170" fill="#123a5a" opacity="0.20" filter="url(#soft)"/><circle cx="275.8" cy="290.9" r="1.12" fill="#dfe8ff" opacity="0.57"/><circle cx="100.8" cy="576.3" r="1.54" fill="#dfe8ff" opacity="0.79"/><circle cx="818.1" cy="556.1" r="1.04" fill="#dfe8ff" opacity="0.75"/><circle cx="121.8" cy="9.1" r="1.70" fill="#dfe8ff" opacity="0.28"/><circle cx="215.7" cy="187.3" r="0.87" fill="#dfe8ff" opacity="0.44"/><circle cx="1118.2" cy="741.8" r="2.22" fill="#dfe8ff" opacity="0.67"/><circle cx="574.3" cy="214.2" r="1.27" fill="#dfe8ff" opacity="0.80"/><circle cx="971.6" cy="563.4" r="0.96" fill="#dfe8ff" opacity="0.71"/><circle cx="1037.5" cy="628.5" r="1.72" fill="#dfe8ff" opacity="0.42"/><circle cx="445.9" cy="779.6" r="0.63" fill="#dfe8ff" opacity="0.62"/><circle cx="385.8" cy="246.1" r="2.05" fill="#dfe8ff" opacity="0.48"/><circle cx="96.6" cy="793.6" r="1.63" fill="#dfe8ff" opacity="0.50"/><circle cx="164.1" cy="110.2" r="1.96" fill="#dfe8ff" opacity="0.53"/><circle cx="749.7" cy="719.0" r="1.78" fill="#dfe8ff" opacity="0.42"/><circle cx="286.4" cy="124.5" r="0.83" fill="#dfe8ff" opacity="0.48"/><circle cx="539.8" cy="715.8" r="2.23" fill="#dfe8ff" opacity="0.57"/><circle cx="347.4" cy="286.4" r="1.59" fill="#dfe8ff" opacity="0.41"/><circle cx="722.0" cy="655.6" r="0.79" fill="#dfe8ff" opacity="0.28"/><circle cx="226.0" cy="263.9" r="0.45" fill="#dfe8ff" opacity="0.45"/><circle cx="1170.8" cy="449.7" r="1.59" fill="#dfe8ff" opacity="0.25"/><circle cx="689.5" cy="770.5" r="0.78" fill="#dfe8ff" opacity="0.59"/><circle cx="840.0" cy="315.7" r="0.56" fill="#dfe8ff" opacity="0.58"/><circle cx="498.7" cy="394.8" r="2.15" fill="#dfe8ff" opacity="0.58"/><circle cx="80.2" cy="24.8" r="1.00" fill="#dfe8ff" opacity="0.54"/><circle cx="754.9" cy="418.7" r="1.57" fill="#dfe8ff" opacity="0.66"/><circle cx="680.8" cy="538.5" r="0.61" fill="#dfe8ff" opacity="0.40"/><circle cx="184.5" cy="574.7" r="1.75" fill="#dfe8ff" opacity="0.48"/><circle cx="354.2" cy="144.1" r="0.57" fill="#dfe8ff" opacity="0.72"/><circle cx="263.4" cy="728.3" r="0.55" fill="#dfe8ff" opacity="0.45"/><circle cx="53.7" cy="788.6" r="1.47" fill="#dfe8ff" opacity="0.66"/><circle cx="449.2" cy="137.3" r="1.77" fill="#dfe8ff" opacity="0.63"/><circle cx="527.1" cy="313.0" r="1.59" fill="#dfe8ff" opacity="0.78"/><circle cx="1109.9" cy="646.0" r="0.89" fill="#dfe8ff" opacity="0.46"/><circle cx="1115.4" cy="375.5" r="0.94" fill="#dfe8ff" opacity="0.32"/><circle cx="937.0" cy="606.3" r="0.66" fill="#dfe8ff" opacity="0.42"/><circle cx="108.8" cy="36.2" r="1.83" fill="#dfe8ff" opacity="0.54"/><circle cx="623.9" cy="337.5" r="1.09" fill="#dfe8ff" opacity="0.32"/><circle cx="1118.6" cy="193.0" r="0.65" fill="#dfe8ff" opacity="0.64"/><circle cx="269.6" cy="643.0" r="0.89" fill="#dfe8ff" opacity="0.40"/><circle cx="91.5" cy="58.3" r="1.31" fill="#dfe8ff" opacity="0.84"/><circle cx="259.6" cy="178.5" r="1.26" fill="#dfe8ff" opacity="0.78"/><circle cx="525.2" cy="75.9" r="0.96" fill="#dfe8ff" opacity="0.25"/><circle cx="971.6" cy="467.1" r="1.61" fill="#dfe8ff" opacity="0.28"/><circle cx="895.1" cy="485.3" r="1.94" fill="#dfe8ff" opacity="0.65"/><circle cx="95.5" cy="582.7" r="1.25" fill="#dfe8ff" opacity="0.72"/><circle cx="354.1" cy="100.7" r="2.09" fill="#dfe8ff" opacity="0.26"/><circle cx="41.3" cy="651.9" r="0.52" fill="#dfe8ff" opacity="0.67"/><circle cx="613.0" cy="157.6" r="0.47" fill="#dfe8ff" opacity="0.61"/><circle cx="430.3" cy="743.4" r="0.57" fill="#dfe8ff" opacity="0.55"/><circle cx="340.2" cy="447.8" r="0.70" fill="#dfe8ff" opacity="0.77"/><circle cx="763.5" cy="755.3" r="2.00" fill="#dfe8ff" opacity="0.49"/><circle cx="768.6" cy="206.2" r="0.97" fill="#dfe8ff" opacity="0.59"/><circle cx="224.4" cy="313.9" r="1.40" fill="#dfe8ff" opacity="0.33"/><circle cx="71.1" cy="21.5" r="0.99" fill="#dfe8ff" opacity="0.43"/><circle cx="741.0" cy="292.8" r="0.96" fill="#dfe8ff" opacity="0.71"/><circle cx="609.8" cy="25.0" r="0.73" fill="#dfe8ff" opacity="0.84"/><circle cx="1174.2" cy="652.6" r="1.63" fill="#dfe8ff" opacity="0.38"/><circle cx="880.0" cy="123.4" r="2.10" fill="#dfe8ff" opacity="0.74"/><circle cx="903.1" cy="309.8" r="2.16" fill="#dfe8ff" opacity="0.72"/><circle cx="110.6" cy="235.1" r="2.23" fill="#dfe8ff" opacity="0.28"/><circle cx="270.9" cy="582.8" r="0.45" fill="#dfe8ff" opacity="0.62"/><circle cx="733.5" cy="419.7" r="0.48" fill="#dfe8ff" opacity="0.38"/><circle cx="446.6" cy="481.9" r="2.30" fill="#dfe8ff" opacity="0.37"/><circle cx="306.3" cy="436.7" r="0.91" fill="#dfe8ff" opacity="0.54"/><circle cx="649.3" cy="533.8" r="0.78" fill="#dfe8ff" opacity="0.56"/><circle cx="1088.8" cy="321.5" r="1.98" fill="#dfe8ff" opacity="0.26"/><circle cx="1102.3" cy="72.5" r="0.47" fill="#dfe8ff" opacity="0.43"/><circle cx="1122.7" cy="710.0" r="0.64" fill="#dfe8ff" opacity="0.44"/><circle cx="197.4" cy="550.1" r="1.44" fill="#dfe8ff" opacity="0.81"/><circle cx="156.0" cy="9.1" r="1.91" fill="#dfe8ff" opacity="0.45"/><circle cx="1128.3" cy="474.6" r="1.21" fill="#dfe8ff" opacity="0.46"/><circle cx="410.6" cy="290.1" r="1.66" fill="#dfe8ff" opacity="0.81"/><circle cx="451.8" cy="430.9" r="0.73" fill="#dfe8ff" opacity="0.43"/><circle cx="743.1" cy="289.9" r="0.81" fill="#dfe8ff" opacity="0.57"/><circle cx="802.5" cy="419.4" r="0.41" fill="#dfe8ff" opacity="0.49"/><circle cx="1135.2" cy="206.8" r="1.91" fill="#dfe8ff" opacity="0.81"/><circle cx="252.8" cy="235.4" r="1.78" fill="#dfe8ff" opacity="0.28"/><circle cx="334.3" cy="483.6" r="1.17" fill="#dfe8ff" opacity="0.33"/><circle cx="954.6" cy="462.0" r="1.22" fill="#dfe8ff" opacity="0.62"/><circle cx="1025.0" cy="130.3" r="1.94" fill="#dfe8ff" opacity="0.79"/><circle cx="1087.7" cy="748.6" r="0.48" fill="#dfe8ff" opacity="0.61"/><circle cx="572.1" cy="130.2" r="0.76" fill="#dfe8ff" opacity="0.33"/><circle cx="847.9" cy="701.5" r="0.72" fill="#dfe8ff" opacity="0.42"/><circle cx="653.9" cy="463.2" r="2.01" fill="#dfe8ff" opacity="0.82"/><circle cx="29.3" cy="26.5" r="1.56" fill="#dfe8ff" opacity="0.35"/><circle cx="638.2" cy="30.5" r="0.95" fill="#dfe8ff" opacity="0.36"/><circle cx="429.2" cy="241.0" r="0.61" fill="#dfe8ff" opacity="0.45"/><circle cx="171.3" cy="388.0" r="1.75" fill="#dfe8ff" opacity="0.31"/><circle cx="655.6" cy="491.0" r="2.02" fill="#dfe8ff" opacity="0.85"/><circle cx="113.2" cy="394.3" r="1.35" fill="#dfe8ff" opacity="0.47"/><circle cx="1123.3" cy="265.5" r="1.32" fill="#dfe8ff" opacity="0.78"/><circle cx="149.8" cy="311.6" r="1.67" fill="#dfe8ff" opacity="0.64"/><circle cx="604.0" cy="674.8" r="1.34" fill="#dfe8ff" opacity="0.27"/><circle cx="702.0" cy="360.3" r="1.39" fill="#dfe8ff" opacity="0.45"/><circle cx="925.9" cy="392.3" r="1.54" fill="#dfe8ff" opacity="0.35"/><circle cx="1171.1" cy="121.2" r="0.69" fill="#dfe8ff" opacity="0.68"/><circle cx="539.6" cy="253.5" r="0.44" fill="#dfe8ff" opacity="0.63"/><circle cx="457.8" cy="174.5" r="1.76" fill="#dfe8ff" opacity="0.54"/><circle cx="894.2" cy="357.5" r="1.69" fill="#dfe8ff" opacity="0.41"/><circle cx="700.5" cy="228.7" r="1.43" fill="#dfe8ff" opacity="0.39"/><circle cx="940.2" cy="307.0" r="1.69" fill="#dfe8ff" opacity="0.48"/><circle cx="147.4" cy="225.0" r="0.78" fill="#dfe8ff" opacity="0.78"/><circle cx="820.6" cy="345.7" r="1.86" fill="#dfe8ff" opacity="0.40"/><circle cx="675.9" cy="231.7" r="0.72" fill="#dfe8ff" opacity="0.36"/><circle cx="576.8" cy="702.6" r="1.35" fill="#dfe8ff" opacity="0.45"/><circle cx="891.4" cy="291.1" r="1.97" fill="#dfe8ff" opacity="0.27"/><circle cx="569.1" cy="353.8" r="1.57" fill="#dfe8ff" opacity="0.74"/><circle cx="509.1" cy="51.5" r="1.75" fill="#dfe8ff" opacity="0.54"/><circle cx="718.7" cy="696.5" r="0.61" fill="#dfe8ff" opacity="0.66"/><circle cx="901.6" cy="422.7" r="0.52" fill="#dfe8ff" opacity="0.26"/><circle cx="727.1" cy="0.7" r="2.25" fill="#dfe8ff" opacity="0.76"/><circle cx="227.7" cy="268.6" r="1.70" fill="#dfe8ff" opacity="0.56"/><circle cx="460.3" cy="668.9" r="2.18" fill="#dfe8ff" opacity="0.46"/><circle cx="1089.3" cy="342.5" r="1.92" fill="#dfe8ff" opacity="0.26"/><circle cx="287.7" cy="724.4" r="0.55" fill="#dfe8ff" opacity="0.35"/><circle cx="867.0" cy="246.4" r="2.00" fill="#dfe8ff" opacity="0.30"/><circle cx="333.6" cy="684.0" r="1.25" fill="#dfe8ff" opacity="0.36"/><circle cx="1100.9" cy="449.7" r="1.61" fill="#dfe8ff" opacity="0.56"/><circle cx="202.9" cy="7.8" r="1.46" fill="#dfe8ff" opacity="0.47"/><circle cx="879.1" cy="438.5" r="1.44" fill="#dfe8ff" opacity="0.38"/><circle cx="139.0" cy="746.9" r="1.52" fill="#dfe8ff" opacity="0.82"/><circle cx="261.4" cy="676.0" r="0.85" fill="#dfe8ff" opacity="0.33"/><circle cx="107.0" cy="751.4" r="1.25" fill="#dfe8ff" opacity="0.39"/><circle cx="450.0" cy="93.3" r="1.35" fill="#dfe8ff" opacity="0.45"/><circle cx="1196.1" cy="777.3" r="0.78" fill="#dfe8ff" opacity="0.81"/><circle cx="246.7" cy="58.2" r="1.48" fill="#dfe8ff" opacity="0.34"/><circle cx="999.5" cy="568.2" r="1.78" fill="#dfe8ff" opacity="0.80"/><circle cx="673.8" cy="222.2" r="0.89" fill="#dfe8ff" opacity="0.64"/><circle cx="92.6" cy="146.8" r="1.95" fill="#dfe8ff" opacity="0.72"/><circle cx="409.1" cy="443.0" r="0.61" fill="#dfe8ff" opacity="0.61"/><circle cx="338.3" cy="479.0" r="1.39" fill="#dfe8ff" opacity="0.84"/><circle cx="58.2" cy="412.4" r="2.19" fill="#dfe8ff" opacity="0.31"/><circle cx="760.7" cy="425.4" r="1.53" fill="#dfe8ff" opacity="0.66"/><circle cx="686.1" cy="724.5" r="0.78" fill="#dfe8ff" opacity="0.83"/><circle cx="362.8" cy="471.7" r="1.59" fill="#dfe8ff" opacity="0.74"/><circle cx="988.6" cy="12.1" r="2.13" fill="#dfe8ff" opacity="0.35"/><circle cx="1156.9" cy="471.6" r="1.69" fill="#dfe8ff" opacity="0.66"/><circle cx="217.7" cy="741.0" r="0.86" fill="#dfe8ff" opacity="0.71"/><circle cx="713.3" cy="229.7" r="2.17" fill="#dfe8ff" opacity="0.37"/><circle cx="1096.7" cy="588.9" r="1.38" fill="#dfe8ff" opacity="0.62"/><circle cx="247.6" cy="633.3" r="1.40" fill="#dfe8ff" opacity="0.28"/><circle cx="550.0" cy="563.0" r="2.27" fill="#dfe8ff" opacity="0.55"/><circle cx="2.7" cy="739.5" r="1.76" fill="#dfe8ff" opacity="0.78"/><circle cx="498.9" cy="567.8" r="1.84" fill="#dfe8ff" opacity="0.80"/><circle cx="11.0" cy="163.1" r="1.41" fill="#dfe8ff" opacity="0.72"/><circle cx="658.2" cy="221.6" r="1.52" fill="#dfe8ff" opacity="0.68"/><circle cx="971.8" cy="161.2" r="1.31" fill="#dfe8ff" opacity="0.73"/><circle cx="340.9" cy="458.1" r="1.16" fill="#dfe8ff" opacity="0.52"/><circle cx="37.9" cy="295.8" r="1.75" fill="#dfe8ff" opacity="0.71"/><circle cx="693.3" cy="511.5" r="0.85" fill="#dfe8ff" opacity="0.34"/><circle cx="1139.1" cy="336.2" r="1.97" fill="#dfe8ff" opacity="0.35"/><circle cx="803.6" cy="793.3" r="1.54" fill="#dfe8ff" opacity="0.76"/><circle cx="582.1" cy="118.1" r="0.82" fill="#dfe8ff" opacity="0.79"/><circle cx="64.6" cy="259.8" r="1.09" fill="#dfe8ff" opacity="0.67"/><circle cx="900.0" cy="430.7" r="0.74" fill="#dfe8ff" opacity="0.71"/><circle cx="1174.6" cy="534.7" r="1.22" fill="#dfe8ff" opacity="0.34"/><circle cx="963.8" cy="540.4" r="0.45" fill="#dfe8ff" opacity="0.35"/><circle cx="601.3" cy="451.4" r="0.81" fill="#dfe8ff" opacity="0.69"/><circle cx="1120.1" cy="434.9" r="1.39" fill="#dfe8ff" opacity="0.67"/><circle cx="720.4" cy="242.0" r="1.81" fill="#dfe8ff" opacity="0.31"/><circle cx="1048.4" cy="624.6" r="0.60" fill="#dfe8ff" opacity="0.72"/><circle cx="710.5" cy="458.0" r="1.25" fill="#dfe8ff" opacity="0.27"/><circle cx="556.2" cy="353.5" r="0.53" fill="#dfe8ff" opacity="0.78"/><circle cx="505.4" cy="333.1" r="0.75" fill="#dfe8ff" opacity="0.48"/><circle cx="629.8" cy="702.2" r="1.87" fill="#dfe8ff" opacity="0.77"/><circle cx="724.7" cy="285.9" r="1.91" fill="#dfe8ff" opacity="0.77"/><circle cx="1050.1" cy="600.1" r="1.74" fill="#dfe8ff" opacity="0.32"/><circle cx="1045.9" cy="431.9" r="1.88" fill="#dfe8ff" opacity="0.34"/><circle cx="1080.5" cy="467.9" r="0.63" fill="#dfe8ff" opacity="0.61"/><circle cx="211.7" cy="239.8" r="1.93" fill="#dfe8ff" opacity="0.56"/><circle cx="635.5" cy="525.6" r="2.01" fill="#dfe8ff" opacity="0.28"/><circle cx="89.9" cy="501.7" r="1.25" fill="#dfe8ff" opacity="0.75"/><circle cx="161.6" cy="42.3" r="1.12" fill="#dfe8ff" opacity="0.48"/><circle cx="896.0" cy="429.0" r="1.09" fill="#dfe8ff" opacity="0.55"/><circle cx="719.5" cy="589.5" r="0.81" fill="#dfe8ff" opacity="0.73"/><circle cx="898.6" cy="228.3" r="1.47" fill="#dfe8ff" opacity="0.36"/><circle cx="369.5" cy="795.3" r="1.83" fill="#dfe8ff" opacity="0.50"/><circle cx="372.1" cy="576.3" r="1.03" fill="#dfe8ff" opacity="0.54"/><circle cx="1178.7" cy="684.4" r="1.24" fill="#dfe8ff" opacity="0.47"/><circle cx="235.5" cy="491.5" r="1.59" fill="#dfe8ff" opacity="0.77"/><circle cx="273.8" cy="155.1" r="1.24" fill="#9fd4ff" opacity="0.37"/><circle cx="255.9" cy="153.8" r="0.60" fill="#9fd4ff" opacity="0.32"/><circle cx="151.2" cy="274.7" r="1.23" fill="#9fd4ff" opacity="0.28"/><circle cx="399.5" cy="680.7" r="2.02" fill="#9fd4ff" opacity="0.72"/><circle cx="955.0" cy="145.3" r="2.09" fill="#9fd4ff" opacity="0.44"/><circle cx="653.7" cy="178.1" r="1.70" fill="#9fd4ff" opacity="0.59"/><circle cx="194.2" cy="214.6" r="2.29" fill="#9fd4ff" opacity="0.80"/><circle cx="966.1" cy="184.5" r="1.47" fill="#9fd4ff" opacity="0.33"/><circle cx="853.2" cy="262.9" r="0.42" fill="#9fd4ff" opacity="0.36"/><circle cx="813.1" cy="557.8" r="2.76" fill="#9fd4ff" opacity="0.75"/><circle cx="790.4" cy="294.8" r="2.42" fill="#9fd4ff" opacity="0.73"/><circle cx="305.5" cy="23.8" r="2.44" fill="#9fd4ff" opacity="0.39"/><circle cx="558.7" cy="634.5" r="1.73" fill="#9fd4ff" opacity="0.44"/><circle cx="370.6" cy="755.7" r="1.47" fill="#9fd4ff" opacity="0.67"/><circle cx="1069.2" cy="799.9" r="1.08" fill="#9fd4ff" opacity="0.76"/><circle cx="179.1" cy="414.0" r="1.00" fill="#9fd4ff" opacity="0.80"/><circle cx="1156.9" cy="65.5" r="2.13" fill="#9fd4ff" opacity="0.48"/><circle cx="203.2" cy="91.0" r="1.40" fill="#9fd4ff" opacity="0.73"/><circle cx="440.6" cy="409.1" r="2.11" fill="#9fd4ff" opacity="0.59"/><circle cx="417.1" cy="642.1" r="2.96" fill="#9fd4ff" opacity="0.81"/><circle cx="3.6" cy="254.1" r="0.48" fill="#9fd4ff" opacity="0.54"/><circle cx="334.9" cy="415.9" r="0.69" fill="#9fd4ff" opacity="0.58"/><circle cx="647.6" cy="525.8" r="1.47" fill="#9fd4ff" opacity="0.74"/><circle cx="1106.3" cy="722.8" r="2.96" fill="#9fd4ff" opacity="0.49"/><circle cx="1178.7" cy="400.1" r="2.51" fill="#9fd4ff" opacity="0.83"/><circle cx="1010.1" cy="290.8" r="1.76" fill="#9fd4ff" opacity="0.56"/><g opacity="0.7"><line x1="322" y1="115" x2="526" y2="339" stroke="#7db5ff" stroke-width="2.4" stroke-linecap="round"/></g>
  <rect x="28" y="28" width="1144" height="744" fill="none" stroke="#ffffff" stroke-opacity="0.10" rx="10"/>
  <g stroke="#dfe8ff" stroke-opacity="0.55" stroke-width="2">
    <path d="M40 28 L28 28 L28 40"/><path d="M1160 28 L1172 28 L1172 40"/>
    <path d="M40 772 L28 772 L28 760"/><path d="M1160 772 L1172 772 L1172 760"/>
  </g>
  <text x="52" y="726" font-family="ui-monospace,Menlo,monospace" font-size="26" fill="#dfe8ff" fill-opacity="0.82" letter-spacing="1">NIGHT SKY // 夜空観測 #4</text>
  <text x="52" y="756" font-family="ui-monospace,Menlo,monospace" font-size="16" fill="#9fd4ff" fill-opacity="0.6" letter-spacing="2">observation log</text>
  <text x="1148" y="726" text-anchor="end" font-family="ui-monospace,Menlo,monospace" font-size="15" fill="#ffffff" fill-opacity="0.35">PLACEHOLDER · NO EXIF</text>
<rect width="1200" height="800" filter="url(#grain)" opacity="0.5"/>
</svg>