<svg xmlns="http://www.w3.org/2000/svg" viewBox="0 0 1200 800" width="1200" height="800" role="img">
<defs>
    <linearGradient id="bg" x1="0" y1="0" x2="1" y2="1">
      <stop offset="0" stop-color="#0a0f24"/>
      <stop offset="0.55" stop-color="#0c1330"/>
      <stop offset="1" stop-color="#0a1a2e"/>
    </linearGradient>
    <filter id="soft" x="-50%" y="-50%" width="200%" height="200%"><feGaussianBlur stdDeviation="60"/></filter>
    <filter id="grain"><feTurbulence type="fractalNoise" baseFrequency="0.9" numOctaves="2" stitchTiles="stitch"/><feColorMatrix type="saturate" values="0"/><feComponentTransfer><feFuncA type="linear" slope="0.05"/></feComponentTransfer><feComposite operator="over" in2="SourceGraphic"/></filter>
  </defs>
<rect width="1200" height="800" fill="url(#bg)"/>
<circle cx="598" cy="484" r="210" fill="#1a2b6b" opacity="0.33" filter="url(#soft)"/><circle cx="104" cy="666" r="229" fill="#1a2b6b" opacity="0.31" filter="url(#soft)"/><circle cx="379" cy="279" r="173" fill="#1a2b6b" opacity="0.19" filter="url(#soft)"/><circle cx="61.0" cy="283.7" r="2.03" fill="#dfe8ff" opacity="0.67"/><circle cx="706.0" cy="377.6" r="1.23" fill="#dfe8ff" opacity="0.35"/><circle cx="219.1" cy="399.6" r="0.92" fill="#dfe8ff" opacity="0.78"/><circle cx="433.3" cy="294.9" r="1.41" fill="#dfe8ff" opacity="0.52"/><circle cx="1022.9" cy="236.3" r="1.73" fill="#dfe8ff" opacity="0.69"/><circle cx="693.6" cy="348.5" r="1.42" fill="#dfe8ff" opacity="0.29"/><circle cx="658.5" cy="692.4" r="1.99" fill="#dfe8ff" opacity="0.52"/><circle cx="297.2" cy="473.2" r="1.35" fill="#dfe8ff" opacity="0.81"/><circle cx="114.4" cy="41.5" r="0.59" fill="#dfe8ff" opacity="0.84"/><circle cx="760.7" cy="22.0" r="0.57" fill="#dfe8ff" opacity="0.31"/><circle cx="248.1" cy="614.3" r="1.55" fill="#dfe8ff" opacity="0.36"/><circle cx="1018.2" cy="784.8" r="1.06" fill="#dfe8ff" opacity="0.26"/><circle cx="35.9" cy="95.3" r="1.90" fill="#dfe8ff" opacity="0.59"/><circle cx="300.3" cy="403.9" r="2.14" fill="#dfe8ff" opacity="0.62"/><circle cx="522.9" cy="46.6" r="2.12" fill="#dfe8ff" opacity="0.62"/><circle cx="753.6" cy="640.2" r="2.27" fill="#dfe8ff" opacity="0.57"/><circle cx="1145.0" cy="544.6" r="1.17" fill="#dfe8ff" opacity="0.70"/><circle cx="877.1" cy="442.0" r="2.20" fill="#dfe8ff" opacity="0.26"/><circle cx="751.5" cy="337.1" r="0.80" fill="#dfe8ff" opacity="0.60"/><circle cx="886.1" cy="571.7" r="1.47" fill="#dfe8ff" opacity="0.25"/><circle cx="1055.6" cy="161.0" r="1.12" fill="#dfe8ff" opacity="0.72"/><circle cx="471.0" cy="489.3" r="0.48" fill="#dfe8ff" opacity="0.74"/><circle cx="1177.0" cy="24.3" r="1.29" fill="#dfe8ff" opacity="0.57"/><circle cx="203.1" cy="501.2" r="2.07" fill="#dfe8ff" opacity="0.27"/><circle cx="723.7" cy="372.6" r="1.82" fill="#dfe8ff" opacity="0.33"/><circle cx="107.7" cy="354.3" r="0.67" fill="#dfe8ff" opacity="0.83"/><circle cx="612.0" cy="581.5" r="1.72" fill="#dfe8ff" opacity="0.81"/><circle cx="470.5" cy="410.0" r="0.65" fill="#dfe8ff" opacity="0.75"/><circle cx="545.9" cy="445.1" r="2.00" fill="#dfe8ff" opacity="0.79"/><circle cx="895.6" cy="264.9" r="0.76" fill="#dfe8ff" opacity="0.38"/><circle cx="223.7" cy="221.1" r="1.26" fill="#dfe8ff" opacity="0.71"/><circle cx="21.2" cy="723.6" r="1.76" fill="#dfe8ff" opacity="0.61"/><circle cx="814.0" cy="556.1" r="1.31" fill="#dfe8ff" opacity="0.52"/><circle cx="246.7" cy="48.4" r="1.14" fill="#dfe8ff" opacity="0.45"/><circle cx="1101.9" cy="559.4" r="1.42" fill="#dfe8ff" opacity="0.59"/><circle cx="633.1" cy="423.9" r="0.51" fill="#dfe8ff" opacity="0.80"/><circle cx="257.6" cy="791.1" r="0.50" fill="#dfe8ff" opacity="0.52"/><circle cx="214.1" cy="33.4" r="1.38" fill="#dfe8ff" opacity="0.70"/><circle cx="35.8" cy="594.9" r="2.28" fill="#dfe8ff" opacity="0.65"/><circle cx="551.2" cy="69.9" r="2.24" fill="#dfe8ff" opacity="0.83"/><circle cx="780.3" cy="327.3" r="1.00" fill="#dfe8ff" opacity="0.59"/><circle cx="991.2" cy="429.7" r="1.93" fill="#dfe8ff" opacity="0.69"/><circle cx="142.7" cy="35.0" r="1.64" fill="#dfe8ff" opacity="0.54"/><circle cx="475.9" cy="684.2" r="1.98" fill="#dfe8ff" opacity="0.43"/><circle cx="825.0" cy="671.0" r="1.32" fill="#dfe8ff" opacity="0.84"/><circle cx="91.5" cy="617.4" r="0.68" fill="#dfe8ff" opacity="0.80"/><circle cx="673.0" cy="199.5" r="0.82" fill="#dfe8ff" opacity="0.84"/><circle cx="767.1" cy="206.3" r="2.13" fill="#dfe8ff" opacity="0.55"/><circle cx="996.0" cy="619.6" r="1.31" fill="#dfe8ff" opacity="0.46"/><circle cx="554.5" cy="142.2" r="1.45" fill="#dfe8ff" opacity="0.63"/><circle cx="82.4" cy="125.7" r="2.28" fill="#dfe8ff" opacity="0.29"/><circle cx="907.9" cy="124.4" r="1.02" fill="#dfe8ff" opacity="0.58"/><circle cx="255.6" cy="722.9" r="1.60" fill="#dfe8ff" opacity="0.33"/><circle cx="643.7" cy="352.8" r="0.88" fill="#dfe8ff" opacity="0.43"/><circle cx="834.8" cy="318.4" r="2.12" fill="#dfe8ff" opacity="0.71"/><circle cx="451.0" cy="296.0" r="1.93" fill="#dfe8ff" opacity="0.43"/><circle cx="1055.2" cy="293.4" r="0.96" fill="#dfe8ff" opacity="0.81"/><circle cx="243.6" cy="575.7" r="1.38" fill="#dfe8ff" opacity="0.41"/><circle cx="1086.8" cy="693.8" r="1.40" fill="#dfe8ff" opacity="0.58"/><circle cx="89.5" cy="164.3" r="1.99" fill="#dfe8ff" opacity="0.74"/><circle cx="687.3" cy="19.3" r="0.93" fill="#dfe8ff" opacity="0.61"/><circle cx="649.4" cy="635.8" r="1.03" fill="#dfe8ff" opacity="0.58"/><circle cx="668.3" cy="618.9" r="0.68" fill="#dfe8ff" opacity="0.81"/><circle cx="154.1" cy="249.8" r="1.05" fill="#dfe8ff" opacity="0.76"/><circle cx="333.7" cy="157.4" r="0.92" fill="#dfe8ff" opacity="0.50"/><circle cx="1174.3" cy="197.0" r="1.46" fill="#dfe8ff" opacity="0.65"/><circle cx="81.9" cy="167.2" r="1.35" fill="#dfe8ff" opacity="0.46"/><circle cx="1050.3" cy="1.5" r="1.29" fill="#dfe8ff" opacity="0.48"/><circle cx="856.4" cy="707.6" r="0.89" fill="#dfe8ff" opacity="0.80"/><circle cx="542.0" cy="373.0" r="1.51" fill="#dfe8ff" opacity="0.70"/><circle cx="124.8" cy="420.8" r="2.23" fill="#dfe8ff" opacity="0.84"/><circle cx="189.6" cy="620.2" r="0.83" fill="#dfe8ff" opacity="0.84"/><circle cx="185.6" cy="601.3" r="2.29" fill="#dfe8ff" opacity="0.57"/><circle cx="280.7" cy="516.6" r="1.37" fill="#dfe8ff" opacity="0.54"/><circle cx="182.8" cy="462.4" r="0.44" fill="#dfe8ff" opacity="0.59"/><circle cx="885.8" cy="624.0" r="1.96" fill="#dfe8ff" opacity="0.66"/><circle cx="747.9" cy="396.7" r="0.50" fill="#dfe8ff" opacity="0.37"/><circle cx="766.0" cy="598.5" r="0.50" fill="#dfe8ff" opacity="0.60"/><circle cx="683.4" cy="18.3" r="0.86" fill="#dfe8ff" opacity="0.27"/><circle cx="644.1" cy="112.5" r="0.72" fill="#dfe8ff" opacity="0.47"/><circle cx="948.6" cy="413.0" r="1.74" fill="#dfe8ff" opacity="0.75"/><circle cx="829.5" cy="214.4" r="2.24" fill="#dfe8ff" opacity="0.60"/><circle cx="363.1" cy="241.4" r="1.42" fill="#dfe8ff" opacity="0.41"/><circle cx="39.5" cy="556.2" r="1.56" fill="#dfe8ff" opacity="0.73"/><circle cx="1008.5" cy="542.8" r="2.12" fill="#dfe8ff" opacity="0.45"/><circle cx="1112.8" cy="429.0" r="1.85" fill="#dfe8ff" opacity="0.37"/><circle cx="1074.2" cy="449.0" r="1.21" fill="#dfe8ff" opacity="0.42"/><circle cx="632.8" cy="215.7" r="1.17" fill="#dfe8ff" opacity="0.84"/><circle cx="916.1" cy="379.7" r="0.84" fill="#dfe8ff" opacity="0.84"/><circle cx="382.8" cy="1.8" r="1.59" fill="#dfe8ff" opacity="0.35"/><circle cx="162.5" cy="238.9" r="1.41" fill="#dfe8ff" opacity="0.28"/><circle cx="990.7" cy="762.0" r="2.14" fill="#dfe8ff" opacity="0.40"/><circle cx="209.8" cy="669.2" r="2.29" fill="#dfe8ff" opacity="0.79"/><circle cx="649.8" cy="651.9" r="1.24" fill="#dfe8ff" opacity="0.78"/><circle cx="622.6" cy="356.1" r="1.94" fill="#dfe8ff" opacity="0.51"/><circle cx="502.2" cy="359.6" r="1.80" fill="#dfe8ff" opacity="0.63"/><circle cx="151.4" cy="359.8" r="2.22" fill="#dfe8ff" opacity="0.42"/><circle cx="773.1" cy="572.2" r="0.84" fill="#dfe8ff" opacity="0.37"/><circle cx="548.6" cy="600.8" r="1.76" fill="#dfe8ff" opacity="0.56"/><circle cx="689.4" cy="258.5" r="1.25" fill="#dfe8ff" opacity="0.58"/><circle cx="60.9" cy="731.0" r="0.51" fill="#dfe8ff" opacity="0.67"/><circle cx="1195.1" cy="290.9" r="2.27" fill="#dfe8ff" opacity="0.43"/><circle cx="192.2" cy="433.6" r="1.60" fill="#dfe8ff" opacity="0.61"/><circle cx="793.1" cy="192.1" r="0.98" fill="#dfe8ff" opacity="0.40"/><circle cx="625.2" cy="185.1" r="1.43" fill="#dfe8ff" opacity="0.59"/><circle cx="767.9" cy="652.0" r="0.68" fill="#dfe8ff" opacity="0.40"/><circle cx="947.2" cy="625.6" r="1.66" fill="#dfe8ff" opacity="0.42"/><circle cx="116.2" cy="105.4" r="1.90" fill="#dfe8ff" opacity="0.34"/><circle cx="773.7" cy="410.8" r="2.06" fill="#dfe8ff" opacity="0.45"/><circle cx="894.4" cy="545.6" r="0.46" fill="#dfe8ff" opacity="0.72"/><circle cx="1086.1" cy="238.6" r="1.42" fill="#dfe8ff" opacity="0.31"/><circle cx="900.2" cy="119.1" r="1.48" fill="#dfe8ff" opacity="0.61"/><circle cx="1140.1" cy="757.8" r="1.78" fill="#dfe8ff" opacity="0.61"/><circle cx="370.7" cy="337.0" r="1.63" fill="#dfe8ff" opacity="0.45"/><circle cx="1100.1" cy="568.7" r="1.81" fill="#dfe8ff" opacity="0.32"/><circle cx="293.0" cy="55.3" r="1.29" fill="#dfe8ff" opacity="0.77"/><circle cx="6.7" cy="242.0" r="1.33" fill="#dfe8ff" opacity="0.53"/><circle cx="861.4" cy="587.5" r="0.48" fill="#dfe8ff" opacity="0.28"/><circle cx="1167.7" cy="361.1" r="0.92" fill="#dfe8ff" opacity="0.34"/><circle cx="44.8" cy="228.6" r="2.19" fill="#dfe8ff" opacity="0.26"/><circle cx="519.3" cy="164.3" r="1.98" fill="#dfe8ff" opacity="0.70"/><circle cx="504.8" cy="353.5" r="0.55" fill="#dfe8ff" opacity="0.27"/><circle cx="909.4" cy="317.1" r="0.60" fill="#dfe8ff" opacity="0.36"/><circle cx="768.3" cy="292.6" r="1.62" fill="#dfe8ff" opacity="0.77"/><circle cx="918.3" cy="478.0" r="0.99" fill="#dfe8ff" opacity="0.31"/><circle cx="445.6" cy="634.9" r="0.94" fill="#dfe8ff" opacity="0.58"/><circle cx="960.5" cy="252.5" r="0.62" fill="#dfe8ff" opacity="0.82"/><circle cx="450.9" cy="372.4" r="1.73" fill="#dfe8ff" opacity="0.83"/><circle cx="654.1" cy="488.2" r="1.54" fill="#dfe8ff" opacity="0.47"/><circle cx="949.5" cy="611.2" r="1.18" fill="#dfe8ff" opacity="0.43"/><circle cx="833.6" cy="50.6" r="1.16" fill="#dfe8ff" opacity="0.26"/><circle cx="852.3" cy="88.3" r="1.71" fill="#dfe8ff" opacity="0.61"/><circle cx="39.6" cy="777.7" r="1.41" fill="#dfe8ff" opacity="0.38"/><circle cx="428.9" cy="255.3" r="0.74" fill="#dfe8ff" opacity="0.78"/><circle cx="769.6" cy="419.5" r="1.05" fill="#dfe8ff" opacity="0.36"/><circle cx="1043.3" cy="679.3" r="1.33" fill="#dfe8ff" opacity="0.74"/><circle cx="461.7" cy="449.9" r="0.83" fill="#dfe8ff" opacity="0.83"/><circle cx="1079.3" cy="8.1" r="1.31" fill="#dfe8ff" opacity="0.82"/><circle cx="345.5" cy="582.2" r="1.77" fill="#dfe8ff" opacity="0.81"/><circle cx="274.1" cy="551.0" r="1.26" fill="#dfe8ff" opacity="0.75"/><circle cx="176.0" cy="217.1" r="1.53" fill="#dfe8ff" opacity="0.30"/><circle cx="1023.6" cy="573.3" r="1.90" fill="#dfe8ff" opacity="0.82"/><circle cx="551.0" cy="268.9" r="1.02" fill="#dfe8ff" opacity="0.80"/><circle cx="499.3" cy="584.9" r="2.29" fill="#dfe8ff" opacity="0.77"/><circle cx="9.2" cy="182.6" r="1.17" fill="#dfe8ff" opacity="0.41"/><circle cx="840.0" cy="126.9" r="0.54" fill="#dfe8ff" opacity="0.59"/><circle cx="149.9" cy="759.7" r="1.82" fill="#dfe8ff" opacity="0.62"/><circle cx="1095.2" cy="290.4" r="0.59" fill="#dfe8ff" opacity="0.35"/><circle cx="466.6" cy="58.6" r="0.88" fill="#dfe8ff" opacity="0.45"/><circle cx="131.5" cy="694.0" r="1.87" fill="#dfe8ff" opacity="0.78"/><circle cx="785.1" cy="594.1" r="0.65" fill="#dfe8ff" opacity="0.52"/><circle cx="999.5" cy="348.6" r="0.63" fill="#dfe8ff" opacity="0.79"/><circle cx="511.4" cy="26.1" r="2.22" fill="#dfe8ff" opacity="0.82"/><circle cx="629.8" cy="255.4" r="0.50" fill="#dfe8ff" opacity="0.47"/><circle cx="866.2" cy="339.5" r="0.80" fill="#dfe8ff" opacity="0.66"/><circle cx="644.7" cy="673.1" r="2.13" fill="#dfe8ff" opacity="0.72"/><circle cx="683.2" cy="264.4" r="1.43" fill="#dfe8ff" opacity="0.34"/><circle cx="650.4" cy="714.5" r="1.07" fill="#dfe8ff" opacity="0.35"/><circle cx="431.9" cy="273.0" r="0.43" fill="#dfe8ff" opacity="0.51"/><circle cx="397.1" cy="393.7" r="0.88" fill="#dfe8ff" opacity="0.59"/><circle cx="251.5" cy="762.1" r="1.02" fill="#dfe8ff" opacity="0.48"/><circle cx="1187.2" cy="645.2" r="1.66" fill="#dfe8ff" opacity="0.25"/><circle cx="981.7" cy="387.9" r="1.86" fill="#dfe8ff" opacity="0.62"/><circle cx="20.8" cy="299.5" r="1.07" fill="#dfe8ff" opacity="0.55"/><circle cx="1050.8" cy="527.1" r="2.00" fill="#dfe8ff" opacity="0.54"/><circle cx="109.7" cy="325.6" r="0.82" fill="#dfe8ff" opacity="0.57"/><circle cx="73.6" cy="663.3" r="1.96" fill="#dfe8ff" opacity="0.49"/><circle cx="760.6" cy="450.1" r="2.15" fill="#dfe8ff" opacity="0.59"/><circle cx="690.5" cy="110.9" r="2.06" fill="#dfe8ff" opacity="0.79"/><circle cx="1040.9" cy="741.4" r="0.71" fill="#dfe8ff" opacity="0.53"/><circle cx="675.2" cy="39.6" r="1.42" fill="#dfe8ff" opacity="0.71"/><circle cx="412.7" cy="579.4" r="0.63" fill="#dfe8ff" opacity="0.33"/><circle cx="407.7" cy="266.9" r="0.99" fill="#dfe8ff" opacity="0.80"/><circle cx="138.6" cy="174.7" r="1.15" fill="#dfe8ff" opacity="0.83"/><circle cx="1046.9" cy="438.7" r="0.76" fill="#dfe8ff" opacity="0.72"/><circle cx="501.7" cy="466.5" r="2.19" fill="#dfe8ff" opacity="0.32"/><circle cx="930.2" cy="513.7" r="1.07" fill="#dfe8ff" opacity="0.72"/><circle cx="113.2" cy="643.0" r="1.00" fill="#dfe8ff" opacity="0.81"/><circle cx="946.5" cy="227.3" r="1.18" fill="#dfe8ff" opacity="0.78"/><circle cx="116.6" cy="482.4" r="1.14" fill="#dfe8ff" opacity="0.45"/><circle cx="564.0" cy="689.3" r="1.36" fill="#9fd4ff" opacity="0.55"/><circle cx="833.7" cy="128.1" r="0.46" fill="#9fd4ff" opacity="0.66"/><circle cx="567.0" cy="268.0" r="2.04" fill="#9fd4ff" opacity="0.74"/><circle cx="197.4" cy="563.3" r="1.26" fill="#9fd4ff" opacity="0.69"/><circle cx="1026.9" cy="613.6" r="2.29" fill="#9fd4ff" opacity="0.26"/><circle cx="279.8" cy="99.5" r="1.31" fill="#9fd4ff" opacity="0.43"/><circle cx="1088.0" cy="179.5" r="1.95" fill="#9fd4ff" opacity="0.40"/><circle cx="706.7" cy="99.7" r="2.36" fill="#9fd4ff" opacity="0.35"/><circle cx="465.6" cy="346.9" r="2.46" fill="#9fd4ff" opacity="0.82"/><circle cx="1020.4" cy="746.7" r="1.61" fill="#9fd4ff" opacity="0.70"/><circle cx="131.2" cy="597.8" r="0.54" fill="#9fd4ff" opacity="0.52"/><circle cx="5.8" cy="660.7" r="0.84" fill="#9fd4ff" opacity="0.32"/><circle cx="80.0" cy="15.2" r="0.91" fill="#9fd4ff" opacity="0.68"/><circle cx="682.9" cy="371.7" r="0.77" fill="#9fd4ff" opacity="0.62"/><circle cx="381.7" cy="590.9" r="0.77" fill="#9fd4ff" opacity="0.38"/><circle cx="744.9" cy="77.0" r="1.53" fill="#9fd4ff" opacity="0.43"/><circle cx="110.3" cy="692.7" r="0.72" fill="#9fd4ff" opacity="0.78"/><circle cx="27.2" cy="200.5" r="2.06" fill="#9fd4ff" opacity="0.65"/><circle cx="577.6" cy="215.2" r="0.84" fill="#9fd4ff" opacity="0.49"/><circle cx="162.6" cy="61.0" r="0.51" fill="#9fd4ff" opacity="0.73"/><circle cx="221.6" cy="500.6" r="1.69" fill="#9fd4ff" opacity="0.36"/><circle cx="827.7" cy="160.7" r="1.51" fill="#9fd4ff" opacity="0.31"/><circle cx="795.9" cy="284.9" r="1.71" fill="#9fd4ff" opacity="0.80"/><circle cx="210.5" cy="121.7" r="1.71" fill="#9fd4ff" opacity="0.28"/><circle cx="695.9" cy="763.3" r="1.46" fill="#9fd4ff" opacity="0.49"/><circle cx="180.3" cy="758.7" r="0.75" fill="#9fd4ff" opacity="0.56"/><g opacity="0.7"><line x1="503" y1="166" x2="491" y2="286" stroke="#7db5ff" stroke-width="2.4" stroke-linecap="round"/></g>
  <rect x="28" y="28" width="1144" height="744" fill="none" stroke="#ffffff" stroke-opacity="0.10" rx="10"/>
  <g stroke="#dfe8ff" stroke-opacity="0.55" stroke-width="2">
    <path d="M40 28 L28 28 L28 40"/><path d="M1160 28 L1172 28 L1172 40"/>
    <path d="M40 772 L28 772 L28 760"/><path d="M1160 772 L1172 772 L1172 760"/>
  </g>
  <text x="52" y="726" font-family="ui-monospace,Menlo,monospace" font-size="26" fill="#dfe8ff" fill-opacity="0.82" letter-spacing="1">NIGHT SKY // 夜空観測 #2</text>
  <text x="52" y="756" font-family="ui-monospace,Menlo,monospace" font-size="16" fill="#9fd4ff" fill-opacity="0.6" letter-spacing="2">observation log</text>
  <text x="1148" y="726" text-anchor="end" font-family="ui-monospace,Menlo,monospace" font-size="15" fill="#ffffff" fill-opacity="0.35">PLACEHOLDER · NO EXIF</text>
<rect width="1200" height="800" filter="url(#grain)" opacity="0.5"/>
</svg>