<svg xmlns="http://www.w3.org/2000/svg" viewBox="0 0 1200 800" width="1200" height="800" role="img">
<defs>
    <linearGradient id="bg" x1="0" y1="0" x2="1" y2="1">
      <stop offset="0" stop-color="#0a0f24"/>
      <stop offset="0.55" stop-color="#0c1330"/>
      <stop offset="1" stop-color="#0a1a2e"/>
    </linearGradient>
    <filter id="soft" x="-50%" y="-50%" width="200%" height="200%"><feGaussianBlur stdDeviation="60"/></filter>
    <filter id="grain"><feTurbulence type="fractalNoise" baseFrequency="0.9" numOctaves="2" stitchTiles="stitch"/><feColorMatrix type="saturate" values="0"/><feComponentTransfer><feFuncA type="linear" slope="0.05"/></feComponentTransfer><feComposite operator="over" in2="SourceGraphic"/></filter>
  </defs>
<rect width="1200" height="800" fill="url(#bg)"/>
<circle cx="649" cy="693" r="230" fill="#123a5a" opacity="0.36" filter="url(#soft)"/><circle cx="161" cy="256" r="366" fill="#1a2b6b" opacity="0.12" filter="url(#soft)"/><circle cx="1167" cy="795" r="163" fill="#1a2b6b" opacity="0.13" filter="url(#soft)"/><circle cx="413.3" cy="253.1" r="2.08" fill="#dfe8ff" opacity="0.59"/><circle cx="926.1" cy="786.1" r="0.74" fill="#dfe8ff" opacity="0.58"/><circle cx="817.8" cy="695.6" r="2.12" fill="#dfe8ff" opacity="0.26"/><circle cx="1181.8" cy="522.1" r="0.95" fill="#dfe8ff" opacity="0.78"/><circle cx="535.2" cy="460.0" r="1.09" fill="#dfe8ff" opacity="0.29"/><circle cx="592.6" cy="30.0" r="2.18" fill="#dfe8ff" opacity="0.56"/><circle cx="335.8" cy="613.5" r="1.95" fill="#dfe8ff" opacity="0.27"/><circle cx="84.1" cy="516.0" r="0.90" fill="#dfe8ff" opacity="0.47"/><circle cx="958.4" cy="110.4" r="1.30" fill="#dfe8ff" opacity="0.52"/><circle cx="1081.2" cy="587.7" r="2.23" fill="#dfe8ff" opacity="0.39"/><circle cx="1019.2" cy="303.8" r="0.94" fill="#dfe8ff" opacity="0.81"/><circle cx="1031.5" cy="329.9" r="1.16" fill="#dfe8ff" opacity="0.38"/><circle cx="151.9" cy="394.9" r="0.90" fill="#dfe8ff" opacity="0.28"/><circle cx="1120.7" cy="163.5" r="0.57" fill="#dfe8ff" opacity="0.32"/><circle cx="791.7" cy="189.3" r="1.43" fill="#dfe8ff" opacity="0.79"/><circle cx="458.0" cy="109.1" r="1.20" fill="#dfe8ff" opacity="0.70"/><circle cx="632.8" cy="649.0" r="2.21" fill="#dfe8ff" opacity="0.61"/><circle cx="77.9" cy="453.7" r="2.02" fill="#dfe8ff" opacity="0.58"/><circle cx="148.0" cy="228.4" r="1.62" fill="#dfe8ff" opacity="0.36"/><circle cx="917.0" cy="370.0" r="2.04" fill="#dfe8ff" opacity="0.66"/><circle cx="893.7" cy="451.5" r="2.29" fill="#dfe8ff" opacity="0.83"/><circle cx="141.9" cy="106.8" r="2.01" fill="#dfe8ff" opacity="0.42"/><circle cx="907.9" cy="71.6" r="0.83" fill="#dfe8ff" opacity="0.60"/><circle cx="150.5" cy="402.8" r="1.18" fill="#dfe8ff" opacity="0.36"/><circle cx="13.0" cy="747.7" r="0.58" fill="#dfe8ff" opacity="0.42"/><circle cx="353.0" cy="93.6" r="1.92" fill="#dfe8ff" opacity="0.37"/><circle cx="638.1" cy="438.9" r="1.99" fill="#dfe8ff" opacity="0.43"/><circle cx="477.1" cy="511.2" r="0.69" fill="#dfe8ff" opacity="0.30"/><circle cx="49.5" cy="105.1" r="1.92" fill="#dfe8ff" opacity="0.41"/><circle cx="827.6" cy="344.1" r="1.79" fill="#dfe8ff" opacity="0.56"/><circle cx="517.5" cy="205.4" r="0.84" fill="#dfe8ff" opacity="0.79"/><circle cx="1020.4" cy="563.7" r="1.80" fill="#dfe8ff" opacity="0.69"/><circle cx="884.8" cy="332.2" r="0.68" fill="#dfe8ff" opacity="0.36"/><circle cx="15.7" cy="765.1" r="1.30" fill="#dfe8ff" opacity="0.72"/><circle cx="208.0" cy="331.5" r="1.34" fill="#dfe8ff" opacity="0.53"/><circle cx="929.6" cy="524.8" r="0.48" fill="#dfe8ff" opacity="0.70"/><circle cx="308.7" cy="489.6" r="0.69" fill="#dfe8ff" opacity="0.65"/><circle cx="319.2" cy="287.0" r="1.71" fill="#dfe8ff" opacity="0.76"/><circle cx="554.1" cy="329.5" r="0.48" fill="#dfe8ff" opacity="0.63"/><circle cx="213.9" cy="186.4" r="2.03" fill="#dfe8ff" opacity="0.76"/><circle cx="717.4" cy="205.2" r="2.09" fill="#dfe8ff" opacity="0.57"/><circle cx="348.5" cy="173.1" r="2.16" fill="#dfe8ff" opacity="0.40"/><circle cx="1185.0" cy="462.5" r="2.02" fill="#dfe8ff" opacity="0.64"/><circle cx="1182.0" cy="9.4" r="2.18" fill="#dfe8ff" opacity="0.61"/><circle cx="356.3" cy="750.8" r="0.89" fill="#dfe8ff" opacity="0.29"/><circle cx="1190.3" cy="33.9" r="0.47" fill="#dfe8ff" opacity="0.77"/><circle cx="702.1" cy="556.9" r="1.37" fill="#dfe8ff" opacity="0.51"/><circle cx="143.0" cy="472.5" r="0.64" fill="#dfe8ff" opacity="0.40"/><circle cx="1157.0" cy="372.9" r="1.68" fill="#dfe8ff" opacity="0.34"/><circle cx="608.1" cy="319.9" r="2.13" fill="#dfe8ff" opacity="0.45"/><circle cx="880.2" cy="744.2" r="0.87" fill="#dfe8ff" opacity="0.62"/><circle cx="179.8" cy="45.6" r="1.81" fill="#dfe8ff" opacity="0.50"/><circle cx="773.6" cy="63.6" r="1.66" fill="#dfe8ff" opacity="0.40"/><circle cx="254.0" cy="521.8" r="2.09" fill="#dfe8ff" opacity="0.31"/><circle cx="957.5" cy="85.8" r="1.09" fill="#dfe8ff" opacity="0.74"/><circle cx="455.7" cy="281.1" r="1.26" fill="#dfe8ff" opacity="0.60"/><circle cx="176.6" cy="502.3" r="2.26" fill="#dfe8ff" opacity="0.33"/><circle cx="274.9" cy="386.0" r="0.86" fill="#dfe8ff" opacity="0.37"/><circle cx="1082.2" cy="82.7" r="1.07" fill="#dfe8ff" opacity="0.56"/><circle cx="762.8" cy="710.9" r="1.71" fill="#dfe8ff" opacity="0.68"/><circle cx="216.5" cy="612.5" r="1.37" fill="#dfe8ff" opacity="0.55"/><circle cx="781.1" cy="281.3" r="1.95" fill="#dfe8ff" opacity="0.83"/><circle cx="8.0" cy="746.7" r="1.66" fill="#dfe8ff" opacity="0.52"/><circle cx="1059.5" cy="509.2" r="1.97" fill="#dfe8ff" opacity="0.67"/><circle cx="701.9" cy="669.4" r="1.45" fill="#dfe8ff" opacity="0.48"/><circle cx="947.9" cy="332.6" r="2.12" fill="#dfe8ff" opacity="0.33"/><circle cx="191.6" cy="679.2" r="2.10" fill="#dfe8ff" opacity="0.73"/><circle cx="57.5" cy="719.2" r="2.28" fill="#dfe8ff" opacity="0.58"/><circle cx="660.7" cy="393.1" r="1.07" fill="#dfe8ff" opacity="0.42"/><circle cx="235.1" cy="783.8" r="1.35" fill="#dfe8ff" opacity="0.40"/><circle cx="903.2" cy="626.4" r="1.47" fill="#dfe8ff" opacity="0.47"/><circle cx="278.5" cy="294.9" r="1.21" fill="#dfe8ff" opacity="0.83"/><circle cx="324.2" cy="438.7" r="0.65" fill="#dfe8ff" opacity="0.32"/><circle cx="43.3" cy="616.8" r="1.32" fill="#dfe8ff" opacity="0.66"/><circle cx="663.5" cy="479.1" r="2.09" fill="#dfe8ff" opacity="0.78"/><circle cx="655.0" cy="682.7" r="2.01" fill="#dfe8ff" opacity="0.55"/><circle cx="109.9" cy="71.6" r="2.18" fill="#dfe8ff" opacity="0.71"/><circle cx="826.0" cy="388.5" r="1.47" fill="#dfe8ff" opacity="0.31"/><circle cx="1078.2" cy="81.1" r="0.86" fill="#dfe8ff" opacity="0.51"/><circle cx="151.6" cy="113.2" r="0.73" fill="#dfe8ff" opacity="0.26"/><circle cx="925.3" cy="223.0" r="1.30" fill="#dfe8ff" opacity="0.61"/><circle cx="1136.2" cy="144.1" r="1.75" fill="#dfe8ff" opacity="0.54"/><circle cx="360.1" cy="86.5" r="2.06" fill="#dfe8ff" opacity="0.53"/><circle cx="864.0" cy="636.2" r="1.48" fill="#dfe8ff" opacity="0.34"/><circle cx="764.9" cy="193.4" r="1.81" fill="#dfe8ff" opacity="0.60"/><circle cx="407.0" cy="620.7" r="0.60" fill="#dfe8ff" opacity="0.61"/><circle cx="855.0" cy="44.6" r="0.68" fill="#dfe8ff" opacity="0.53"/><circle cx="137.7" cy="578.2" r="0.76" fill="#dfe8ff" opacity="0.36"/><circle cx="621.0" cy="15.6" r="2.26" fill="#dfe8ff" opacity="0.57"/><circle cx="189.2" cy="625.2" r="0.54" fill="#dfe8ff" opacity="0.36"/><circle cx="606.6" cy="359.9" r="0.76" fill="#dfe8ff" opacity="0.34"/><circle cx="107.2" cy="309.0" r="2.12" fill="#dfe8ff" opacity="0.67"/><circle cx="584.2" cy="20.9" r="1.22" fill="#dfe8ff" opacity="0.72"/><circle cx="380.8" cy="520.9" r="1.14" fill="#dfe8ff" opacity="0.39"/><circle cx="396.2" cy="372.1" r="1.77" fill="#dfe8ff" opacity="0.26"/><circle cx="607.6" cy="761.9" r="1.81" fill="#dfe8ff" opacity="0.81"/><circle cx="65.6" cy="695.2" r="1.33" fill="#dfe8ff" opacity="0.38"/><circle cx="20.2" cy="297.6" r="2.03" fill="#dfe8ff" opacity="0.60"/><circle cx="1086.4" cy="767.3" r="1.84" fill="#dfe8ff" opacity="0.50"/><circle cx="320.9" cy="257.5" r="1.75" fill="#dfe8ff" opacity="0.38"/><circle cx="1191.6" cy="272.2" r="2.17" fill="#dfe8ff" opacity="0.40"/><circle cx="889.9" cy="219.1" r="0.41" fill="#dfe8ff" opacity="0.27"/><circle cx="746.9" cy="271.0" r="0.44" fill="#dfe8ff" opacity="0.37"/><circle cx="23.4" cy="745.8" r="2.23" fill="#dfe8ff" opacity="0.29"/><circle cx="736.1" cy="178.6" r="0.50" fill="#dfe8ff" opacity="0.52"/><circle cx="543.2" cy="786.1" r="0.64" fill="#dfe8ff" opacity="0.54"/><circle cx="1065.8" cy="445.1" r="1.58" fill="#dfe8ff" opacity="0.77"/><circle cx="441.6" cy="396.7" r="2.08" fill="#dfe8ff" opacity="0.74"/><circle cx="871.9" cy="112.2" r="1.28" fill="#dfe8ff" opacity="0.29"/><circle cx="345.5" cy="697.1" r="0.41" fill="#dfe8ff" opacity="0.72"/><circle cx="33.6" cy="670.6" r="0.91" fill="#dfe8ff" opacity="0.71"/><circle cx="1069.7" cy="177.9" r="0.97" fill="#dfe8ff" opacity="0.81"/><circle cx="733.1" cy="239.1" r="0.49" fill="#dfe8ff" opacity="0.42"/><circle cx="544.9" cy="775.2" r="0.95" fill="#dfe8ff" opacity="0.40"/><circle cx="62.3" cy="480.0" r="1.28" fill="#dfe8ff" opacity="0.51"/><circle cx="1192.8" cy="336.0" r="0.74" fill="#dfe8ff" opacity="0.68"/><circle cx="319.3" cy="274.8" r="1.61" fill="#dfe8ff" opacity="0.81"/><circle cx="553.7" cy="25.9" r="1.55" fill="#dfe8ff" opacity="0.65"/><circle cx="173.8" cy="309.8" r="1.98" fill="#dfe8ff" opacity="0.69"/><circle cx="248.7" cy="479.7" r="1.32" fill="#dfe8ff" opacity="0.68"/><circle cx="350.1" cy="26.8" r="1.55" fill="#dfe8ff" opacity="0.71"/><circle cx="883.7" cy="14.1" r="1.43" fill="#dfe8ff" opacity="0.35"/><circle cx="588.5" cy="550.9" r="0.49" fill="#dfe8ff" opacity="0.44"/><circle cx="276.7" cy="317.1" r="1.67" fill="#dfe8ff" opacity="0.38"/><circle cx="97.5" cy="775.8" r="1.78" fill="#dfe8ff" opacity="0.82"/><circle cx="1005.1" cy="793.4" r="0.53" fill="#dfe8ff" opacity="0.49"/><circle cx="61.4" cy="557.6" r="2.00" fill="#dfe8ff" opacity="0.54"/><circle cx="868.4" cy="586.5" r="1.20" fill="#dfe8ff" opacity="0.30"/><circle cx="1062.9" cy="507.6" r="1.84" fill="#dfe8ff" opacity="0.70"/><circle cx="259.5" cy="79.2" r="1.31" fill="#dfe8ff" opacity="0.40"/><circle cx="827.0" cy="161.6" r="1.75" fill="#dfe8ff" opacity="0.62"/><circle cx="137.2" cy="82.8" r="0.64" fill="#dfe8ff" opacity="0.54"/><circle cx="1097.6" cy="651.0" r="0.60" fill="#dfe8ff" opacity="0.78"/><circle cx="683.4" cy="25.0" r="2.05" fill="#dfe8ff" opacity="0.83"/><circle cx="135.0" cy="392.9" r="1.40" fill="#dfe8ff" opacity="0.44"/><circle cx="1186.4" cy="728.9" r="1.12" fill="#dfe8ff" opacity="0.75"/><circle cx="403.1" cy="43.5" r="0.88" fill="#dfe8ff" opacity="0.65"/><circle cx="1079.2" cy="180.4" r="2.29" fill="#dfe8ff" opacity="0.41"/><circle cx="493.2" cy="432.0" r="0.86" fill="#dfe8ff" opacity="0.49"/><circle cx="589.0" cy="517.7" r="0.60" fill="#dfe8ff" opacity="0.72"/><circle cx="821.3" cy="95.3" r="0.69" fill="#dfe8ff" opacity="0.84"/><circle cx="72.4" cy="253.9" r="1.71" fill="#dfe8ff" opacity="0.36"/><circle cx="525.9" cy="588.0" r="0.83" fill="#dfe8ff" opacity="0.40"/><circle cx="654.4" cy="421.6" r="2.06" fill="#dfe8ff" opacity="0.48"/><circle cx="883.2" cy="596.5" r="1.25" fill="#dfe8ff" opacity="0.52"/><circle cx="517.9" cy="645.4" r="0.48" fill="#dfe8ff" opacity="0.82"/><circle cx="1163.0" cy="640.9" r="0.96" fill="#dfe8ff" opacity="0.73"/><circle cx="921.7" cy="535.6" r="1.28" fill="#dfe8ff" opacity="0.69"/><circle cx="885.9" cy="290.3" r="0.69" fill="#dfe8ff" opacity="0.61"/><circle cx="569.2" cy="143.5" r="2.04" fill="#dfe8ff" opacity="0.71"/><circle cx="657.8" cy="92.9" r="1.36" fill="#dfe8ff" opacity="0.81"/><circle cx="651.3" cy="776.7" r="1.55" fill="#dfe8ff" opacity="0.28"/><circle cx="615.6" cy="8.6" r="1.70" fill="#dfe8ff" opacity="0.47"/><circle cx="554.2" cy="650.0" r="2.17" fill="#dfe8ff" opacity="0.71"/><circle cx="1131.1" cy="379.6" r="1.44" fill="#dfe8ff" opacity="0.27"/><circle cx="1038.2" cy="106.4" r="0.77" fill="#dfe8ff" opacity="0.36"/><circle cx="1118.7" cy="285.1" r="2.08" fill="#dfe8ff" opacity="0.40"/><circle cx="155.6" cy="423.8" r="0.46" fill="#dfe8ff" opacity="0.49"/><circle cx="466.9" cy="2.8" r="1.89" fill="#dfe8ff" opacity="0.28"/><circle cx="139.3" cy="566.5" r="2.07" fill="#dfe8ff" opacity="0.83"/><circle cx="713.1" cy="195.1" r="2.27" fill="#dfe8ff" opacity="0.53"/><circle cx="680.3" cy="441.2" r="1.62" fill="#dfe8ff" opacity="0.79"/><circle cx="378.9" cy="409.7" r="1.40" fill="#dfe8ff" opacity="0.70"/><circle cx="75.2" cy="774.2" r="1.81" fill="#dfe8ff" opacity="0.59"/><circle cx="1036.1" cy="482.9" r="0.59" fill="#dfe8ff" opacity="0.65"/><circle cx="647.4" cy="238.4" r="1.18" fill="#dfe8ff" opacity="0.28"/><circle cx="1139.1" cy="13.8" r="0.80" fill="#dfe8ff" opacity="0.47"/><circle cx="508.0" cy="759.0" r="1.44" fill="#dfe8ff" opacity="0.40"/><circle cx="1068.9" cy="651.9" r="0.52" fill="#dfe8ff" opacity="0.37"/><circle cx="419.4" cy="443.1" r="2.17" fill="#dfe8ff" opacity="0.39"/><circle cx="972.3" cy="281.4" r="1.16" fill="#dfe8ff" opacity="0.26"/><circle cx="937.4" cy="494.6" r="0.62" fill="#dfe8ff" opacity="0.51"/><circle cx="500.0" cy="281.3" r="0.52" fill="#dfe8ff" opacity="0.32"/><circle cx="402.4" cy="155.6" r="0.46" fill="#dfe8ff" opacity="0.73"/><circle cx="175.0" cy="428.9" r="1.82" fill="#dfe8ff" opacity="0.73"/><circle cx="963.3" cy="17.2" r="2.09" fill="#dfe8ff" opacity="0.81"/><circle cx="558.2" cy="48.2" r="1.70" fill="#dfe8ff" opacity="0.60"/><circle cx="879.0" cy="489.9" r="1.99" fill="#dfe8ff" opacity="0.49"/><circle cx="845.5" cy="268.1" r="1.22" fill="#dfe8ff" opacity="0.32"/><circle cx="929.9" cy="283.2" r="2.01" fill="#dfe8ff" opacity="0.54"/><circle cx="75.9" cy="21.8" r="0.55" fill="#9fd4ff" opacity="0.61"/><circle cx="587.8" cy="34.0" r="1.52" fill="#9fd4ff" opacity="0.33"/><circle cx="611.1" cy="705.0" r="0.93" fill="#9fd4ff" opacity="0.35"/><circle cx="1077.4" cy="347.0" r="2.52" fill="#9fd4ff" opacity="0.37"/><circle cx="1182.5" cy="603.0" r="0.94" fill="#9fd4ff" opacity="0.39"/><circle cx="839.1" cy="361.5" r="1.09" fill="#9fd4ff" opacity="0.33"/><circle cx="692.3" cy="236.9" r="2.49" fill="#9fd4ff" opacity="0.30"/><circle cx="610.2" cy="267.6" r="1.96" fill="#9fd4ff" opacity="0.80"/><circle cx="506.4" cy="50.1" r="1.88" fill="#9fd4ff" opacity="0.70"/><circle cx="738.8" cy="624.6" r="1.15" fill="#9fd4ff" opacity="0.59"/><circle cx="978.3" cy="132.1" r="1.33" fill="#9fd4ff" opacity="0.77"/><circle cx="507.2" cy="358.9" r="2.79" fill="#9fd4ff" opacity="0.39"/><circle cx="197.6" cy="574.5" r="1.01" fill="#9fd4ff" opacity="0.47"/><circle cx="208.7" cy="440.2" r="2.02" fill="#9fd4ff" opacity="0.70"/><circle cx="315.8" cy="109.4" r="1.70" fill="#9fd4ff" opacity="0.74"/><circle cx="519.8" cy="95.9" r="2.56" fill="#9fd4ff" opacity="0.28"/><circle cx="1.7" cy="610.9" r="1.94" fill="#9fd4ff" opacity="0.48"/><circle cx="656.3" cy="307.7" r="0.99" fill="#9fd4ff" opacity="0.67"/><circle cx="1101.8" cy="735.7" r="1.35" fill="#9fd4ff" opacity="0.51"/><circle cx="1155.7" cy="455.0" r="0.77" fill="#9fd4ff" opacity="0.26"/><circle cx="1030.2" cy="652.8" r="2.85" fill="#9fd4ff" opacity="0.79"/><circle cx="533.9" cy="310.8" r="2.34" fill="#9fd4ff" opacity="0.83"/><circle cx="783.2" cy="270.5" r="0.47" fill="#9fd4ff" opacity="0.73"/><circle cx="955.7" cy="437.6" r="1.75" fill="#9fd4ff" opacity="0.70"/><circle cx="1137.0" cy="135.7" r="0.64" fill="#9fd4ff" opacity="0.31"/><circle cx="13.6" cy="700.9" r="0.48" fill="#9fd4ff" opacity="0.51"/><g opacity="0.7"><line x1="433" y1="104" x2="843" y2="407" stroke="#7db5ff" stroke-width="2.4" stroke-linecap="round"/></g>
  <rect x="28" y="28" width="1144" height="744" fill="none" stroke="#ffffff" stroke-opacity="0.10" rx="10"/>
  <g stroke="#dfe8ff" stroke-opacity="0.55" stroke-width="2">
    <path d="M40 28 L28 28 L28 40"/><path d="M1160 28 L1172 28 L1172 40"/>
    <path d="M40 772 L28 772 L28 760"/><path d="M1160 772 L1172 772 L1172 760"/>
  </g>
  <text x="52" y="726" font-family="ui-monospace,Menlo,monospace" font-size="26" fill="#dfe8ff" fill-opacity="0.82" letter-spacing="1">NIGHT SKY // 夜空観測 #3</text>
  <text x="52" y="756" font-family="ui-monospace,Menlo,monospace" font-size="16" fill="#9fd4ff" fill-opacity="0.6" letter-spacing="2">observation log</text>
  <text x="1148" y="726" text-anchor="end" font-family="ui-monospace,Menlo,monospace" font-size="15" fill="#ffffff" fill-opacity="0.35">PLACEHOLDER · NO EXIF</text>
<rect width="1200" height="800" filter="url(#grain)" opacity="0.5"/>
</svg>