<svg xmlns="http://www.w3.org/2000/svg" viewBox="0 0 1200 800" width="1200" height="800" role="img">
<defs>
    <linearGradient id="bg" x1="0" y1="0" x2="1" y2="1">
      <stop offset="0" stop-color="#0a0f24"/>
      <stop offset="0.55" stop-color="#0c1330"/>
      <stop offset="1" stop-color="#0a1a2e"/>
    </linearGradient>
    <filter id="soft" x="-50%" y="-50%" width="200%" height="200%"><feGaussianBlur stdDeviation="60"/></filter>
    <filter id="grain"><feTurbulence type="fractalNoise" baseFrequency="0.9" numOctaves="2" stitchTiles="stitch"/><feColorMatrix type="saturate" values="0"/><feComponentTransfer><feFuncA type="linear" slope="0.05"/></feComponentTransfer><feComposite operator="over" in2="SourceGraphic"/></filter>
  </defs>
<rect width="1200" height="800" fill="url(#bg)"/>
<circle cx="788" cy="781" r="276" fill="#123a5a" opacity="0.27" filter="url(#soft)"/><circle cx="420" cy="125" r="145" fill="#123a5a" opacity="0.22" filter="url(#soft)"/><circle cx="1017" cy="543" r="266" fill="#1a2b6b" opacity="0.30" filter="url(#soft)"/><circle cx="1167.3" cy="422.5" r="1.50" fill="#dfe8ff" opacity="0.42"/><circle cx="822.1" cy="410.1" r="0.53" fill="#dfe8ff" opacity="0.53"/><circle cx="957.4" cy="402.2" r="1.52" fill="#dfe8ff" opacity="0.55"/><circle cx="961.6" cy="659.0" r="1.21" fill="#dfe8ff" opacity="0.71"/><circle cx="84.2" cy="403.8" r="1.18" fill="#dfe8ff" opacity="0.29"/><circle cx="300.5" cy="246.1" r="1.67" fill="#dfe8ff" opacity="0.26"/><circle cx="1188.9" cy="293.3" r="1.55" fill="#dfe8ff" opacity="0.82"/><circle cx="758.3" cy="767.1" r="0.71" fill="#dfe8ff" opacity="0.57"/><circle cx="494.5" cy="398.2" r="1.14" fill="#dfe8ff" opacity="0.80"/><circle cx="277.2" cy="709.8" r="1.05" fill="#dfe8ff" opacity="0.32"/><circle cx="272.6" cy="314.3" r="1.24" fill="#dfe8ff" opacity="0.25"/><circle cx="595.0" cy="113.7" r="0.91" fill="#dfe8ff" opacity="0.33"/><circle cx="368.1" cy="299.1" r="2.02" fill="#dfe8ff" opacity="0.50"/><circle cx="975.2" cy="84.7" r="0.91" fill="#dfe8ff" opacity="0.45"/><circle cx="258.4" cy="696.9" r="1.89" fill="#dfe8ff" opacity="0.79"/><circle cx="397.8" cy="509.0" r="2.16" fill="#dfe8ff" opacity="0.66"/><circle cx="476.1" cy="666.8" r="1.84" fill="#dfe8ff" opacity="0.84"/><circle cx="622.0" cy="764.2" r="0.50" fill="#dfe8ff" opacity="0.62"/><circle cx="865.9" cy="104.6" r="2.07" fill="#dfe8ff" opacity="0.70"/><circle cx="181.0" cy="514.7" r="2.30" fill="#dfe8ff" opacity="0.57"/><circle cx="1126.4" cy="174.2" r="0.67" fill="#dfe8ff" opacity="0.36"/><circle cx="74.1" cy="202.7" r="1.17" fill="#dfe8ff" opacity="0.72"/><circle cx="125.1" cy="147.6" r="0.99" fill="#dfe8ff" opacity="0.48"/><circle cx="343.6" cy="174.8" r="1.76" fill="#dfe8ff" opacity="0.30"/><circle cx="1001.7" cy="449.8" r="0.58" fill="#dfe8ff" opacity="0.27"/><circle cx="730.6" cy="611.9" r="1.18" fill="#dfe8ff" opacity="0.61"/><circle cx="820.9" cy="789.1" r="0.59" fill="#dfe8ff" opacity="0.69"/><circle cx="258.8" cy="352.0" r="0.73" fill="#dfe8ff" opacity="0.57"/><circle cx="501.1" cy="304.3" r="0.68" fill="#dfe8ff" opacity="0.48"/><circle cx="322.4" cy="310.9" r="1.74" fill="#dfe8ff" opacity="0.64"/><circle cx="226.9" cy="68.0" r="1.90" fill="#dfe8ff" opacity="0.29"/><circle cx="930.3" cy="714.0" r="1.42" fill="#dfe8ff" opacity="0.59"/><circle cx="689.3" cy="669.4" r="1.87" fill="#dfe8ff" opacity="0.44"/><circle cx="142.0" cy="523.0" r="0.66" fill="#dfe8ff" opacity="0.56"/><circle cx="508.3" cy="325.3" r="1.42" fill="#dfe8ff" opacity="0.71"/><circle cx="1190.6" cy="328.9" r="0.59" fill="#dfe8ff" opacity="0.49"/><circle cx="296.1" cy="371.6" r="1.92" fill="#dfe8ff" opacity="0.34"/><circle cx="527.9" cy="577.1" r="1.38" fill="#dfe8ff" opacity="0.51"/><circle cx="967.8" cy="259.9" r="1.47" fill="#dfe8ff" opacity="0.58"/><circle cx="850.1" cy="341.6" r="1.41" fill="#dfe8ff" opacity="0.25"/><circle cx="829.0" cy="160.0" r="0.90" fill="#dfe8ff" opacity="0.45"/><circle cx="399.6" cy="719.5" r="2.01" fill="#dfe8ff" opacity="0.72"/><circle cx="801.9" cy="419.7" r="1.60" fill="#dfe8ff" opacity="0.42"/><circle cx="772.5" cy="50.3" r="1.26" fill="#dfe8ff" opacity="0.36"/><circle cx="197.6" cy="107.4" r="1.64" fill="#dfe8ff" opacity="0.78"/><circle cx="366.2" cy="718.3" r="0.92" fill="#dfe8ff" opacity="0.43"/><circle cx="495.4" cy="498.4" r="2.25" fill="#dfe8ff" opacity="0.79"/><circle cx="705.6" cy="468.2" r="2.08" fill="#dfe8ff" opacity="0.28"/><circle cx="1172.8" cy="769.8" r="1.07" fill="#dfe8ff" opacity="0.70"/><circle cx="179.0" cy="717.4" r="1.58" fill="#dfe8ff" opacity="0.44"/><circle cx="637.8" cy="88.0" r="1.03" fill="#dfe8ff" opacity="0.77"/><circle cx="332.4" cy="484.9" r="1.84" fill="#dfe8ff" opacity="0.44"/><circle cx="555.1" cy="530.9" r="1.13" fill="#dfe8ff" opacity="0.29"/><circle cx="1122.7" cy="797.0" r="2.06" fill="#dfe8ff" opacity="0.84"/><circle cx="254.7" cy="752.0" r="0.65" fill="#dfe8ff" opacity="0.48"/><circle cx="333.8" cy="773.9" r="0.90" fill="#dfe8ff" opacity="0.32"/><circle cx="1102.4" cy="219.5" r="2.26" fill="#dfe8ff" opacity="0.50"/><circle cx="861.7" cy="344.6" r="2.16" fill="#dfe8ff" opacity="0.38"/><circle cx="694.6" cy="302.4" r="1.68" fill="#dfe8ff" opacity="0.70"/><circle cx="304.9" cy="665.2" r="2.13" fill="#dfe8ff" opacity="0.71"/><circle cx="99.0" cy="130.3" r="1.35" fill="#dfe8ff" opacity="0.57"/><circle cx="599.5" cy="421.9" r="1.16" fill="#dfe8ff" opacity="0.46"/><circle cx="912.3" cy="700.1" r="0.84" fill="#dfe8ff" opacity="0.48"/><circle cx="112.9" cy="147.6" r="2.20" fill="#dfe8ff" opacity="0.55"/><circle cx="912.1" cy="418.3" r="1.98" fill="#dfe8ff" opacity="0.58"/><circle cx="583.1" cy="243.7" r="1.60" fill="#dfe8ff" opacity="0.80"/><circle cx="356.9" cy="251.1" r="1.76" fill="#dfe8ff" opacity="0.64"/><circle cx="358.5" cy="515.0" r="2.23" fill="#dfe8ff" opacity="0.69"/><circle cx="939.0" cy="384.9" r="1.48" fill="#dfe8ff" opacity="0.26"/><circle cx="936.8" cy="313.0" r="1.76" fill="#dfe8ff" opacity="0.37"/><circle cx="465.5" cy="561.8" r="1.10" fill="#dfe8ff" opacity="0.55"/><circle cx="955.1" cy="207.8" r="1.00" fill="#dfe8ff" opacity="0.43"/><circle cx="17.0" cy="424.7" r="2.18" fill="#dfe8ff" opacity="0.80"/><circle cx="310.4" cy="709.4" r="1.68" fill="#dfe8ff" opacity="0.46"/><circle cx="122.0" cy="480.0" r="2.14" fill="#dfe8ff" opacity="0.43"/><circle cx="947.0" cy="424.9" r="1.80" fill="#dfe8ff" opacity="0.54"/><circle cx="466.4" cy="713.6" r="1.05" fill="#dfe8ff" opacity="0.54"/><circle cx="984.0" cy="679.2" r="1.51" fill="#dfe8ff" opacity="0.67"/><circle cx="384.5" cy="365.7" r="1.98" fill="#dfe8ff" opacity="0.45"/><circle cx="266.5" cy="322.3" r="1.19" fill="#dfe8ff" opacity="0.78"/><circle cx="940.2" cy="557.7" r="1.95" fill="#dfe8ff" opacity="0.45"/><circle cx="516.6" cy="179.6" r="1.61" fill="#dfe8ff" opacity="0.44"/><circle cx="769.4" cy="755.0" r="1.15" fill="#dfe8ff" opacity="0.31"/><circle cx="1009.3" cy="355.0" r="0.67" fill="#dfe8ff" opacity="0.38"/><circle cx="920.8" cy="37.7" r="0.55" fill="#dfe8ff" opacity="0.64"/><circle cx="1178.7" cy="178.1" r="1.65" fill="#dfe8ff" opacity="0.43"/><circle cx="860.9" cy="252.8" r="1.78" fill="#dfe8ff" opacity="0.48"/><circle cx="36.9" cy="458.6" r="1.99" fill="#dfe8ff" opacity="0.35"/><circle cx="777.7" cy="513.9" r="1.33" fill="#dfe8ff" opacity="0.43"/><circle cx="887.6" cy="650.9" r="1.37" fill="#dfe8ff" opacity="0.55"/><circle cx="10.2" cy="36.4" r="1.73" fill="#dfe8ff" opacity="0.26"/><circle cx="1144.8" cy="767.5" r="1.61" fill="#dfe8ff" opacity="0.77"/><circle cx="165.3" cy="562.1" r="1.33" fill="#dfe8ff" opacity="0.47"/><circle cx="1188.2" cy="329.2" r="1.10" fill="#dfe8ff" opacity="0.49"/><circle cx="86.5" cy="201.9" r="2.14" fill="#dfe8ff" opacity="0.41"/><circle cx="1117.3" cy="648.3" r="0.63" fill="#dfe8ff" opacity="0.67"/><circle cx="970.3" cy="610.2" r="0.44" fill="#dfe8ff" opacity="0.26"/><circle cx="1125.9" cy="102.4" r="1.95" fill="#dfe8ff" opacity="0.45"/><circle cx="763.4" cy="421.4" r="1.88" fill="#dfe8ff" opacity="0.38"/><circle cx="1043.4" cy="32.8" r="1.95" fill="#dfe8ff" opacity="0.29"/><circle cx="465.6" cy="488.8" r="1.71" fill="#dfe8ff" opacity="0.69"/><circle cx="1144.9" cy="35.2" r="0.99" fill="#dfe8ff" opacity="0.49"/><circle cx="318.2" cy="313.0" r="0.47" fill="#dfe8ff" opacity="0.43"/><circle cx="430.8" cy="437.6" r="2.19" fill="#dfe8ff" opacity="0.61"/><circle cx="893.4" cy="543.2" r="0.87" fill="#dfe8ff" opacity="0.38"/><circle cx="751.3" cy="151.8" r="1.34" fill="#dfe8ff" opacity="0.76"/><circle cx="312.7" cy="133.3" r="0.45" fill="#dfe8ff" opacity="0.65"/><circle cx="87.4" cy="420.1" r="1.99" fill="#dfe8ff" opacity="0.81"/><circle cx="407.5" cy="208.2" r="1.47" fill="#dfe8ff" opacity="0.63"/><circle cx="275.3" cy="433.7" r="2.03" fill="#dfe8ff" opacity="0.62"/><circle cx="823.0" cy="361.2" r="0.63" fill="#dfe8ff" opacity="0.51"/><circle cx="601.4" cy="193.0" r="1.37" fill="#dfe8ff" opacity="0.69"/><circle cx="1197.2" cy="315.4" r="1.24" fill="#dfe8ff" opacity="0.80"/><circle cx="1018.4" cy="177.5" r="1.02" fill="#dfe8ff" opacity="0.32"/><circle cx="373.5" cy="183.2" r="0.67" fill="#dfe8ff" opacity="0.62"/><circle cx="716.6" cy="777.2" r="1.30" fill="#dfe8ff" opacity="0.76"/><circle cx="273.3" cy="769.9" r="0.89" fill="#dfe8ff" opacity="0.73"/><circle cx="250.0" cy="261.5" r="0.48" fill="#dfe8ff" opacity="0.81"/><circle cx="119.9" cy="328.1" r="0.74" fill="#dfe8ff" opacity="0.27"/><circle cx="901.5" cy="388.0" r="1.40" fill="#dfe8ff" opacity="0.49"/><circle cx="103.9" cy="149.1" r="2.27" fill="#dfe8ff" opacity="0.63"/><circle cx="857.1" cy="720.9" r="1.60" fill="#dfe8ff" opacity="0.69"/><circle cx="47.9" cy="680.1" r="0.46" fill="#dfe8ff" opacity="0.65"/><circle cx="1077.9" cy="377.1" r="1.23" fill="#dfe8ff" opacity="0.33"/><circle cx="684.3" cy="720.0" r="1.49" fill="#dfe8ff" opacity="0.54"/><circle cx="121.3" cy="794.8" r="1.34" fill="#dfe8ff" opacity="0.50"/><circle cx="582.5" cy="538.6" r="0.41" fill="#dfe8ff" opacity="0.76"/><circle cx="292.4" cy="391.4" r="1.93" fill="#dfe8ff" opacity="0.35"/><circle cx="243.0" cy="199.2" r="2.05" fill="#dfe8ff" opacity="0.78"/><circle cx="648.6" cy="552.1" r="0.48" fill="#dfe8ff" opacity="0.59"/><circle cx="761.7" cy="456.6" r="1.73" fill="#dfe8ff" opacity="0.84"/><circle cx="146.9" cy="210.2" r="2.24" fill="#dfe8ff" opacity="0.59"/><circle cx="732.7" cy="375.7" r="0.77" fill="#dfe8ff" opacity="0.71"/><circle cx="502.6" cy="421.9" r="1.70" fill="#dfe8ff" opacity="0.67"/><circle cx="225.6" cy="589.9" r="1.52" fill="#dfe8ff" opacity="0.33"/><circle cx="406.3" cy="450.9" r="1.15" fill="#dfe8ff" opacity="0.57"/><circle cx="115.7" cy="385.0" r="1.24" fill="#dfe8ff" opacity="0.83"/><circle cx="39.5" cy="415.8" r="1.55" fill="#dfe8ff" opacity="0.65"/><circle cx="396.1" cy="672.7" r="0.97" fill="#dfe8ff" opacity="0.83"/><circle cx="921.6" cy="600.4" r="1.77" fill="#dfe8ff" opacity="0.52"/><circle cx="414.4" cy="169.0" r="1.82" fill="#dfe8ff" opacity="0.76"/><circle cx="398.3" cy="399.4" r="0.83" fill="#dfe8ff" opacity="0.41"/><circle cx="763.3" cy="484.6" r="0.71" fill="#dfe8ff" opacity="0.70"/><circle cx="671.5" cy="260.3" r="1.04" fill="#dfe8ff" opacity="0.51"/><circle cx="1128.3" cy="516.2" r="0.78" fill="#dfe8ff" opacity="0.77"/><circle cx="807.1" cy="636.3" r="0.72" fill="#dfe8ff" opacity="0.39"/><circle cx="1168.1" cy="34.0" r="1.82" fill="#dfe8ff" opacity="0.35"/><circle cx="611.6" cy="719.1" r="1.19" fill="#dfe8ff" opacity="0.82"/><circle cx="535.8" cy="695.0" r="2.13" fill="#dfe8ff" opacity="0.77"/><circle cx="1004.6" cy="56.9" r="1.38" fill="#dfe8ff" opacity="0.30"/><circle cx="770.5" cy="450.9" r="1.39" fill="#dfe8ff" opacity="0.79"/><circle cx="359.1" cy="353.9" r="0.82" fill="#dfe8ff" opacity="0.72"/><circle cx="202.6" cy="105.9" r="1.91" fill="#dfe8ff" opacity="0.44"/><circle cx="26.1" cy="410.6" r="1.05" fill="#dfe8ff" opacity="0.27"/><circle cx="213.0" cy="457.4" r="1.93" fill="#dfe8ff" opacity="0.70"/><circle cx="809.4" cy="267.9" r="1.32" fill="#dfe8ff" opacity="0.49"/><circle cx="324.1" cy="437.6" r="1.35" fill="#dfe8ff" opacity="0.77"/><circle cx="336.5" cy="526.0" r="0.43" fill="#dfe8ff" opacity="0.55"/><circle cx="993.4" cy="469.3" r="1.08" fill="#dfe8ff" opacity="0.43"/><circle cx="777.0" cy="518.2" r="1.15" fill="#dfe8ff" opacity="0.34"/><circle cx="676.4" cy="189.9" r="1.46" fill="#dfe8ff" opacity="0.32"/><circle cx="263.5" cy="124.5" r="1.44" fill="#dfe8ff" opacity="0.67"/><circle cx="622.3" cy="258.3" r="0.55" fill="#dfe8ff" opacity="0.70"/><circle cx="570.7" cy="605.1" r="1.44" fill="#dfe8ff" opacity="0.73"/><circle cx="32.0" cy="234.0" r="0.79" fill="#dfe8ff" opacity="0.30"/><circle cx="1030.1" cy="215.4" r="1.88" fill="#dfe8ff" opacity="0.29"/><circle cx="19.7" cy="699.4" r="2.29" fill="#dfe8ff" opacity="0.69"/><circle cx="1175.9" cy="361.2" r="1.70" fill="#dfe8ff" opacity="0.52"/><circle cx="186.2" cy="503.3" r="2.26" fill="#dfe8ff" opacity="0.41"/><circle cx="567.7" cy="236.4" r="2.01" fill="#dfe8ff" opacity="0.52"/><circle cx="360.8" cy="277.0" r="0.48" fill="#dfe8ff" opacity="0.36"/><circle cx="1132.3" cy="492.5" r="1.99" fill="#dfe8ff" opacity="0.33"/><circle cx="1148.9" cy="640.8" r="0.41" fill="#dfe8ff" opacity="0.78"/><circle cx="931.6" cy="359.4" r="1.29" fill="#dfe8ff" opacity="0.47"/><circle cx="229.6" cy="39.7" r="2.18" fill="#dfe8ff" opacity="0.59"/><circle cx="228.3" cy="374.0" r="1.89" fill="#dfe8ff" opacity="0.41"/><circle cx="384.6" cy="557.4" r="1.25" fill="#dfe8ff" opacity="0.38"/><circle cx="936.3" cy="677.6" r="1.01" fill="#dfe8ff" opacity="0.71"/><circle cx="754.0" cy="353.7" r="2.24" fill="#dfe8ff" opacity="0.72"/><circle cx="811.0" cy="583.5" r="1.96" fill="#dfe8ff" opacity="0.79"/><circle cx="144.5" cy="67.8" r="1.45" fill="#9fd4ff" opacity="0.54"/><circle cx="1040.8" cy="106.6" r="1.68" fill="#9fd4ff" opacity="0.42"/><circle cx="1078.6" cy="608.6" r="1.53" fill="#9fd4ff" opacity="0.26"/><circle cx="516.9" cy="694.8" r="1.09" fill="#9fd4ff" opacity="0.82"/><circle cx="800.7" cy="697.5" r="2.12" fill="#9fd4ff" opacity="0.55"/><circle cx="884.7" cy="659.7" r="1.86" fill="#9fd4ff" opacity="0.73"/><circle cx="440.7" cy="434.1" r="2.04" fill="#9fd4ff" opacity="0.83"/><circle cx="1170.4" cy="302.6" r="0.82" fill="#9fd4ff" opacity="0.69"/><circle cx="853.7" cy="665.1" r="1.30" fill="#9fd4ff" opacity="0.35"/><circle cx="76.3" cy="429.1" r="1.72" fill="#9fd4ff" opacity="0.67"/><circle cx="1016.9" cy="209.6" r="2.78" fill="#9fd4ff" opacity="0.33"/><circle cx="58.7" cy="300.6" r="2.69" fill="#9fd4ff" opacity="0.80"/><circle cx="823.4" cy="493.2" r="1.02" fill="#9fd4ff" opacity="0.74"/><circle cx="720.2" cy="233.8" r="0.61" fill="#9fd4ff" opacity="0.71"/><circle cx="808.6" cy="206.6" r="0.90" fill="#9fd4ff" opacity="0.74"/><circle cx="1161.0" cy="478.1" r="1.82" fill="#9fd4ff" opacity="0.45"/><circle cx="1042.4" cy="65.8" r="2.01" fill="#9fd4ff" opacity="0.83"/><circle cx="185.5" cy="711.5" r="0.64" fill="#9fd4ff" opacity="0.83"/><circle cx="188.4" cy="58.6" r="0.54" fill="#9fd4ff" opacity="0.72"/><circle cx="68.8" cy="29.5" r="0.94" fill="#9fd4ff" opacity="0.41"/><circle cx="808.8" cy="313.0" r="1.47" fill="#9fd4ff" opacity="0.54"/><circle cx="381.8" cy="787.5" r="1.05" fill="#9fd4ff" opacity="0.51"/><circle cx="1036.0" cy="724.1" r="2.62" fill="#9fd4ff" opacity="0.82"/><circle cx="449.0" cy="29.6" r="2.75" fill="#9fd4ff" opacity="0.61"/><circle cx="1087.9" cy="304.3" r="1.22" fill="#9fd4ff" opacity="0.58"/><circle cx="599.9" cy="518.4" r="2.36" fill="#9fd4ff" opacity="0.65"/><g opacity="0.7"><line x1="298" y1="113" x2="277" y2="273" stroke="#7db5ff" stroke-width="2.4" stroke-linecap="round"/></g>
  <rect x="28" y="28" width="1144" height="744" fill="none" stroke="#ffffff" stroke-opacity="0.10" rx="10"/>
  <g stroke="#dfe8ff" stroke-opacity="0.55" stroke-width="2">
    <path d="M40 28 L28 28 L28 40"/><path d="M1160 28 L1172 28 L1172 40"/>
    <path d="M40 772 L28 772 L28 760"/><path d="M1160 772 L1172 772 L1172 760"/>
  </g>
  <text x="52" y="726" font-family="ui-monospace,Menlo,monospace" font-size="26" fill="#dfe8ff" fill-opacity="0.82" letter-spacing="1">NIGHT SKY // 夜空観測 #1</text>
  <text x="52" y="756" font-family="ui-monospace,Menlo,monospace" font-size="16" fill="#9fd4ff" fill-opacity="0.6" letter-spacing="2">observation log</text>
  <text x="1148" y="726" text-anchor="end" font-family="ui-monospace,Menlo,monospace" font-size="15" fill="#ffffff" fill-opacity="0.35">PLACEHOLDER · NO EXIF</text>
<rect width="1200" height="800" filter="url(#grain)" opacity="0.5"/>
</svg>