<svg xmlns="http://www.w3.org/2000/svg" viewBox="0 0 1200 800" width="1200" height="800" role="img">
<defs>
    <linearGradient id="bg" x1="0" y1="0" x2="1" y2="1">
      <stop offset="0" stop-color="#0a1620"/>
      <stop offset="0.55" stop-color="#0d1a24"/>
      <stop offset="1" stop-color="#101c1e"/>
    </linearGradient>
    <filter id="soft" x="-50%" y="-50%" width="200%" height="200%"><feGaussianBlur stdDeviation="60"/></filter>
    <filter id="grain"><feTurbulence type="fractalNoise" baseFrequency="0.9" numOctaves="2" stitchTiles="stitch"/><feColorMatrix type="saturate" values="0"/><feComponentTransfer><feFuncA type="linear" slope="0.05"/></feComponentTransfer><feComposite operator="over" in2="SourceGraphic"/></filter>
  </defs>
<rect width="1200" height="800" fill="url(#bg)"/>
<circle cx="587" cy="769" r="378" fill="#2c6b86" opacity="0.19" filter="url(#soft)"/><circle cx="459" cy="395" r="229" fill="#4df0dd" opacity="0.15" filter="url(#soft)"/><circle cx="925" cy="7" r="283" fill="#2c6b86" opacity="0.22" filter="url(#soft)"/><circle cx="242" cy="593" r="360" fill="#caa46b" opacity="0.15" filter="url(#soft)"/><circle cx="655" cy="476" r="338" fill="#2c6b86" opacity="0.36" filter="url(#soft)"/><circle cx="263.8" cy="310.7" r="0.83" fill="#dfe8ff" opacity="0.38"/><circle cx="340.3" cy="26.8" r="0.56" fill="#dfe8ff" opacity="0.32"/><circle cx="596.7" cy="728.2" r="1.63" fill="#dfe8ff" opacity="0.52"/><circle cx="545.1" cy="88.1" r="0.74" fill="#dfe8ff" opacity="0.41"/><circle cx="332.8" cy="780.0" r="0.67" fill="#dfe8ff" opacity="0.84"/><circle cx="511.2" cy="323.9" r="0.93" fill="#dfe8ff" opacity="0.58"/><circle cx="873.3" cy="117.2" r="1.55" fill="#dfe8ff" opacity="0.74"/><circle cx="487.3" cy="25.2" r="0.98" fill="#dfe8ff" opacity="0.48"/><circle cx="929.7" cy="371.0" r="0.83" fill="#dfe8ff" opacity="0.66"/><circle cx="917.7" cy="296.4" r="0.90" fill="#dfe8ff" opacity="0.66"/><circle cx="847.7" cy="219.3" r="1.15" fill="#dfe8ff" opacity="0.28"/><circle cx="773.2" cy="178.1" r="1.39" fill="#dfe8ff" opacity="0.43"/><circle cx="405.2" cy="14.5" r="1.56" fill="#dfe8ff" opacity="0.37"/><circle cx="304.9" cy="629.9" r="1.46" fill="#dfe8ff" opacity="0.69"/><circle cx="168.8" cy="594.2" r="1.29" fill="#dfe8ff" opacity="0.32"/><circle cx="421.3" cy="751.3" r="0.97" fill="#dfe8ff" opacity="0.63"/><circle cx="487.2" cy="380.4" r="0.46" fill="#dfe8ff" opacity="0.83"/><circle cx="887.9" cy="473.7" r="0.74" fill="#dfe8ff" opacity="0.53"/><circle cx="547.5" cy="173.8" r="1.00" fill="#dfe8ff" opacity="0.30"/><circle cx="348.7" cy="742.9" r="1.29" fill="#dfe8ff" opacity="0.64"/><circle cx="680.9" cy="638.3" r="1.52" fill="#dfe8ff" opacity="0.57"/><circle cx="348.2" cy="647.1" r="0.66" fill="#dfe8ff" opacity="0.70"/><circle cx="78.8" cy="491.9" r="0.55" fill="#dfe8ff" opacity="0.36"/><circle cx="436.1" cy="733.2" r="1.65" fill="#dfe8ff" opacity="0.84"/><circle cx="483.4" cy="704.8" r="0.44" fill="#dfe8ff" opacity="0.48"/><circle cx="587.8" cy="538.9" r="1.72" fill="#dfe8ff" opacity="0.69"/><circle cx="46.3" cy="539.5" r="0.98" fill="#dfe8ff" opacity="0.55"/><circle cx="130.5" cy="97.3" r="1.57" fill="#dfe8ff" opacity="0.53"/><circle cx="526.9" cy="476.0" r="0.99" fill="#dfe8ff" opacity="0.34"/><circle cx="1158.1" cy="21.4" r="0.63" fill="#dfe8ff" opacity="0.69"/><circle cx="956.5" cy="426.9" r="1.01" fill="#dfe8ff" opacity="0.30"/><circle cx="420.2" cy="519.5" r="0.85" fill="#dfe8ff" opacity="0.48"/><circle cx="1061.4" cy="412.9" r="0.67" fill="#dfe8ff" opacity="0.36"/><circle cx="402.0" cy="707.4" r="1.20" fill="#dfe8ff" opacity="0.83"/><circle cx="188.1" cy="798.3" r="1.60" fill="#dfe8ff" opacity="0.55"/><circle cx="1170.7" cy="109.2" r="0.64" fill="#dfe8ff" opacity="0.59"/><circle cx="20.0" cy="629.4" r="0.49" fill="#dfe8ff" opacity="0.79"/><circle cx="31.9" cy="414.4" r="0.42" fill="#dfe8ff" opacity="0.77"/><circle cx="393.3" cy="547.9" r="0.95" fill="#dfe8ff" opacity="0.78"/><circle cx="971.8" cy="508.4" r="0.54" fill="#dfe8ff" opacity="0.80"/><circle cx="350.5" cy="83.4" r="1.58" fill="#dfe8ff" opacity="0.78"/><circle cx="71.6" cy="453.7" r="1.27" fill="#dfe8ff" opacity="0.28"/><circle cx="890.6" cy="599.1" r="1.51" fill="#dfe8ff" opacity="0.48"/><circle cx="466.4" cy="342.5" r="0.42" fill="#dfe8ff" opacity="0.43"/><circle cx="648.0" cy="89.3" r="1.04" fill="#dfe8ff" opacity="0.30"/><circle cx="1072.7" cy="636.9" r="0.77" fill="#dfe8ff" opacity="0.40"/><circle cx="301.1" cy="609.6" r="1.73" fill="#dfe8ff" opacity="0.54"/><circle cx="59.2" cy="719.1" r="1.01" fill="#dfe8ff" opacity="0.63"/><circle cx="1051.3" cy="182.9" r="0.86" fill="#dfe8ff" opacity="0.74"/><circle cx="18.4" cy="480.6" r="0.90" fill="#dfe8ff" opacity="0.54"/><circle cx="48.3" cy="194.1" r="1.73" fill="#dfe8ff" opacity="0.52"/><circle cx="610.2" cy="58.7" r="1.57" fill="#dfe8ff" opacity="0.67"/><circle cx="1117.5" cy="262.0" r="0.86" fill="#dfe8ff" opacity="0.59"/><circle cx="300.4" cy="662.5" r="0.94" fill="#dfe8ff" opacity="0.85"/><circle cx="921.8" cy="76.2" r="0.91" fill="#dfe8ff" opacity="0.58"/><circle cx="14.4" cy="442.8" r="0.81" fill="#dfe8ff" opacity="0.28"/><circle cx="629.4" cy="614.0" r="1.16" fill="#dfe8ff" opacity="0.56"/><circle cx="321.6" cy="17.3" r="1.18" fill="#dfe8ff" opacity="0.61"/><circle cx="428.0" cy="236.5" r="1.15" fill="#dfe8ff" opacity="0.79"/><circle cx="115.0" cy="659.9" r="0.57" fill="#dfe8ff" opacity="0.48"/>
  <rect x="28" y="28" width="1144" height="744" fill="none" stroke="#ffffff" stroke-opacity="0.10" rx="10"/>
  <g stroke="#dfe8ff" stroke-opacity="0.55" stroke-width="2">
    <path d="M40 28 L28 28 L28 40"/><path d="M1160 28 L1172 28 L1172 40"/>
    <path d="M40 772 L28 772 L28 760"/><path d="M1160 772 L1172 772 L1172 760"/>
  </g>
  <text x="52" y="726" font-family="ui-monospace,Menlo,monospace" font-size="26" fill="#dfe8ff" fill-opacity="0.82" letter-spacing="1">OFFLINE // 屏幕之外 #2</text>
  <text x="52" y="756" font-family="ui-monospace,Menlo,monospace" font-size="16" fill="#9fd4ff" fill-opacity="0.6" letter-spacing="2">a small light</text>
  <text x="1148" y="726" text-anchor="end" font-family="ui-monospace,Menlo,monospace" font-size="15" fill="#ffffff" fill-opacity="0.35">PLACEHOLDER · NO EXIF</text>
<rect width="1200" height="800" filter="url(#grain)" opacity="0.5"/>
</svg>