<svg xmlns="http://www.w3.org/2000/svg" viewBox="0 0 1200 800" width="1200" height="800" role="img">
<defs>
    <linearGradient id="bg" x1="0" y1="0" x2="1" y2="1">
      <stop offset="0" stop-color="#0a1620"/>
      <stop offset="0.55" stop-color="#0d1a24"/>
      <stop offset="1" stop-color="#101c1e"/>
    </linearGradient>
    <filter id="soft" x="-50%" y="-50%" width="200%" height="200%"><feGaussianBlur stdDeviation="60"/></filter>
    <filter id="grain"><feTurbulence type="fractalNoise" baseFrequency="0.9" numOctaves="2" stitchTiles="stitch"/><feColorMatrix type="saturate" values="0"/><feComponentTransfer><feFuncA type="linear" slope="0.05"/></feComponentTransfer><feComposite operator="over" in2="SourceGraphic"/></filter>
  </defs>
<rect width="1200" height="800" fill="url(#bg)"/>
<circle cx="852" cy="467" r="132" fill="#1f6b64" opacity="0.08" filter="url(#soft)"/><circle cx="164" cy="545" r="156" fill="#4df0dd" opacity="0.32" filter="url(#soft)"/><circle cx="681" cy="504" r="218" fill="#1f6b64" opacity="0.15" filter="url(#soft)"/><circle cx="209" cy="334" r="306" fill="#1f6b64" opacity="0.26" filter="url(#soft)"/><circle cx="945" cy="559" r="171" fill="#1f6b64" opacity="0.26" filter="url(#soft)"/><circle cx="964.7" cy="116.6" r="1.40" fill="#dfe8ff" opacity="0.31"/><circle cx="1007.9" cy="238.8" r="0.81" fill="#dfe8ff" opacity="0.54"/><circle cx="588.8" cy="767.9" r="1.12" fill="#dfe8ff" opacity="0.25"/><circle cx="1089.0" cy="393.3" r="1.41" fill="#dfe8ff" opacity="0.52"/><circle cx="1082.3" cy="33.1" r="0.48" fill="#dfe8ff" opacity="0.51"/><circle cx="200.2" cy="660.0" r="1.40" fill="#dfe8ff" opacity="0.62"/><circle cx="948.2" cy="710.9" r="1.48" fill="#dfe8ff" opacity="0.62"/><circle cx="519.3" cy="304.3" r="1.73" fill="#dfe8ff" opacity="0.46"/><circle cx="914.9" cy="39.8" r="1.29" fill="#dfe8ff" opacity="0.77"/><circle cx="956.8" cy="287.4" r="1.19" fill="#dfe8ff" opacity="0.62"/><circle cx="876.6" cy="13.7" r="0.61" fill="#dfe8ff" opacity="0.27"/><circle cx="890.9" cy="147.0" r="0.99" fill="#dfe8ff" opacity="0.51"/><circle cx="210.9" cy="0.3" r="1.04" fill="#dfe8ff" opacity="0.59"/><circle cx="1117.5" cy="270.8" r="0.52" fill="#dfe8ff" opacity="0.28"/><circle cx="552.1" cy="657.2" r="1.36" fill="#dfe8ff" opacity="0.31"/><circle cx="136.1" cy="620.1" r="1.39" fill="#dfe8ff" opacity="0.35"/><circle cx="722.4" cy="759.1" r="1.06" fill="#dfe8ff" opacity="0.61"/><circle cx="220.6" cy="47.1" r="0.45" fill="#dfe8ff" opacity="0.47"/><circle cx="1030.2" cy="444.6" r="1.80" fill="#dfe8ff" opacity="0.46"/><circle cx="230.8" cy="130.1" r="1.21" fill="#dfe8ff" opacity="0.80"/><circle cx="494.9" cy="170.6" r="1.47" fill="#dfe8ff" opacity="0.44"/><circle cx="426.8" cy="675.1" r="1.65" fill="#dfe8ff" opacity="0.27"/><circle cx="1096.9" cy="572.4" r="0.76" fill="#dfe8ff" opacity="0.68"/><circle cx="542.7" cy="152.7" r="0.54" fill="#dfe8ff" opacity="0.77"/><circle cx="790.1" cy="82.9" r="1.20" fill="#dfe8ff" opacity="0.56"/><circle cx="221.1" cy="88.8" r="1.19" fill="#dfe8ff" opacity="0.68"/><circle cx="1047.0" cy="587.5" r="1.74" fill="#dfe8ff" opacity="0.74"/><circle cx="483.4" cy="683.8" r="0.90" fill="#dfe8ff" opacity="0.60"/><circle cx="1071.2" cy="554.0" r="0.56" fill="#dfe8ff" opacity="0.34"/><circle cx="65.9" cy="196.2" r="0.56" fill="#dfe8ff" opacity="0.67"/><circle cx="894.6" cy="704.5" r="1.24" fill="#dfe8ff" opacity="0.26"/><circle cx="275.2" cy="509.7" r="0.69" fill="#dfe8ff" opacity="0.40"/><circle cx="1091.7" cy="532.4" r="1.53" fill="#dfe8ff" opacity="0.82"/><circle cx="346.9" cy="635.2" r="1.18" fill="#dfe8ff" opacity="0.33"/><circle cx="1177.7" cy="117.6" r="0.80" fill="#dfe8ff" opacity="0.52"/><circle cx="1166.8" cy="637.2" r="0.88" fill="#dfe8ff" opacity="0.78"/><circle cx="794.2" cy="434.2" r="1.38" fill="#dfe8ff" opacity="0.66"/><circle cx="598.4" cy="628.9" r="1.20" fill="#dfe8ff" opacity="0.62"/><circle cx="688.2" cy="277.6" r="1.35" fill="#dfe8ff" opacity="0.33"/><circle cx="413.1" cy="178.7" r="0.49" fill="#dfe8ff" opacity="0.53"/><circle cx="969.2" cy="134.8" r="0.48" fill="#dfe8ff" opacity="0.64"/><circle cx="856.4" cy="179.7" r="1.72" fill="#dfe8ff" opacity="0.68"/><circle cx="233.2" cy="531.1" r="1.00" fill="#dfe8ff" opacity="0.54"/><circle cx="121.9" cy="445.1" r="1.04" fill="#dfe8ff" opacity="0.69"/><circle cx="510.8" cy="534.0" r="1.08" fill="#dfe8ff" opacity="0.80"/><circle cx="469.0" cy="222.9" r="1.79" fill="#dfe8ff" opacity="0.57"/><circle cx="488.4" cy="212.9" r="1.57" fill="#dfe8ff" opacity="0.37"/><circle cx="634.7" cy="147.7" r="1.63" fill="#dfe8ff" opacity="0.43"/><circle cx="1009.4" cy="281.0" r="1.59" fill="#dfe8ff" opacity="0.75"/><circle cx="200.0" cy="565.3" r="0.59" fill="#dfe8ff" opacity="0.38"/><circle cx="220.4" cy="567.4" r="1.00" fill="#dfe8ff" opacity="0.40"/><circle cx="873.0" cy="414.9" r="1.29" fill="#dfe8ff" opacity="0.84"/><circle cx="761.6" cy="741.5" r="0.60" fill="#dfe8ff" opacity="0.39"/><circle cx="1110.8" cy="216.9" r="0.87" fill="#dfe8ff" opacity="0.82"/><circle cx="680.5" cy="196.4" r="0.70" fill="#dfe8ff" opacity="0.25"/><circle cx="846.1" cy="386.9" r="1.72" fill="#dfe8ff" opacity="0.67"/><circle cx="338.8" cy="622.9" r="1.14" fill="#dfe8ff" opacity="0.51"/><circle cx="238.7" cy="797.3" r="1.16" fill="#dfe8ff" opacity="0.81"/><circle cx="1051.1" cy="150.6" r="1.58" fill="#dfe8ff" opacity="0.44"/><circle cx="133.0" cy="658.5" r="0.89" fill="#dfe8ff" opacity="0.39"/>
  <rect x="28" y="28" width="1144" height="744" fill="none" stroke="#ffffff" stroke-opacity="0.10" rx="10"/>
  <g stroke="#dfe8ff" stroke-opacity="0.55" stroke-width="2">
    <path d="M40 28 L28 28 L28 40"/><path d="M1160 28 L1172 28 L1172 40"/>
    <path d="M40 772 L28 772 L28 760"/><path d="M1160 772 L1172 772 L1172 760"/>
  </g>
  <text x="52" y="726" font-family="ui-monospace,Menlo,monospace" font-size="26" fill="#dfe8ff" fill-opacity="0.82" letter-spacing="1">OFFLINE // 屏幕之外 #1</text>
  <text x="52" y="756" font-family="ui-monospace,Menlo,monospace" font-size="16" fill="#9fd4ff" fill-opacity="0.6" letter-spacing="2">a small light</text>
  <text x="1148" y="726" text-anchor="end" font-family="ui-monospace,Menlo,monospace" font-size="15" fill="#ffffff" fill-opacity="0.35">PLACEHOLDER · NO EXIF</text>
<rect width="1200" height="800" filter="url(#grain)" opacity="0.5"/>
</svg>