<svg xmlns="http://www.w3.org/2000/svg" viewBox="0 0 1200 800" width="1200" height="800" role="img">
<defs>
    <linearGradient id="bg" x1="0" y1="0" x2="1" y2="1">
      <stop offset="0" stop-color="#0a1620"/>
      <stop offset="0.55" stop-color="#0d1a24"/>
      <stop offset="1" stop-color="#101c1e"/>
    </linearGradient>
    <filter id="soft" x="-50%" y="-50%" width="200%" height="200%"><feGaussianBlur stdDeviation="60"/></filter>
    <filter id="grain"><feTurbulence type="fractalNoise" baseFrequency="0.9" numOctaves="2" stitchTiles="stitch"/><feColorMatrix type="saturate" values="0"/><feComponentTransfer><feFuncA type="linear" slope="0.05"/></feComponentTransfer><feComposite operator="over" in2="SourceGraphic"/></filter>
  </defs>
<rect width="1200" height="800" fill="url(#bg)"/>
<circle cx="531" cy="134" r="370" fill="#caa46b" opacity="0.11" filter="url(#soft)"/><circle cx="829" cy="577" r="129" fill="#4df0dd" opacity="0.18" filter="url(#soft)"/><circle cx="1198" cy="504" r="139" fill="#4df0dd" opacity="0.23" filter="url(#soft)"/><circle cx="114" cy="189" r="129" fill="#caa46b" opacity="0.13" filter="url(#soft)"/><circle cx="589" cy="597" r="264" fill="#4df0dd" opacity="0.32" filter="url(#soft)"/><circle cx="124.1" cy="282.8" r="0.51" fill="#dfe8ff" opacity="0.69"/><circle cx="506.3" cy="119.5" r="0.47" fill="#dfe8ff" opacity="0.27"/><circle cx="1102.1" cy="453.1" r="1.53" fill="#dfe8ff" opacity="0.39"/><circle cx="468.2" cy="453.9" r="0.67" fill="#dfe8ff" opacity="0.81"/><circle cx="1017.2" cy="412.6" r="0.65" fill="#dfe8ff" opacity="0.73"/><circle cx="70.9" cy="310.3" r="0.54" fill="#dfe8ff" opacity="0.45"/><circle cx="794.0" cy="83.8" r="0.54" fill="#dfe8ff" opacity="0.40"/><circle cx="884.3" cy="70.2" r="1.38" fill="#dfe8ff" opacity="0.54"/><circle cx="408.1" cy="769.5" r="1.63" fill="#dfe8ff" opacity="0.27"/><circle cx="235.4" cy="313.6" r="1.75" fill="#dfe8ff" opacity="0.76"/><circle cx="136.9" cy="329.1" r="0.93" fill="#dfe8ff" opacity="0.61"/><circle cx="883.2" cy="780.3" r="1.46" fill="#dfe8ff" opacity="0.57"/><circle cx="689.7" cy="438.6" r="1.36" fill="#dfe8ff" opacity="0.51"/><circle cx="896.4" cy="117.3" r="0.67" fill="#dfe8ff" opacity="0.43"/><circle cx="840.3" cy="668.3" r="1.55" fill="#dfe8ff" opacity="0.51"/><circle cx="658.4" cy="573.0" r="1.28" fill="#dfe8ff" opacity="0.29"/><circle cx="146.1" cy="482.7" r="0.72" fill="#dfe8ff" opacity="0.78"/><circle cx="756.7" cy="206.3" r="0.68" fill="#dfe8ff" opacity="0.66"/><circle cx="876.7" cy="647.3" r="1.29" fill="#dfe8ff" opacity="0.34"/><circle cx="688.7" cy="176.3" r="0.61" fill="#dfe8ff" opacity="0.40"/><circle cx="1151.5" cy="394.1" r="1.33" fill="#dfe8ff" opacity="0.26"/><circle cx="548.9" cy="584.2" r="0.78" fill="#dfe8ff" opacity="0.51"/><circle cx="1111.3" cy="553.3" r="1.41" fill="#dfe8ff" opacity="0.83"/><circle cx="256.2" cy="149.4" r="1.45" fill="#dfe8ff" opacity="0.41"/><circle cx="320.1" cy="93.9" r="0.51" fill="#dfe8ff" opacity="0.61"/><circle cx="1054.2" cy="649.3" r="1.63" fill="#dfe8ff" opacity="0.40"/><circle cx="894.4" cy="485.6" r="1.12" fill="#dfe8ff" opacity="0.59"/><circle cx="320.4" cy="84.8" r="0.65" fill="#dfe8ff" opacity="0.78"/><circle cx="348.4" cy="674.1" r="1.57" fill="#dfe8ff" opacity="0.69"/><circle cx="516.9" cy="4.9" r="0.53" fill="#dfe8ff" opacity="0.58"/><circle cx="340.5" cy="754.8" r="1.22" fill="#dfe8ff" opacity="0.76"/><circle cx="600.1" cy="194.9" r="0.57" fill="#dfe8ff" opacity="0.71"/><circle cx="450.2" cy="501.9" r="1.33" fill="#dfe8ff" opacity="0.82"/><circle cx="262.0" cy="58.2" r="0.77" fill="#dfe8ff" opacity="0.44"/><circle cx="728.5" cy="412.6" r="1.02" fill="#dfe8ff" opacity="0.85"/><circle cx="442.6" cy="673.9" r="0.45" fill="#dfe8ff" opacity="0.33"/><circle cx="625.4" cy="557.9" r="1.66" fill="#dfe8ff" opacity="0.58"/><circle cx="528.5" cy="511.3" r="1.21" fill="#dfe8ff" opacity="0.30"/><circle cx="211.1" cy="450.6" r="0.74" fill="#dfe8ff" opacity="0.39"/><circle cx="110.8" cy="261.5" r="1.75" fill="#dfe8ff" opacity="0.60"/><circle cx="1106.5" cy="306.3" r="0.97" fill="#dfe8ff" opacity="0.39"/><circle cx="10.5" cy="245.3" r="1.34" fill="#dfe8ff" opacity="0.49"/><circle cx="653.6" cy="453.4" r="1.07" fill="#dfe8ff" opacity="0.84"/><circle cx="1083.5" cy="167.8" r="0.70" fill="#dfe8ff" opacity="0.58"/><circle cx="1165.0" cy="630.7" r="1.53" fill="#dfe8ff" opacity="0.30"/><circle cx="148.7" cy="387.3" r="0.79" fill="#dfe8ff" opacity="0.74"/><circle cx="94.2" cy="578.2" r="0.67" fill="#dfe8ff" opacity="0.72"/><circle cx="1104.6" cy="452.6" r="0.78" fill="#dfe8ff" opacity="0.71"/><circle cx="172.5" cy="229.0" r="0.76" fill="#dfe8ff" opacity="0.61"/><circle cx="1186.5" cy="605.8" r="1.49" fill="#dfe8ff" opacity="0.30"/><circle cx="535.4" cy="19.7" r="0.99" fill="#dfe8ff" opacity="0.38"/><circle cx="1073.9" cy="343.1" r="0.98" fill="#dfe8ff" opacity="0.53"/><circle cx="353.6" cy="747.7" r="1.30" fill="#dfe8ff" opacity="0.75"/><circle cx="311.5" cy="273.1" r="1.51" fill="#dfe8ff" opacity="0.43"/><circle cx="508.5" cy="91.5" r="0.73" fill="#dfe8ff" opacity="0.33"/><circle cx="650.2" cy="522.4" r="0.56" fill="#dfe8ff" opacity="0.69"/><circle cx="464.0" cy="622.2" r="0.90" fill="#dfe8ff" opacity="0.27"/><circle cx="1155.0" cy="80.0" r="0.98" fill="#dfe8ff" opacity="0.31"/><circle cx="790.9" cy="651.1" r="1.69" fill="#dfe8ff" opacity="0.38"/><circle cx="510.9" cy="343.6" r="0.50" fill="#dfe8ff" opacity="0.31"/>
  <rect x="28" y="28" width="1144" height="744" fill="none" stroke="#ffffff" stroke-opacity="0.10" rx="10"/>
  <g stroke="#dfe8ff" stroke-opacity="0.55" stroke-width="2">
    <path d="M40 28 L28 28 L28 40"/><path d="M1160 28 L1172 28 L1172 40"/>
    <path d="M40 772 L28 772 L28 760"/><path d="M1160 772 L1172 772 L1172 760"/>
  </g>
  <text x="52" y="726" font-family="ui-monospace,Menlo,monospace" font-size="26" fill="#dfe8ff" fill-opacity="0.82" letter-spacing="1">OFFLINE // 屏幕之外 #3</text>
  <text x="52" y="756" font-family="ui-monospace,Menlo,monospace" font-size="16" fill="#9fd4ff" fill-opacity="0.6" letter-spacing="2">a small light</text>
  <text x="1148" y="726" text-anchor="end" font-family="ui-monospace,Menlo,monospace" font-size="15" fill="#ffffff" fill-opacity="0.35">PLACEHOLDER · NO EXIF</text>
<rect width="1200" height="800" filter="url(#grain)" opacity="0.5"/>
</svg>