<svg xmlns="http://www.w3.org/2000/svg" width="1800" height="1125" viewBox="0 0 1800 1125" role="img" aria-label="soft sakura dawn background">
  <defs>
    <linearGradient id="sky" x1="0" y1="0" x2="1" y2="1">
      <stop offset="0" stop-color="#f9eff8"/>
      <stop offset="0.45" stop-color="#edf4ff"/>
      <stop offset="1" stop-color="#f8e9f4"/>
    </linearGradient>
    <radialGradient id="pink" cx="22%" cy="14%" r="58%">
      <stop offset="0" stop-color="#ff9ccc" stop-opacity="0.52"/>
      <stop offset="0.55" stop-color="#ffb8d8" stop-opacity="0.24"/>
      <stop offset="1" stop-color="#ffb8d8" stop-opacity="0"/>
    </radialGradient>
    <radialGradient id="violet" cx="82%" cy="18%" r="54%">
      <stop offset="0" stop-color="#b7a4ff" stop-opacity="0.45"/>
      <stop offset="0.56" stop-color="#c6b9ff" stop-opacity="0.18"/>
      <stop offset="1" stop-color="#c6b9ff" stop-opacity="0"/>
    </radialGradient>
    <radialGradient id="blue" cx="48%" cy="86%" r="60%">
      <stop offset="0" stop-color="#9ec8ff" stop-opacity="0.32"/>
      <stop offset="1" stop-color="#9ec8ff" stop-opacity="0"/>
    </radialGradient>
    <filter id="softBlur">
      <feGaussianBlur stdDeviation="18"/>
    </filter>
  </defs>
  <rect width="1800" height="1125" fill="url(#sky)"/>
  <rect width="1800" height="1125" fill="url(#pink)"/>
  <rect width="1800" height="1125" fill="url(#violet)"/>
  <rect width="1800" height="1125" fill="url(#blue)"/>
  <g filter="url(#softBlur)" opacity="0.58">
    <ellipse cx="255" cy="290" rx="170" ry="72" fill="#ff8fc4"/>
    <ellipse cx="1270" cy="250" rx="220" ry="82" fill="#9a8dff"/>
    <ellipse cx="920" cy="820" rx="290" ry="110" fill="#9ec8ff"/>
    <ellipse cx="1520" cy="790" rx="190" ry="72" fill="#ffc0dc"/>
  </g>
  <g opacity="0.38">
    <path d="M0 805 C280 720 440 875 710 790 C980 705 1110 780 1360 720 C1540 678 1670 690 1800 735 L1800 1125 L0 1125 Z" fill="#fff7fb"/>
    <path d="M0 875 C250 805 470 930 740 846 C1010 762 1195 875 1510 800 C1630 772 1720 768 1800 790 L1800 1125 L0 1125 Z" fill="#eaf3ff" opacity="0.82"/>
  </g>
  <g opacity="0.34" fill="#ff76b7">
    <circle cx="206" cy="198" r="5"/>
    <circle cx="344" cy="266" r="3"/>
    <circle cx="612" cy="170" r="4"/>
    <circle cx="1038" cy="236" r="3"/>
    <circle cx="1478" cy="190" r="4"/>
    <circle cx="1604" cy="340" r="3"/>
  </g>
</svg>
